<?xml version="1.0" encoding="UTF-8"?>
<svg id="_レイヤー_2" data-name="レイヤー 2" xmlns="http://www.w3.org/2000/svg" viewBox="0 0 98.07 68.15">
  <defs>
    <style>
      .cls-1 {
        fill: #646464;
      }
    </style>
  </defs>
  <g id="_レイアウト" data-name="レイアウト">
    <g>
      <path class="cls-1" d="m15.49,68.15c-4.27,0-7.91-2.06-10.94-6.2C1.51,57.82,0,51.85,0,44.03c0-11.14,3.12-21.26,9.37-30.37C15.62,4.55,21.89,0,28.18,0c4.81,0,8.59,2.31,11.35,6.93,2.76,4.62,4.14,10.18,4.14,16.68,0,11.51-3.11,21.81-9.32,30.9-6.21,9.09-12.5,13.63-18.87,13.63ZM28.08,2.29c-3.05,0-5.7,1.65-7.95,4.95-2.25,3.3-4.86,11.04-7.82,23.23-2.96,12.19-4.44,20.69-4.44,25.49,0,3.15.66,5.59,1.98,7.31s3.13,2.59,5.43,2.59c3.66,0,6.68-1.89,9.06-5.66,2.39-3.77,4.88-11.92,7.49-24.45,2.61-12.53,3.91-20.7,3.91-24.53,0-2.54-.67-4.66-2.01-6.37-1.34-1.71-3.22-2.56-5.66-2.56Z"/>
      <path class="cls-1" d="m91.82,49.41l-4.01,17.16h-36.41v-3.1c4.5-5.86,11.53-12.83,21.07-20.92,10.29-8.67,15.44-18.69,15.44-30.06,0-2.95-.77-5.33-2.31-7.16-1.54-1.83-3.65-2.74-6.32-2.74-3.89,0-7.21,1.21-9.95,3.63-2.74,2.42-4.11,4.68-4.11,6.78,0,.3.13.66.41,1.07.27.41.63.61,1.07.61l2.29-.2c2.98,0,4.47,1.39,4.47,4.16,0,1.42-.51,2.61-1.52,3.55-1.02.95-2.2,1.42-3.55,1.42-1.9,0-3.45-.76-4.65-2.29-1.2-1.52-1.8-3.28-1.8-5.28,0-3.93,1.73-7.58,5.18-10.97,3.45-3.38,8.09-5.08,13.91-5.08,5.28,0,9.45,1.41,12.49,4.21,3.05,2.81,4.57,6.16,4.57,10.05,0,4.2-1.46,8.07-4.39,11.6-2.93,3.54-8.9,9.23-17.9,17.06-9.01,7.84-14.61,12.97-16.81,15.41h21.63c2.84,0,4.67-.3,5.48-.91s1.54-2.06,2.18-4.37c.64-2.3,1-3.52,1.07-3.66h2.49Z"/>
    </g>
  </g>
</svg>