<?xml version="1.0" encoding="UTF-8"?>
<svg id="_レイヤー_2" data-name="レイヤー 2" xmlns="http://www.w3.org/2000/svg" viewBox="0 0 96.65 68.15">
  <defs>
    <style>
      .cls-1 {
        fill: #646464;
      }
    </style>
  </defs>
  <g id="_レイアウト" data-name="レイアウト">
    <g>
      <path class="cls-1" d="m15.49,68.15c-4.27,0-7.91-2.06-10.94-6.2C1.51,57.82,0,51.85,0,44.03c0-11.14,3.12-21.26,9.37-30.37C15.62,4.55,21.89,0,28.18,0c4.81,0,8.59,2.31,11.35,6.93,2.76,4.62,4.14,10.18,4.14,16.68,0,11.51-3.11,21.81-9.32,30.9-6.21,9.09-12.5,13.63-18.87,13.63ZM28.08,2.29c-3.05,0-5.7,1.65-7.95,4.95-2.25,3.3-4.86,11.04-7.82,23.23-2.96,12.19-4.44,20.69-4.44,25.49,0,3.15.66,5.59,1.98,7.31s3.13,2.59,5.43,2.59c3.66,0,6.68-1.89,9.06-5.66,2.39-3.77,4.88-11.92,7.49-24.45,2.61-12.53,3.91-20.7,3.91-24.53,0-2.54-.67-4.66-2.01-6.37-1.34-1.71-3.22-2.56-5.66-2.56Z"/>
      <path class="cls-1" d="m78.62,30.93v.2c10.05,1.59,15.08,6.62,15.08,15.08,0,5.89-2.48,11-7.44,15.34-4.96,4.33-10.59,6.5-16.88,6.5-4.64,0-8.48-1.23-11.53-3.68s-4.57-5.29-4.57-8.51c0-1.86.56-3.4,1.68-4.62s2.52-1.83,4.21-1.83c1.35,0,2.5.44,3.43,1.32.93.88,1.4,2,1.4,3.35,0,2.27-1.02,3.83-3.05,4.67-1.39.64-2.08,1.3-2.08,1.98,0,.95,1,1.93,3,2.95,2,1.02,4.01,1.52,6.04,1.52,4.74,0,8.49-2.19,11.25-6.58,2.76-4.38,4.14-9.5,4.14-15.36,0-7.21-3.08-10.82-9.24-10.82-.98,0-2.3.13-3.96.38-1.66.25-2.56.38-2.69.38-1.25,0-1.88-.56-1.88-1.68,0-1.32.86-1.98,2.59-1.98l4.98.36c4.54,0,7.95-2.1,10.23-6.3,2.29-4.2,3.43-8.43,3.43-12.7,0-5.75-2.49-8.63-7.46-8.63-2.23,0-4.23.47-5.99,1.42-1.76.95-2.64,1.79-2.64,2.54,0,.44.13.76.41.96,1.86,1.22,2.79,2.67,2.79,4.37,0,1.29-.42,2.4-1.27,3.35-.85.95-2.05,1.42-3.61,1.42-1.46,0-2.62-.48-3.48-1.45s-1.29-2.07-1.29-3.33c0-2.98,1.59-5.65,4.77-8.02,3.18-2.37,7.13-3.55,11.83-3.55s8.48,1.29,11.43,3.86c2.95,2.57,4.42,5.76,4.42,9.55,0,8.77-6.01,14.61-18.03,17.52Z"/>
    </g>
  </g>
</svg>