<?xml version="1.0" encoding="UTF-8"?>
<svg id="_レイヤー_2" data-name="レイヤー 2" xmlns="http://www.w3.org/2000/svg" viewBox="0 0 97.76 68.35">
  <defs>
    <style>
      .cls-1 {
        fill: #646464;
      }
    </style>
  </defs>
  <g id="_レイアウト" data-name="レイアウト">
    <g>
      <path class="cls-1" d="m15.49,68.35c-4.27,0-7.91-2.06-10.94-6.2C1.51,58.03,0,52.05,0,44.23c0-11.14,3.12-21.26,9.37-30.37C15.62,4.76,21.89.2,28.18.2c4.81,0,8.59,2.31,11.35,6.93,2.76,4.62,4.14,10.18,4.14,16.68,0,11.51-3.11,21.81-9.32,30.9-6.21,9.09-12.5,13.63-18.87,13.63ZM28.08,2.49c-3.05,0-5.7,1.65-7.95,4.95-2.25,3.3-4.86,11.04-7.82,23.23-2.96,12.19-4.44,20.69-4.44,25.49,0,3.15.66,5.59,1.98,7.31s3.13,2.59,5.43,2.59c3.66,0,6.68-1.89,9.06-5.66,2.39-3.77,4.88-11.92,7.49-24.45,2.61-12.53,3.91-20.7,3.91-24.53,0-2.54-.67-4.66-2.01-6.37-1.34-1.71-3.22-2.56-5.66-2.56Z"/>
      <path class="cls-1" d="m94.97,0l-10.11,46.92h8.94l1.37-6.04h2.59l-3.66,16.25h-2.49l1.68-7.62h-9.04l-3.25,14.68h7.41l-.51,2.59h-24.38l.46-2.59h7.57l3.25-14.68h-23.61v-2.08c10.73-15.37,23.73-31.18,39-47.43h4.77Zm-19.65,46.92l7.57-34.84-.2-.2c-9.07,10.09-17.81,20.87-26.2,32.35l-1.98,2.69h20.82Z"/>
    </g>
  </g>
</svg>