<?xml version="1.0" encoding="UTF-8"?>
<svg id="_レイヤー_2" data-name="レイヤー 2" xmlns="http://www.w3.org/2000/svg" viewBox="0 0 98.07 69.93">
  <defs>
    <style>
      .cls-1 {
        fill: #646464;
      }
    </style>
  </defs>
  <g id="_レイアウト" data-name="レイアウト">
    <g>
      <path class="cls-1" d="m15.49,69.93c-4.27,0-7.91-2.06-10.94-6.2C1.51,59.6,0,53.62,0,45.8c0-11.14,3.12-21.26,9.37-30.37C15.62,6.33,21.89,1.78,28.18,1.78c4.81,0,8.59,2.31,11.35,6.93,2.76,4.62,4.14,10.18,4.14,16.68,0,11.51-3.11,21.81-9.32,30.9-6.21,9.09-12.5,13.63-18.87,13.63ZM28.08,4.06c-3.05,0-5.7,1.65-7.95,4.95-2.25,3.3-4.86,11.04-7.82,23.23-2.96,12.19-4.44,20.69-4.44,25.49,0,3.15.66,5.59,1.98,7.31s3.13,2.59,5.43,2.59c3.66,0,6.68-1.89,9.06-5.66,2.39-3.77,4.88-11.92,7.49-24.45,2.61-12.53,3.91-20.7,3.91-24.53,0-2.54-.67-4.66-2.01-6.37-1.34-1.71-3.22-2.56-5.66-2.56Z"/>
      <path class="cls-1" d="m68.87,11.78l-5.13,19.86c3.49-1.52,7.24-2.29,11.27-2.29,5.25,0,9.64,1.5,13.18,4.49,3.54,3,5.31,7.15,5.31,12.47,0,6.2-2.34,11.68-7.03,16.45-4.69,4.77-10.62,7.16-17.8,7.16-4.4,0-8.03-1.15-10.89-3.45-2.86-2.3-4.29-5.11-4.29-8.43,0-3.93,1.83-5.89,5.48-5.89,1.59,0,2.78.46,3.58,1.37.79.91,1.19,2.01,1.19,3.3s-.31,2.24-.94,2.87-1.47,1.17-2.54,1.62-1.6,1.01-1.6,1.65c0,1.15,1.02,2.18,3.07,3.1,2.05.91,4.07,1.37,6.07,1.37,5.42,0,9.38-2.47,11.88-7.41,2.5-4.94,3.76-10.24,3.76-15.89,0-4.91-1.23-8.13-3.68-9.67-2.46-1.54-4.83-2.31-7.13-2.31-3.01,0-6.25.98-9.7,2.95l-2.49-.36,6.75-26.91c.54-2.1,1.25-3.37,2.13-3.81.88-.44,2.74-.66,5.59-.66h11.93c3.35,0,5.48-.18,6.37-.53.9-.36,1.72-1.29,2.46-2.82h2.39c-.95,3.52-2.09,6.15-3.43,7.9-1.34,1.74-2.73,2.83-4.16,3.25-1.44.42-3.31.63-5.61.63h-16Z"/>
    </g>
  </g>
</svg>