<?xml version="1.0" encoding="UTF-8"?>
<svg xmlns="http://www.w3.org/2000/svg" viewBox="0 0 522.05 456.45">
  <defs>
    <style>
      .cls-1, .cls-2, .cls-3, .cls-4, .cls-5, .cls-6 {
        fill: none;
      }

      .cls-1, .cls-4, .cls-5, .cls-6 {
        stroke-linecap: round;
      }

      .cls-1, .cls-5 {
        stroke: #969696;
      }

      .cls-1, .cls-5, .cls-6 {
        stroke-linejoin: round;
      }

      .cls-2, .cls-4 {
        stroke-miterlimit: 10;
      }

      .cls-2, .cls-4, .cls-6 {
        stroke: #939393;
      }

      .cls-2, .cls-5, .cls-6 {
        stroke-width: 3px;
      }

      .cls-3 {
        isolation: isolate;
      }

      .cls-7 {
        fill: #fff;
      }

      .cls-8 {
        fill: #969696;
      }

      .cls-9 {
        fill: #939393;
      }

      .cls-10 {
        fill: #ffe3e7;
        mix-blend-mode: multiply;
      }

      .cls-4 {
        stroke-width: 10px;
      }
    </style>
  </defs>
  <g class="cls-3">
    <g id="_レイヤー_2" data-name="レイヤー 2">
      <g id="_レイアウト" data-name="レイアウト">
        <g>
          <g>
            <path class="cls-9" d="m26.65,298.29c-.74-8.61-1.44-16.83-2.16-25.04-1.57-17.8-3.17-35.59-4.75-53.39-.82-9.22-1.59-18.44-2.45-27.65-.45-4.77,1.85-7.91,6.7-8.65,26.66-4.08,53.33-8.13,79.99-12.15,4.41-.67,6.48,1.07,6.87,5.47,3.42,38.4,6.85,76.79,10.27,115.19.1,1.17.2,2.36.21,3.55,0,3.56-2.2,6.23-5.71,6.98-.46.1-.92.16-1.38.23-27.77,4.21-55.53,8.43-83.3,12.6-1.32.2-2.75.11-3.95-.27-6.83-2.13-13.59-4.41-20.4-6.58-1.98-.63-3.62-1.49-3.01-4.09.6-2.61,2.59-3.12,4.76-3.43,5.96-.85,11.92-1.79,18.33-2.77Zm37.5-118.7c-13.14,2-26.29,3.99-39.43,5.99-4.45.68-5.67,2.34-5.28,6.72,2.33,25.92,4.62,51.85,6.92,77.78,1.15,13.01,2.27,26.03,3.43,39.04.28,3.2,1.49,4.11,4.76,3.73.83-.09,1.65-.21,2.48-.34,25.46-3.87,50.92-7.75,76.39-11.62,4.98-.76,6.06-1.99,5.64-6.92-1.46-16.9-2.97-33.79-4.47-50.69-1.94-21.86-3.88-43.72-5.85-65.58-.36-3.94-1.41-4.66-5.42-4.06-13.05,1.97-26.11,3.96-39.16,5.94Zm-36.04,133.59c-.48-4.45-.91-8.47-1.37-12.73-6.56,1-12.97,1.94-19.38,2.99-.58.09-1.15.81-1.73,1.24.36.52.58,1.33,1.1,1.5,7.07,2.37,14.19,4.66,21.38,6.99Z"/>
            <path class="cls-7" d="m64.15,179.59c13.05-1.98,26.11-3.97,39.16-5.94,4.01-.61,5.07.12,5.42,4.06,1.98,21.85,3.91,43.72,5.85,65.58,1.5,16.89,3.01,33.78,4.47,50.69.42,4.92-.66,6.16-5.64,6.92-25.46,3.87-50.92,7.75-76.39,11.62-.83.13-1.65.24-2.48.34-3.27.37-4.47-.53-4.76-3.73-1.16-13.01-2.28-26.03-3.43-39.04-2.3-25.93-4.59-51.86-6.92-77.78-.39-4.38.83-6.04,5.28-6.72,13.14-2,26.29-4,39.43-5.99Zm-5.14,85.1c1.93-.29,3.86-.67,5.78-.85,1.99-.19,2.58-1.15,2.38-3-.42-3.86-.62-7.77-1.16-11.59-.1-.7-1.31-1.59-2.04-1.51-4.03.43-8.07,1.15-12.1,1.75-1.54.23-2.1,1.01-1.96,2.52.34,3.51.72,7.01.82,10.57.08,2.72,1.17,3.6,3.88,2.82,1.44-.41,2.93-.48,4.4-.7Zm-3.06-39.33c-1.84.28-3.68.66-5.51.81-2.04.17-2.85.99-2.6,3.08.44,3.67.79,7.38,1.01,11.1.1,1.82.92,2.18,2.6,1.89,3.77-.65,7.54-1.23,11.31-1.72,1.78-.23,2.51-.94,2.32-2.77-.35-3.33-.72-6.66-.8-10.05-.07-2.95-1.27-3.9-4.2-3.01-1.35.41-2.75.45-4.13.66Zm23.81-3.61c-2.2.33-4.41.54-6.59,1.08-.65.16-1.75,1.4-1.73,1.95.21,4.17.57,8.32,1.09,12.42.08.65,1.17,1.51,1.83,1.44,4.12-.47,8.24-1.2,12.37-1.78,1.61-.23,2.1-1.06,1.94-2.52-.21-1.97-.4-3.95-.53-5.94q-.51-7.86-8.38-6.66Zm-.48,29.84c.12,1.31.23,2.49.35,3.78-1.6.32-2.85.57-4.34.87.11,1.67.21,3.15.31,4.7l4.94-.75v-4.21l3.7-.56c.23,1.45.43,2.76.64,4.11l4.93-.75c-.19-1.66-.36-3.13-.54-4.66-1.59.15-2.94.28-4.42.42-.13-1.25-.24-2.38-.38-3.67,1.54-.39,2.86-.73,4.41-1.13-.13-1.64-.25-3.12-.37-4.62l-4.91.75v4.27l-3.63.55c-.28-1.53-.54-2.9-.78-4.21l-4.84.74c.17,1.68.32,3.16.48,4.72,1.57-.12,2.91-.23,4.44-.35Zm-8.03-6.66c-.14-.25-.28-.49-.43-.74.98-.15,1.98-.16,2.92-.5.57-.21,1.03-.92,1.54-1.4-.52-.32-.99-.89-1.56-.91-1.02-.03-2.09.27-3.17.43-.2-1.4-.22-2.43-.54-3.31-.19-.52-.86-.81-1.31-1.2-.35.61-.89,1.21-.99,1.82-.17.96-.04,1.93-.04,3.12-1.07.16-1.93.12-2.68.46-.63.29-1.13,1.01-1.69,1.53.54.28,1.04.78,1.63.8.95.03,1.96-.25,2.34-.31,1.03,1.75,1.81,3.07,2.59,4.39.46-1.4.92-2.8,1.39-4.2Z"/>
            <path class="cls-7" d="m28.11,313.18c-7.19-2.34-14.3-4.62-21.38-6.99-.52-.17-.74-.99-1.1-1.5.58-.43,1.15-1.15,1.73-1.24,6.41-1.04,12.83-1.99,19.38-2.99.46,4.26.89,8.28,1.37,12.73Z"/>
          </g>
          <g>
            <path class="cls-7" d="m318.55,204.82c-.38-1.19-.77-2.29-1.09-3.42-8.79-30.7-17.55-61.41-26.37-92.1-2.46-8.57-9.46-12.41-18.01-9.97-28.06,8.01-56.11,16.03-84.16,24.09-9.42,2.71-13.11,9.48-10.42,18.96,3.61,12.72,7.26,25.44,10.89,38.16,3.04,10.64,6.07,21.28,9.19,32.23-2.58-.32-4.79-.83-7.01-.83-8.7.02-12.84,6.67-8.19,13.96,2.62,4.1,6.47,7.57,10.27,10.72,3.64,3.02,7.85,5.4,11.96,7.81,2.73,1.6,3.54,3.86,3.56,6.68-5.91,2.6-9,6.77-8.65,12.02.38,5.7,3.88,8.97,9.01,10.83,1.4.51,2.74,1.17,4.26,1.83-9.82,8.22-8.3,17.81,3.21,22.47,1.41.57,2.8,1.21,4.09,1.77-1.29,1.72-2.75,3.18-3.64,4.94-2.75,5.48-.42,11.19,5.59,13.73,3.61,1.52,6.78,3.15,9.41,6.48,1.9,2.4,5.8,3.25,8.86,4.69,1.14.54,2.55.56,3.59,1.21,5.45,3.41,10.81,6.97,16.23,10.42,8.13,5.19,16.33,10.27,24.42,15.52,3.19,2.07,5.24,4.96,6.1,8.87,1.11,4.99,27.88,83.13,29.41,88.02.3.95,1.28,1.68,1.95,2.51.19-1.13.75-2.34.5-3.36-1.05-4.28-27.82-81.69-28.65-86-1.19-6.21-4.62-10.61-9.8-13.84-7.88-4.92-15.81-9.76-23.7-14.66-4.68-2.91-9.33-5.88-14.58-9.19,1.98-.67,3.08-1.09,4.21-1.41,26.34-7.54,52.68-15.06,79.02-22.58,11.06-3.16,14.47-9.31,11.28-20.49-6.93-24.29-13.86-48.58-20.88-72.85-.7-2.43-.66-4.28,1.36-6.04,2.98-2.59,6.12-4.92,10.27-3.69,4.08,1.21,4.24,5.07,4.76,8.47,1.92,12.5,5.64,24.36,12.19,35.25,5.29,8.81,8.24,18.43,9.98,28.51,2.61,15.12,3.21,30.37,2.43,45.63-.74,14.35,29.57,100.66,33.24,114.06.17.61,1.26.97,1.93,1.45.18-.84.67-1.76.48-2.5-1.2-4.61-27.55-82.49-29.08-87-3.06-9.05-4.03-18.3-3.75-27.83.24-8.1.14-16.23-.31-24.32-1.04-18.62-4.69-36.45-14.24-52.99-4.21-7.28-6.16-15.91-8.85-24.02-1-3.02-1.13-6.32-1.77-9.48-1.47-7.31-7.21-10.28-13.95-7.08-2.22,1.05-4.15,2.73-6.56,4.35Z"/>
            <path class="cls-9" d="m318.55,204.82c2.41-1.62,4.34-3.3,6.56-4.35,6.75-3.2,12.48-.22,13.95,7.08.64,3.15.77,6.46,1.77,9.48,2.69,8.11,4.64,16.73,8.85,24.02,9.55,16.54,13.2,34.37,14.24,52.99.45,8.09.55,16.22.31,24.32-.28,9.52.68,18.77,3.75,27.83,1.53,4.51,27.88,82.39,29.08,87,.19.74-.3,1.66-.48,2.5-.66-.48-1.76-.83-1.93-1.45-3.67-13.4-36.95-91.62-33.24-114.06.78-15.26.18-30.51-2.43-45.63-1.74-10.08-4.68-19.7-9.98-28.51-6.55-10.9-10.27-22.75-12.19-35.25-.52-3.39-.69-7.26-4.76-8.47-4.14-1.23-7.29,1.1-10.27,3.69-2.02,1.76-2.07,3.61-1.36,6.04,7.02,24.27,13.94,48.56,20.88,72.85,3.19,11.18-.22,17.33-11.28,20.49-26.34,7.52-52.68,15.05-79.02,22.58-1.13.32-2.24.75-4.21,1.41,5.24,3.31,9.89,6.28,14.58,9.19,7.89,4.9,15.82,9.74,23.7,14.66,5.18,3.23,8.62,7.63,9.8,13.84.82,4.31,27.6,81.72,28.65,86,.25,1.02-.31,2.24-.5,3.36-.67-.83-1.65-1.56-1.95-2.51-1.53-4.89-28.3-83.03-29.41-88.02-.87-3.91-2.91-6.8-6.1-8.87-8.09-5.25-16.29-10.34-24.42-15.52-5.42-3.46-10.78-7.02-16.23-10.42-1.04-.65-2.46-.68-3.59-1.21-3.06-1.44-6.96-2.29-8.86-4.69-2.63-3.33-5.8-4.96-9.41-6.48-6.01-2.53-8.34-8.25-5.59-13.73.88-1.76,2.35-3.23,3.64-4.94-1.29-.56-2.68-1.2-4.09-1.77-11.52-4.66-13.03-14.25-3.21-22.47-1.52-.66-2.86-1.33-4.26-1.83-5.13-1.86-8.63-5.13-9.01-10.83-.35-5.26,2.74-9.42,8.65-12.02-.02-2.81-.83-5.08-3.56-6.68-4.11-2.41-8.31-4.79-11.96-7.81-3.8-3.15-7.66-6.61-10.27-10.72-4.65-7.29-.51-13.94,8.19-13.96,2.21,0,4.43.51,7.01.83-3.12-10.94-6.16-21.59-9.19-32.23-3.63-12.72-7.28-25.43-10.89-38.16-2.69-9.48,1.01-16.26,10.42-18.96,28.05-8.06,56.1-16.08,84.16-24.09,8.55-2.44,15.55,1.4,18.01,9.97,8.82,30.69,17.58,61.4,26.37,92.1.32,1.13.71,2.23,1.09,3.42Zm-90.55,73.76c5.03-.55,8.68-2.69,9.69-6.31,1.06-3.77-1.02-7.46-5.6-9.55-5.72-2.61-11.49-5.14-17.27-7.61-4.61-1.97-7.84-1.06-10.15,2.69-2.44,3.96-2.04,9.33,1.93,11.41,6.88,3.61,14.24,6.3,21.4,9.38Zm6.82,24.04c.12-.28.23-.56.35-.84,4.75.31,8.32-1.74,9.4-5.4,1.1-3.74-.97-7.47-5.54-9.56-5.72-2.62-11.49-5.13-17.26-7.62-4.72-2.04-8.09-1.05-10.37,2.91-2.31,4.01-1.69,9.26,2.34,11.34,6.81,3.5,14.04,6.16,21.09,9.18Zm4.95,20.06c4.26-.29,7.38-2.01,8.32-5.05.93-3.03-.73-6.2-4.48-7.94-4.95-2.3-9.98-4.44-15.01-6.56-3.91-1.65-6.68-.78-8.5,2.51-1.78,3.22-1.31,7.58,1.84,9.2,5.76,2.97,11.87,5.27,17.84,7.85Zm-33.83-81.18c.24-.14.48-.28.72-.42-2.03-7.18-4.32-14.3-6-21.57-.91-3.93-3.71-4.21-6.58-4.66-3.37-.53-7.05-.72-8.92,2.71-.85,1.56-.83,4.5.11,5.96,2.21,3.45,4.87,6.8,8,9.42,3.89,3.26,8.43,5.74,12.69,8.55Z"/>
            <path class="cls-7" d="m234.89,323.99c4.53.99,10.8,1.6,14.11-2.46,2.84-3.49,3.07-10.53-1.62-12.65-2.65-1.2-5.13-2.81-7.67-4.22.05-.13.09-.41.2-.45,4.62-1.6,7.61-4.65,7.63-9.68.02-5.12-3.09-8.31-7.53-10.35-2.45-1.13-4.93-2.19-7.73-3.44.7-.44.94-.66,1.22-.76,4.32-1.61,7.03-4.59,7.15-9.28.13-4.81-2.49-8.16-6.69-10.12-6.26-2.91-12.68-5.49-18.92-8.45-1.38-.66-2.91-2.14-3.31-3.55-10.1-34.9-20.06-69.85-30.03-104.79-.52-1.83-1.03-3.69-1.25-5.57-.66-5.79,2.62-10.18,8.92-11.99,22.1-6.35,44.22-12.66,66.32-18.99,5.84-1.67,11.67-3.41,17.52-5.03,7.9-2.18,13.1.54,15.36,8.39,11.01,38.24,21.94,76.5,32.88,114.76,5.86,20.5,11.73,41,17.51,61.53,2.3,8.17-.57,13.21-8.62,15.51-27.84,7.97-55.69,15.89-83.51,23.9-4.16,1.2-7.93,1.15-11.94-2.31Zm27.16-88.78c-1.59-5.3-3-10.2-4.61-15.04-.13-.38-1.68-.59-2.44-.39-4.02,1.04-8.05,2.11-11.96,3.5-.88.31-1.98,2.09-1.79,2.93.91,4.17,2.11,8.29,3.5,12.33.26.76,1.97,1.68,2.78,1.5,4.16-.95,8.26-2.21,12.35-3.45.79-.24,1.46-.9,2.18-1.37Zm-7.07-24.59c-1.51-5.21-2.8-9.91-4.33-14.53-.17-.53-1.79-1.02-2.57-.83-4.15,1.04-8.27,2.19-12.31,3.58-.78.27-1.74,1.93-1.56,2.71.95,4.16,2.11,8.3,3.52,12.33.29.82,2.12,1.8,3.01,1.6,4.05-.89,8.04-2.11,12.01-3.34.86-.27,1.56-1.04,2.23-1.52Zm24.54-6.87c-1.57-5.31-2.97-10.22-4.57-15.06-.13-.4-1.72-.64-2.51-.44-4.02,1.03-8.05,2.1-11.96,3.48-.87.31-1.97,2.1-1.78,2.95.92,4.16,2.13,8.28,3.52,12.31.27.78,1.95,1.73,2.74,1.55,4.16-.96,8.25-2.22,12.33-3.46.79-.24,1.46-.86,2.21-1.33Zm-8.99,28.7c2.04-.64,3.56-1.11,5.09-1.59-.37-1.8-.65-3.15-.97-4.73,1.43-.39,2.63-.72,3.87-1.06.63,1.62,1.16,3.01,1.78,4.61,1.76-.57,3.29-1.07,5-1.62-.57-1.87-1.05-3.4-1.54-5.01-1.75.42-3.1.75-4.67,1.13-.41-1.44-.75-2.64-1.13-3.94,1.62-.64,3.02-1.19,4.58-1.8-.51-1.7-.97-3.24-1.51-5.03-1.89.6-3.42,1.09-4.97,1.58.32,1.73.57,3.1.86,4.71-1.37.37-2.56.68-3.85,1.03-.59-1.59-1.07-2.89-1.66-4.47-1.69.49-3.22.92-5.03,1.44.54,1.9.98,3.44,1.44,5.06,1.75-.37,3.19-.68,4.82-1.02.36,1.47.66,2.69.98,3.98-1.61.58-2.92,1.06-4.47,1.62.46,1.7.87,3.25,1.39,5.14Zm-11.75-15.83c.95,1.19,1.95,2.45,2.96,3.71.28-1.65.56-3.31.82-4.78,1.16-1.02,2.43-2.14,3.69-3.25l-4.74-.34c-1.08-1.46-2.05-2.78-3.03-4.1-.32,1.75-.63,3.51-.88,4.88-1.26,1.11-2.46,2.16-3.66,3.21,1.57.21,3.14.43,4.84.66Zm-16.62,29.88c-.58-1.85-.98-3.45-1.61-4.95-.22-.52-1.01-.8-1.53-1.19-.35.65-1.1,1.38-.98,1.94.43,2.08,1.04,4.14,1.81,6.11.22.55,1.3,1.21,1.85,1.1,2.08-.41,4.13-1.04,6.13-1.76.51-.18.78-1.01,1.17-1.54-.65-.34-1.35-1.05-1.93-.97-1.6.23-3.15.78-4.9,1.26Zm-14.43-50.33c1.67-.5,3.06-.76,4.31-1.34.72-.33,1.21-1.17,1.81-1.79-.89-.27-1.83-.85-2.68-.73-1.62.23-3.29.64-4.73,1.39-.78.4-1.65,1.69-1.56,2.49.2,1.85.85,3.68,1.53,5.43.24.62,1.09,1,1.67,1.48.3-.78.93-1.59.84-2.33-.17-1.47-.72-2.9-1.18-4.6Zm64.65,35.92c-1.72.54-3.23.88-4.62,1.5-.6.27-.93,1.12-1.39,1.71.66.31,1.39.97,1.97.86,1.98-.39,3.96-.92,5.82-1.69.6-.25,1.22-1.5,1.11-2.17-.34-1.98-.96-3.93-1.64-5.84-.19-.52-.98-.82-1.49-1.22-.34.65-1.01,1.34-.94,1.94.18,1.52.69,2.99,1.18,4.91Zm-14.38-50.28c.57,1.8.91,3.33,1.54,4.71.26.58,1.15.87,1.76,1.29.25-.7.82-1.45.7-2.08-.36-1.86-.86-3.73-1.58-5.48-.27-.66-1.38-1.5-1.97-1.4-2.1.36-4.16,1.01-6.17,1.73-.49.17-.74,1.02-1.11,1.56.68.31,1.39.94,2.02.86,1.5-.19,2.97-.71,4.81-1.19Z"/>
            <path class="cls-7" d="m227.99,278.58c-7.16-3.08-14.52-5.77-21.4-9.38-3.97-2.08-4.37-7.45-1.93-11.41,2.31-3.75,5.54-4.66,10.15-2.69,5.78,2.47,11.55,4.99,17.27,7.61,4.58,2.09,6.66,5.78,5.6,9.55-1.02,3.62-4.66,5.76-9.69,6.31Z"/>
            <path class="cls-7" d="m234.82,302.62c-7.05-3.01-14.29-5.68-21.09-9.18-4.04-2.08-4.66-7.32-2.34-11.34,2.28-3.96,5.65-4.95,10.37-2.91,5.77,2.49,11.54,5,17.26,7.62,4.57,2.1,6.64,5.83,5.54,9.56-1.08,3.66-4.64,5.71-9.4,5.4-.12.28-.23.56-.35.84Z"/>
            <path class="cls-7" d="m239.76,322.68c-5.96-2.58-12.08-4.87-17.84-7.85-3.15-1.63-3.62-5.98-1.84-9.2,1.82-3.29,4.59-4.16,8.5-2.51,5.03,2.12,10.06,4.27,15.01,6.56,3.75,1.74,5.42,4.91,4.48,7.94-.94,3.04-4.06,4.76-8.32,5.05Z"/>
            <path class="cls-7" d="m205.94,241.51c-4.26-2.81-8.8-5.29-12.69-8.55-3.13-2.62-5.78-5.97-8-9.42-.94-1.47-.96-4.4-.11-5.96,1.87-3.44,5.55-3.24,8.92-2.71,2.88.45,5.67.73,6.58,4.66,1.68,7.26,3.97,14.39,6,21.57-.24.14-.48.28-.72.42Z"/>
            <path class="cls-9" d="m262.05,235.21c-.72.46-1.39,1.13-2.18,1.37-4.09,1.24-8.19,2.5-12.35,3.45-.81.19-2.52-.73-2.78-1.5-1.39-4.04-2.58-8.16-3.5-12.33-.18-.84.92-2.62,1.79-2.93,3.91-1.39,7.94-2.45,11.96-3.5.76-.2,2.32.02,2.44.39,1.61,4.84,3.03,9.74,4.61,15.04Zm-14.85,2.18c3.95-1.14,7.65-2.21,11.6-3.35-1.17-4.04-2.24-7.74-3.37-11.63-4.08,1.21-7.77,2.3-11.58,3.43,1.17,4.03,2.22,7.65,3.35,11.56Z"/>
            <path class="cls-9" d="m254.98,210.62c-.67.47-1.37,1.25-2.23,1.52-3.97,1.23-7.96,2.45-12.01,3.34-.88.19-2.72-.78-3.01-1.6-1.41-4.03-2.57-8.16-3.52-12.33-.18-.78.79-2.44,1.56-2.71,4.04-1.39,8.16-2.54,12.31-3.58.77-.19,2.4.3,2.57.83,1.53,4.62,2.81,9.32,4.33,14.53Zm-14.77,2.27c3.95-1.14,7.65-2.21,11.61-3.36-1.18-4.04-2.26-7.72-3.39-11.6-4.09,1.18-7.78,2.25-11.58,3.36,1.19,4.11,2.25,7.73,3.37,11.6Z"/>
            <path class="cls-9" d="m279.52,203.75c-.76.47-1.43,1.09-2.21,1.33-4.09,1.24-8.18,2.5-12.33,3.46-.79.18-2.47-.77-2.74-1.55-1.39-4.03-2.6-8.15-3.52-12.31-.19-.85.91-2.64,1.78-2.95,3.91-1.38,7.93-2.45,11.96-3.48.78-.2,2.38.04,2.51.44,1.6,4.84,2.99,9.75,4.57,15.06Zm-18.18-9.49c1.15,4.01,2.21,7.69,3.34,11.63,4.06-1.17,7.75-2.23,11.61-3.34-1.2-4.16-2.26-7.86-3.35-11.62-3.99,1.15-7.51,2.16-11.6,3.33Z"/>
            <path class="cls-9" d="m270.53,232.45c-.51-1.9-.93-3.45-1.39-5.14,1.55-.56,2.86-1.04,4.47-1.62-.32-1.29-.61-2.5-.98-3.98-1.62.34-3.07.65-4.82,1.02-.46-1.62-.9-3.16-1.44-5.06,1.8-.52,3.33-.96,5.03-1.44.59,1.58,1.07,2.89,1.66,4.47,1.28-.34,2.48-.66,3.85-1.03-.3-1.61-.55-2.98-.86-4.71,1.56-.5,3.08-.98,4.97-1.58.54,1.79,1,3.33,1.51,5.03-1.56.61-2.96,1.17-4.58,1.8.37,1.3.72,2.51,1.13,3.94,1.57-.38,2.92-.71,4.67-1.13.5,1.61.97,3.14,1.54,5.01-1.71.56-3.23,1.05-5,1.62-.62-1.59-1.15-2.99-1.78-4.61-1.24.34-2.44.67-3.87,1.06.32,1.58.6,2.93.97,4.73-1.53.48-3.05.95-5.09,1.59Z"/>
            <path class="cls-9" d="m258.78,216.63c-1.71-.23-3.28-.44-4.84-.66,1.2-1.05,2.4-2.1,3.66-3.21.25-1.37.56-3.13.88-4.88.98,1.32,1.95,2.64,3.03,4.1,1.32.09,3.03.21,4.74.34-1.26,1.11-2.53,2.23-3.69,3.25-.25,1.47-.53,3.13-.82,4.78-1.01-1.26-2.01-2.53-2.96-3.71Z"/>
            <path class="cls-9" d="m242.16,246.51c1.75-.48,3.3-1.03,4.9-1.26.59-.08,1.29.62,1.93.97-.38.53-.66,1.36-1.17,1.54-2,.72-4.05,1.35-6.13,1.76-.55.11-1.63-.55-1.85-1.1-.77-1.98-1.38-4.04-1.81-6.11-.11-.55.63-1.29.98-1.94.53.39,1.32.67,1.53,1.19.63,1.51,1.03,3.11,1.61,4.95Z"/>
            <path class="cls-9" d="m227.73,196.18c.46,1.7,1.02,3.13,1.18,4.6.08.73-.54,1.55-.84,2.33-.57-.49-1.43-.87-1.67-1.48-.68-1.76-1.33-3.58-1.53-5.43-.08-.79.78-2.09,1.56-2.49,1.44-.74,3.11-1.16,4.73-1.39.84-.12,1.78.47,2.68.73-.59.61-1.08,1.45-1.81,1.79-1.25.58-2.64.84-4.31,1.34Z"/>
            <path class="cls-9" d="m292.38,232.1c-.49-1.91-1-3.39-1.18-4.91-.07-.6.6-1.29.94-1.94.51.4,1.3.7,1.49,1.22.68,1.9,1.31,3.85,1.64,5.84.11.67-.51,1.92-1.11,2.17-1.86.78-3.84,1.3-5.82,1.69-.58.11-1.31-.55-1.97-.86.45-.59.79-1.44,1.39-1.71,1.39-.62,2.9-.97,4.62-1.5Z"/>
            <path class="cls-9" d="m278,181.82c-1.84.48-3.3,1-4.81,1.19-.63.08-1.34-.55-2.02-.86.36-.54.61-1.38,1.11-1.56,2.01-.72,4.07-1.37,6.17-1.73.58-.1,1.69.75,1.97,1.4.72,1.75,1.22,3.61,1.58,5.48.12.62-.45,1.38-.7,2.08-.6-.42-1.49-.72-1.76-1.29-.63-1.39-.98-2.91-1.54-4.71Z"/>
            <path class="cls-7" d="m247.2,237.39c-1.13-3.91-2.18-7.53-3.35-11.56,3.81-1.13,7.5-2.22,11.58-3.43,1.13,3.89,2.2,7.59,3.37,11.63-3.95,1.14-7.65,2.21-11.6,3.35Zm-.16-9.79c.73,2.37,1.33,4.35,2.02,6.57,2.36-.68,4.34-1.26,6.54-1.9-.71-2.4-1.29-4.39-1.9-6.45-1.08.22-1.78.32-2.45.51-1.24.34-2.47.74-4.21,1.27Z"/>
            <path class="cls-7" d="m240.21,212.89c-1.12-3.87-2.18-7.49-3.37-11.6,3.81-1.1,7.5-2.17,11.58-3.36,1.13,3.88,2.21,7.56,3.39,11.6-3.96,1.14-7.66,2.21-11.61,3.36Zm6.57-11.49c-7.42,1.3-7.8,2.05-4.28,8.19,1.93-.61,3.9-1.23,6.08-1.92-.67-2.32-1.24-4.31-1.8-6.27Z"/>
            <path class="cls-7" d="m261.34,194.26c4.09-1.18,7.61-2.19,11.6-3.33,1.08,3.76,2.15,7.46,3.35,11.62-3.86,1.11-7.55,2.17-11.61,3.34-1.13-3.94-2.19-7.62-3.34-11.63Zm5.13,8.47c2.39-.75,4.45-1.39,6.62-2.06-.72-2.42-1.32-4.41-1.96-6.56-2.41.74-4.4,1.36-6.58,2.02.65,2.25,1.21,4.16,1.92,6.6Z"/>
            <path class="cls-9" d="m247.04,227.6c1.74-.53,2.97-.92,4.21-1.27.67-.19,1.37-.29,2.45-.51.61,2.07,1.19,4.05,1.9,6.45-2.21.64-4.19,1.21-6.54,1.9-.68-2.23-1.29-4.2-2.02-6.57Z"/>
            <path class="cls-9" d="m246.77,201.4c.56,1.96,1.13,3.95,1.8,6.27-2.18.69-4.15,1.31-6.08,1.92-3.52-6.14-3.14-6.89,4.28-8.19Z"/>
            <path class="cls-9" d="m266.46,202.73c-.71-2.44-1.26-4.35-1.92-6.6,2.18-.67,4.17-1.28,6.58-2.02.64,2.15,1.23,4.14,1.96,6.56-2.17.68-4.23,1.32-6.62,2.06Z"/>
          </g>
          <line class="cls-2" x1=".23" y1="355.97" x2="229.13" y2="320.11"/>
          <line class="cls-2" x1="362.66" y1="299.51" x2="404.63" y2="292.64"/>
          <path class="cls-10" d="m71.72,185.07c13.05-1.98,26.11-3.97,39.16-5.94,4.01-.61,5.07.12,5.42,4.06,1.98,21.85,3.91,43.72,5.85,65.58,1.5,16.89,3.01,33.78,4.47,50.69.42,4.92-.66,6.16-5.64,6.92-25.46,3.87-50.92,7.75-76.39,11.62-.83.13-1.65.24-2.48.34-3.27.37-4.47-.53-4.76-3.73-1.16-13.01-2.28-26.03-3.43-39.04-2.3-25.93-4.59-51.86-6.92-77.78-.39-4.38.83-6.04,5.28-6.72,13.14-2,26.29-4,39.43-5.99Z"/>
          <path class="cls-10" d="m239.07,138.18c13.9-3.97,27.82-7.95,41.75-11.92,4.28-1.22,5.62-.53,6.93,3.93,7.32,24.82,14.63,49.78,21.98,74.86,5.71,19.47,11.45,39,17.15,58.64,1.66,5.73.75,7.32-4.65,8.84-13.82,3.88-27.64,7.76-41.45,11.63-6.76,1.9-13.53,3.8-20.29,5.7-1.77.5-15.64,3.33-15.64,4.69.09-3.7-2.75-6.84-5.87-8.83s-6.68-3.29-9.51-5.67c2.84-.55,5.59-1.94,7.41-4.2s2.58-5.44,1.59-8.16c-1.14-3.16-4.23-5.11-7.13-6.79-2.06-1.19-4.16-2.37-6.44-3.07-6.44-1.98-5.23-4.61-6.86-10.4-8.43-29.81-16.8-59.44-25.16-88.89-1.41-4.96-.44-7.02,4.28-8.37,13.96-4,27.93-7.98,41.92-11.98Z"/>
          <g>
            <line class="cls-6" x1="160.45" y1="96.29" x2="172.28" y2="112.36"/>
            <line class="cls-6" x1="147.24" y1="113.1" x2="160.44" y2="121.41"/>
            <line class="cls-6" x1="180.42" y1="88.66" x2="184.44" y2="103.73"/>
          </g>
          <g>
            <polygon class="cls-7" points="41.82 220.54 46.39 273.95 100.54 265.67 95.99 212.14 41.82 220.54"/>
            <path class="cls-9" d="m61.31,264.69c-1.47.22-2.96.29-4.4.7-2.71.78-3.81-.1-3.88-2.82-.1-3.55-.48-7.06-.82-10.57-.15-1.51.42-2.29,1.96-2.52,4.03-.59,8.07-1.31,12.1-1.75.74-.08,1.95.81,2.04,1.51.53,3.82.74,7.73,1.16,11.59.2,1.85-.39,2.81-2.38,3-1.92.18-3.85.56-5.78.85Zm5.59-3.54c-.35-3.82-.66-7.3-.98-10.79-3.84.58-7.38,1.12-11.17,1.7.34,3.71.67,7.25,1,10.78,3.81-.58,7.27-1.1,11.15-1.69Z"/>
            <path class="cls-9" d="m58.25,225.36c1.38-.21,2.78-.25,4.13-.66,2.93-.89,4.13.06,4.2,3.01.08,3.38.44,6.72.8,10.05.19,1.82-.54,2.53-2.32,2.77-3.77.49-7.54,1.06-11.31,1.72-1.69.29-2.5-.07-2.6-1.89-.21-3.73-.57-7.43-1.01-11.1-.25-2.08.56-2.9,2.6-3.08,1.83-.15,3.68-.53,5.51-.81Zm-4.61,14.29c3.82-.58,7.35-1.12,11.18-1.7-.33-3.73-.64-7.28-.95-10.79-3.86.59-7.37,1.12-11.13,1.69.31,3.66.59,7.08.91,10.8Z"/>
            <path class="cls-9" d="m82.06,221.75q7.87-1.2,8.38,6.66c.13,1.99.32,3.97.53,5.94.16,1.46-.34,2.29-1.94,2.52-4.12.58-8.25,1.31-12.37,1.78-.66.07-1.74-.79-1.83-1.44-.52-4.1-.88-8.25-1.09-12.42-.03-.56,1.07-1.79,1.73-1.95,2.18-.55,4.39-.75,6.59-1.09Zm6.29,12.67c-.28-3.46-.5-6.63-.84-9.76-.05-.46-.71-1.11-1.11-1.06-3.34.41-6.68.96-10.2,1.49.38,3.99.71,7.46,1.04,11.02,3.75-.57,7.21-1.1,11.1-1.69Z"/>
            <path class="cls-9" d="m81.58,251.6c-1.53.12-2.87.22-4.44.35-.16-1.56-.31-3.04-.48-4.72l4.84-.74c.24,1.31.5,2.68.78,4.21l3.63-.55v-4.27l4.91-.75c.12,1.5.24,2.98.37,4.62-1.55.4-2.88.74-4.41,1.13.13,1.28.25,2.41.38,3.67,1.48-.14,2.83-.27,4.42-.42.18,1.53.35,3,.54,4.66l-4.93.75c-.21-1.35-.42-2.66-.64-4.11l-3.7.56v4.21c-1.68.26-3.18.48-4.94.75-.1-1.55-.2-3.03-.31-4.7,1.49-.3,2.75-.55,4.34-.87-.12-1.29-.23-2.48-.35-3.78Z"/>
            <path class="cls-9" d="m73.56,244.94c-.46,1.4-.92,2.8-1.39,4.2-.78-1.32-1.56-2.64-2.59-4.39-.38.06-1.39.34-2.34.31-.59-.02-1.09-.52-1.63-.8.56-.53,1.05-1.25,1.69-1.53.74-.34,1.6-.3,2.68-.46,0-1.19-.12-2.16.04-3.12.11-.61.65-1.21.99-1.82.45.39,1.13.67,1.31,1.2.32.88.33,1.92.54,3.31,1.08-.16,2.15-.46,3.17-.43.57.02,1.04.59,1.56.91-.51.48-.97,1.2-1.54,1.4-.93.34-1.94.35-2.92.5.14.25.28.49.43.74Z"/>
            <path class="cls-7" d="m66.9,261.16c-3.87.59-7.33,1.11-11.15,1.69-.33-3.53-.66-7.07-1-10.78,3.78-.57,7.33-1.11,11.17-1.7.32,3.48.63,6.96.98,10.79Zm-2.81-1.92c.05-6.85-.73-7.4-6.75-4.84.21,1.87.43,3.79.66,5.76l6.09-.93Z"/>
            <path class="cls-7" d="m53.64,239.66c-.31-3.72-.6-7.14-.91-10.8,3.76-.57,7.27-1.1,11.13-1.69.31,3.52.62,7.06.95,10.79-3.83.58-7.36,1.12-11.18,1.7Zm8.62-3.76c-.22-2.15-.41-3.99-.6-5.87l-6.35.96c.21,2.1.4,3.95.6,5.87l6.35-.96Z"/>
            <path class="cls-7" d="m88.35,234.42c-3.89.59-7.35,1.12-11.1,1.69-.34-3.56-.66-7.03-1.04-11.02,3.52-.53,6.86-1.08,10.2-1.49.4-.05,1.06.61,1.11,1.06.34,3.13.56,6.3.84,9.76Zm-3.12-8.07c-2.21.34-4.16.63-6.42.98.23,2.08.43,3.97.63,5.85l6.26-.95c-.17-2.08-.32-3.93-.47-5.87Z"/>
            <path class="cls-9" d="m64.09,259.24l-6.09.93c-.23-1.98-.45-3.89-.66-5.76,6.02-2.56,6.8-2.01,6.75,4.84Z"/>
            <path class="cls-9" d="m62.25,235.9l-6.35.96c-.2-1.92-.39-3.77-.6-5.87l6.35-.96c.19,1.89.38,3.73.6,5.87Z"/>
            <path class="cls-9" d="m85.24,226.36c.16,1.94.3,3.79.47,5.87l-6.26.95c-.2-1.87-.41-3.76-.63-5.85,2.26-.34,4.22-.64,6.42-.98Z"/>
          </g>
          <line class="cls-4" x1="224.87" y1="125.86" x2="240.53" y2="121.29"/>
          <g>
            <polygon class="cls-7" points="214.59 189.68 232.86 259.4 307.36 239.22 287.52 169.57 214.59 189.68"/>
            <path class="cls-9" d="m251.69,244.5c-2.01.54-4.09.88-6.02,1.67-3.63,1.5-5.37.51-6.11-3.12-.96-4.72-2.3-9.32-3.57-13.92-.55-1.98.06-3.11,2.16-3.67,5.5-1.47,10.97-3.1,16.5-4.35,1.01-.23,2.91.74,3.21,1.65,1.65,4.97,2.88,10.14,4.38,15.21.72,2.44.12,3.82-2.64,4.41-2.66.57-5.28,1.4-7.92,2.11Zm7.02-5.67c-1.4-5.04-2.66-9.61-3.93-14.18-5.23,1.42-10.06,2.73-15.22,4.12,1.33,4.87,2.61,9.52,3.89,14.18,5.22-1.41,9.95-2.69,15.26-4.13Z"/>
            <path class="cls-9" d="m238.34,193.15c1.86-.51,3.79-.8,5.57-1.56,3.86-1.65,5.74-.63,6.52,3.2.89,4.4,2.18,8.7,3.45,13,.7,2.36-.16,3.42-2.59,4.03-5.14,1.28-10.26,2.67-15.35,4.17-2.28.67-3.49.34-4.05-2.04-1.14-4.85-2.46-9.63-3.89-14.35-.81-2.67.13-3.87,2.91-4.44,2.5-.51,4.96-1.32,7.44-1.99Zm-3.16,19.45c5.18-1.41,9.97-2.71,15.16-4.12-1.32-4.83-2.58-9.41-3.82-13.94-5.21,1.42-9.96,2.71-15.03,4.09,1.25,4.72,2.42,9.14,3.69,13.97Z"/>
            <path class="cls-9" d="m270.51,184.38q10.66-2.9,13.28,7.24c.67,2.58,1.42,5.13,2.2,7.68.58,1.88.09,3.06-2.1,3.64-5.63,1.47-11.22,3.13-16.86,4.44-.9.21-2.62-.74-2.89-1.58-1.7-5.28-3.18-10.64-4.45-16.04-.17-.72,1.07-2.51,1.94-2.83,2.89-1.08,5.92-1.72,8.89-2.54Zm11.83,15.45c-1.24-4.48-2.31-8.58-3.55-12.6-.18-.59-1.26-1.32-1.8-1.19-4.54,1.1-9.06,2.39-13.82,3.68,1.47,5.13,2.75,9.61,4.07,14.21l15.1-4.1Z"/>
            <path class="cls-9" d="m277.06,223.64c-2.12.42-3.98.78-6.15,1.21-.6-2.04-1.17-3.97-1.81-6.16l6.61-1.79c.66,1.69,1.35,3.46,2.12,5.44l4.96-1.34c-.34-1.82-.67-3.58-1.05-5.65l6.7-1.82c.54,1.96,1.08,3.91,1.67,6.05-2.09.79-3.86,1.46-5.93,2.24.5,1.68.94,3.16,1.44,4.81,2.05-.44,3.92-.84,6.12-1.31.63,2.01,1.24,3.94,1.93,6.12-2.47.67-4.55,1.23-6.78,1.83-.64-1.77-1.25-3.48-1.93-5.37l-5.07,1.37c.33,1.81.66,3.58,1.04,5.61l-6.78,1.83c-.52-2.05-1.02-4.01-1.58-6.21,2.03-.65,3.73-1.19,5.9-1.89-.48-1.69-.93-3.25-1.41-4.97Z"/>
            <path class="cls-9" d="m264.2,216.18c-.31,1.92-.63,3.85-.94,5.78-1.41-1.62-2.81-3.23-4.67-5.37-.52.14-1.86.68-3.2.8-.83.07-1.64-.5-2.47-.79.65-.79,1.18-1.82,2-2.31.96-.57,2.17-.66,3.63-1.06-.28-1.57-.68-2.82-.67-4.12,0-.82.62-1.7.96-2.55.73.44,1.73.69,2.12,1.35.65,1.11.92,2.46,1.53,4.27,1.46-.4,2.9-.97,4.33-1.1.8-.07,1.6.6,2.39.93-.59.72-1.07,1.74-1.81,2.11-1.23.6-2.63.79-3.96,1.15.26.3.52.6.77.9Z"/>
            <path class="cls-7" d="m258.72,238.83c-5.31,1.43-10.04,2.72-15.26,4.13-1.28-4.66-2.55-9.32-3.89-14.18,5.16-1.4,9.99-2.71,15.22-4.12,1.26,4.57,2.53,9.14,3.93,14.18Zm-4.41-2.09c-1.54-9.11-2.76-9.72-10.59-5.31.73,2.46,1.48,4.96,2.26,7.56,2.91-.79,5.49-1.48,8.33-2.25Z"/>
            <path class="cls-7" d="m235.18,212.6c-1.28-4.83-2.45-9.25-3.69-13.97,5.07-1.38,9.82-2.67,15.03-4.09,1.24,4.53,2.5,9.11,3.82,13.94-5.2,1.41-9.98,2.71-15.16,4.12Zm11.12-6.39c-.8-2.77-1.49-5.14-2.19-7.57l-8.58,2.34c.77,2.71,1.46,5.09,2.17,7.58,2.91-.79,5.47-1.49,8.61-2.34Z"/>
            <path class="cls-7" d="m282.34,199.84l-15.1,4.1c-1.32-4.6-2.6-9.08-4.07-14.21,4.76-1.3,9.27-2.58,13.82-3.68.54-.13,1.62.61,1.8,1.19,1.24,4.02,2.31,8.12,3.55,12.6Zm-6.31-10l-8.71,2.37c.81,2.68,1.55,5.11,2.28,7.52,3.01-.82,5.65-1.54,8.51-2.31-.74-2.69-1.39-5.08-2.08-7.58Z"/>
            <path class="cls-9" d="m254.31,236.74c-2.85.77-5.42,1.47-8.33,2.25-.78-2.6-1.53-5.1-2.26-7.56,7.83-4.41,9.05-3.81,10.59,5.31Z"/>
            <path class="cls-9" d="m246.3,206.21c-3.14.85-5.7,1.55-8.61,2.34-.71-2.48-1.39-4.87-2.17-7.58l8.58-2.34c.7,2.43,1.39,4.8,2.19,7.57Z"/>
            <path class="cls-9" d="m276.03,189.83c.69,2.5,1.34,4.89,2.08,7.58-2.86.78-5.5,1.49-8.51,2.31-.73-2.41-1.47-4.85-2.28-7.52l8.71-2.37Z"/>
          </g>
        </g>
        <path class="cls-5" d="m518.59,83.01c-8.76,35.17-44.37,56.58-79.55,47.82-13.05-3.25-23.62-9.47-32.62-19.44-.24-.27-21.99,8.52-21.99,8.52,0,0,14.5-18.48,14.23-18.95-3.5-6.14-11.82-32.09-7.44-49.68,8.76-35.17,44.37-56.58,79.55-47.82,35.17,8.76,56.58,44.37,47.82,79.55Z"/>
        <g>
          <rect class="cls-1" x="421.16" y="32.44" width="67.96" height="67.18" rx="13.54" ry="13.54"/>
          <path class="cls-8" d="m435.51,56.63h2.16v4.03s-.06,1.02.25,1.36.92.46,1.69.46h3.19v1.35h-4.15s-1.56-.19-2.14-.63-1.03-.94-1.03-2.16.02-4.41.02-4.41Z"/>
          <path class="cls-8" d="m452.24,57.22c-1.16-.59-2.47-.59-3.43-.59s-2.27,0-3.43.59c-.84.43-1.8,1.21-1.8,2.95s.58,2.21,1.5,2.93c.92.73,3.73.76,3.73.76,0,0,2.81-.03,3.73-.76.92-.73,1.5-1.19,1.5-2.93s-.96-2.52-1.8-2.95Zm-1.42,4.93c-.49.48-2,.5-2,.5,0,0-1.51-.02-2-.5-.49-.48-.81-.8-.81-1.95s.51-1.68.97-1.96c.62-.39,1.33-.39,1.84-.39s1.22,0,1.84.39c.45.28.97.81.97,1.96s-.31,1.47-.81,1.95Z"/>
          <path class="cls-8" d="m458.59,68.88c-1.16-.59-2.47-.59-3.43-.59s-2.27,0-3.43.59c-.84.43-1.8,1.21-1.8,2.95s.58,2.21,1.5,2.93c.92.73,3.73.76,3.73.76,0,0,2.81-.03,3.73-.76.92-.73,1.5-1.19,1.5-2.93s-.96-2.52-1.8-2.95Zm-1.42,4.93c-.49.48-2,.5-2,.5,0,0-1.51-.02-2-.5-.49-.48-.81-.8-.81-1.95s.51-1.68.97-1.96c.62-.39,1.33-.39,1.84-.39s1.22,0,1.84.39c.45.28.97.81.97,1.96s-.31,1.47-.81,1.95Z"/>
          <polygon class="cls-8" points="454.64 56.7 457.16 56.7 461.35 63.78 459.1 63.78 454.64 56.7"/>
          <polygon class="cls-8" points="465.94 56.7 463.42 56.7 459.23 63.78 461.48 63.78 465.94 56.7"/>
          <path class="cls-8" d="m471.28,62.49c-2.23,0-2.09-1.56-2.09-1.56h5.99v-1.38h-5.99s-.15-1.56,2.09-1.56h3.91v-1.35h-3.37s0,0,0,0c-.03,0-.06,0-.09,0h-.05c-.94,0-2.18.03-3.29.59-.84.43-1.8,1.21-1.8,2.95s.58,2.21,1.5,2.93c.92.73,3.59.75,3.59.75h3.51v-1.36h-3.91Z"/>
          <path class="cls-8" d="m438.45,71.66c-.66-.43-2.58-.44-2.58-.44h-2.82s-.57,0-.77-.16c-.2-.16-.32-.26-.32-.64s.2-.55.38-.64c.24-.12.5-.13.7-.13h0s.02,0,.02,0c0,0,0,0,0,0,0,0,0,0,0,0h1.99s3.85,0,3.85,0v-1.35h-5.7s0,0,0,0c-.02,0-.04,0-.06,0h-.04c-.68,0-1.56.02-2.36.35-.6.25-1.29.71-1.29,1.74s.42,1.3,1.08,1.73c.57.37,2.1.43,2.48.44h2.82s.57,0,.77.16c.2.16.32.26.32.64s-.2.55-.38.65c-.24.12-.5.13-.7.13h0s-.02,0-.02,0c0,0,0,0,0,0,0,0,0,0,0,0h-2.86s-3.02,0-3.02,0v1.34h5.83s0,0,0,0c.02,0,.04,0,.06,0h.04c.68,0,1.56-.02,2.36-.35.6-.25,1.29-.71,1.29-1.74s-.42-1.3-1.08-1.73Z"/>
          <rect class="cls-8" x="440.15" y="68.29" width="9.23" height="1.34"/>
          <rect class="cls-8" x="443.56" y="69.44" width="2.29" height="6.02"/>
          <rect class="cls-8" x="471.75" y="68.31" width="2.29" height="7.16"/>
          <polygon class="cls-8" points="475.7 72.63 474.04 71.87 478.2 68.31 481.3 68.31 475.7 72.63"/>
          <polygon class="cls-8" points="475.8 71.1 474.04 71.87 477.93 75.46 481.03 75.46 475.8 71.1"/>
          <path class="cls-8" d="m466.41,74.15s-1.24-.01-1.67-.47c-.43-.45-.7-.75-.7-1.83s.45-1.58.84-1.84c.52-.35,1.09-.37,1.53-.37h0s.03,0,.03,0c.01,0,.03,0,.04,0,0,0,0,0,0,0h3.79v-1.34h-3.55s0,0,0,0c-.03,0-.06,0-.09,0h-.05c-.94,0-2.18.03-3.29.59-.84.43-1.8,1.21-1.8,2.95s.58,2.21,1.5,2.93c.92.73,3.59.75,3.59.75h3.69v-1.37h-3.86Z"/>
        </g>
      </g>
    </g>
  </g>
</svg>