<?xml version="1.0" encoding="UTF-8"?>
<svg xmlns="http://www.w3.org/2000/svg" xmlns:xlink="http://www.w3.org/1999/xlink" viewBox="0 0 513.41 450.35">
  <defs>
    <style>
      .cls-1 {
        isolation: isolate;
      }

      .cls-1, .cls-2, .cls-3 {
        fill: none;
      }

      .cls-4 {
        fill: #f4c2d8;
      }

      .cls-5 {
        fill: #939393;
      }

      .cls-6 {
        fill: #c5c5c5;
      }

      .cls-6, .cls-7, .cls-8 {
        mix-blend-mode: multiply;
      }

      .cls-7 {
        fill: #c6e2e6;
      }

      .cls-8 {
        fill: #ffdbbe;
      }

      .cls-2 {
        clip-path: url(#clippath);
      }

      .cls-3 {
        stroke: #969696;
        stroke-linecap: round;
        stroke-linejoin: round;
        stroke-width: 3px;
      }
    </style>
    <clipPath id="clippath">
      <path class="cls-3" d="m511.91,72.42c0,39.17-31.75,70.92-70.92,70.92-14.53,0-27.24-3.76-39.28-11.86-.32-.22-20.84,14.68-20.84,14.68,0,0,10.37-23.17,9.97-23.59-5.27-5.53-20.77-30.56-20.77-50.15,0-39.17,31.75-70.92,70.92-70.92s70.92,31.75,70.92,70.92Z"/>
    </clipPath>
  </defs>
  <g class="cls-1">
    <g id="_レイヤー_2" data-name="レイヤー 2">
      <g id="_レイアウト" data-name="レイアウト">
        <g>
          <g>
            <g class="cls-2">
              <g>
                <path class="cls-5" d="m474.24,79.52c-1.99-.47-3.96-1.03-5.95-1.5-.83-.2-1.7-.27-2.87-.45v4.89c-.9-.32-1.49-.44-1.99-.73-1.23-.71-2.46-1.44-3.62-2.26-1.62-1.16-3.13-1.58-4.78-.02-.36.34-1.08.3-1.75.46.91-3.37,2.41-4.21,5.11-3.01.8.36,1.52.9,2.32,1.28.42.2.92.24,1.54.39-1.38-3.08-6.38-7.13-8.97-7.4-.35,1.96-.72,3.93-1.05,5.91-.35,2.11-1.41,3.79-2.91,5.27-1.33,1.31-2.67,2.62-3.84,4.06-2.31,2.87-3.48,6.25-3.38,9.9.15,5.51.63,11,.86,16.51.16,3.82.1,7.65.2,11.47.16,6.13.38,12.25.59,18.89,3.07,0,5.8,0,8.53,0,7.47-.03,14.94-.12,22.41-.07,3.27.02,4.09-.35,4.15-3.65.11-5.69,0-11.38-.23-17.07-.2-5.25-.38-10.49.46-15.7.2-1.25.04-2.89,2.37-3.57-.93.27-1.13,9.41-1.19,10.56-.18,3.6-.14,7.21.12,10.8s.72,7.19,1.37,10.75c.31,1.68.52,3.5,1.07,5.12.46,1.36,1.13,2.33.65,3.88-.9,2.91-6.62,1.6-8.92,1.6-11.16,0-22.33,0-33.49-.01-6.49,0-12.98,0-19.47-.02-3.25,0-6.49-.01-9.74-.02-2.78,0-6.28.72-8.4-1.52-.78-.82-1.13-1.94-1.46-3.02-.52-1.69-1.03-3.54-.41-5.2.6-1.61,2.08-2.74,3.09-4.07,1.14-1.49,2.43-2.86,3.5-4.43,5.52-8.07,10.96-16.19,16.38-24.33,1.01-1.52,1.74-3.24,2.73-5.1-3.99-1.07-7.27-2.72-9.67-5.73-.33-.41-.39-1.04-.61-1.7,1.34-.25,1.76.65,2.44,1.15,1.86,1.35,3.75,2.67,5.69,3.91,1.16.74,2.08.55,2.78-.85.95-1.9,2.15-3.66,3.19-5.52.62-1.11.37-1.91-.78-2.65-2.54-1.63-5.01-3.38-7.43-5.18-1.09-.82-2.15-.83-2.77.19-3,4.88-8.45,7.33-11.67,11.99-1.06,1.53-2.59,2.75-3.53,4.34-2.82,4.76-6.89,8.32-10.86,12.03-2.39,2.23-4.5,4.77-6.74,7.16-.51.54-1.05,1.04-1.61,1.59-.9-1.09-.43-1.77.08-2.39,1.64-1.98,3.03-4.29,5.01-5.85,6.09-4.8,10.7-10.87,15.41-16.89,2.3-2.94,4.68-5.79,7.94-7.82,1.3-.81,2.24-2.2,3.25-3.23-.48-1.42-1.39-1.14-2.11-1-4.44.91-8.95,1.59-13.26,2.91-4.57,1.39-7.67,4.87-9.52,9.16-1.92,4.47-3.4,9.14-5.01,13.75-1.24,3.52-2.5,7.03-3.55,10.6-.18.62-.35,1.23-.51,1.85-.09.37-.1,1.23-.3,1.54-.63.95-1.63-.26-1.42-1.11.41-1.65.77-2.95.77-4.63s.61-3.58,1.18-5.21c.62-1.77,1.77-3.38,2.29-5.15,1.1-3.73,2.69-7.26,4.45-10.75,1.17-2.33,2.44-4.62,3.8-6.85,1.38-2.28,3.14-2.91,5.53-3.92,4.01-1.69,8.2-3.14,12.54-3.42,2.28-.15,4.63.03,6.79-.71,1-.34,1.99-.93,2.43-1.89.48-1.03.22-2.23-.04-3.33-.69-2.76-1.64-5.51-2.89-8.07-.35-.71-1.91-5.41-2.05-5.48-2.8-1.41-5.55-3.3-8.12-5.12-.37-.26-.75-.55-.93-.97-.26-.63.05-1.34.37-1.95.63-1.19,2.67-3.24,2.71-4.55.04-1.16-1.31-2.3-1.87-3.19-1.67-2.63-2.35-5.73-2.17-8.83.18-3.15,1.21-6.23,2.75-8.96.84-1.49,4.16-7.09,6.16-7.09,2.68-2,6.1-2.77,8.57-5.18.58-.57,1.59-.77,2.43-1.01,4.17-1.21,8.29-.61,12.37.49.44.12.76.73,1.13,1.11-.09.2-.19.39-.28.59-2.16-.35-4.32-.72-6.49-1.03-2.79-.4-5.6-.14-8.09,1.06-2.94,1.42-5.7,3.25-8.43,5.06-1.31.87-2.54,1.96-3.51,3.19-3.21,4.07-5.43,8.53-5.04,13.95.13,1.85.61,3.73,1.71,5.26,1.88,2.62,2.66,1.94,4.6-.15.28-.31.61-.63,1.02-.67.36-.03.7.17,1,.36,2.87,1.81,5.84,5.27,9.59,4.74,3.04-.43,5.61.41,7.34,3.15.57.9,1.39,1.67,1.82,2.62.62,1.34,1.16,2.76,1.42,4.21.48,2.73-.09,4.95-3.03,6.26-1.78.79-2.03,2.37-1.09,4.06.38.68.99,1.25,1.57,1.78,3.57,3.24,4.35,6.76,2.49,11.2-.2.48-.21,1.04-.31,1.56-1.87,1.47-3.19,3.08-3.24,5.77-.03,1.53-1.22,3.09-2.06,4.54-1.2,2.06-2.68,3.94-2.73,6.53-.02.91-.58,1.88-1.1,2.68-3.13,4.85-6.3,9.68-9.52,14.47-2.82,4.21-5.71,8.37-8.6,12.53-.81,1.17-1,2.28-.65,3.73.59,2.5.83,5.08,1.15,7.63.27,2.18.42,2.45,2.59,2.48,3.29.05,6.58-.02,9.88-.02,5.69,0,11.39,0,17.08.03,2.87.01,3.09-.15,3-2.97-.07-2.13-.28-4.25-.38-6.38-.2-4.17-.42-8.34-.55-12.51-.26-7.9-.5-15.81-.65-23.71-.04-1.84.2-3.71.51-5.53.31-1.8.19-3.33-1.32-4.57-.82-.68-1.62-1.42-2.25-2.27-.54-.73-.83-1.66-1.23-2.5,2.03,1.65,4.06,3.3,6.11,4.97,1.69-1.92,3.21-3.89,4.98-5.59,3.38-3.25,4.76-6.92,3.18-11.51-.34-1-.44-2.09-.62-3.14-.46-2.81-.54-2.89-3.35-2.98-.92-.03-1.97.29-2.67-1.28,1.04-.09,1.86-.2,2.68-.23,3.94-.16,6.91-2.18,8.08-5.85,1.59-4.99,1.37-9.98-.4-14.92-.37-1.03-1.36-2.94-.74-3.99.44.26.48.81.66,1.26.26.65.66,1.22.96,1.85.62,1.34,1.36,2.65,1.62,4.11.68,3.87.66,7.79-.53,11.6-.73,2.34-2.12,4.25-3.96,5.91-2.11,1.9-1.95,2.63.29,4.34,2.19,1.66,4.4,3.33,6.41,5.2,1.86,1.73,4.05,2.41,6.41,3.01,4.81,1.24,9.72,2.26,14.3,4.1.61.24,5.49,2.35,3,3.3-.68.26-2.86-1.51-3.55-1.84-1.54-.72-3.15-1.27-4.8-1.66Zm-40.86-19.06c.47.3,1.51.29,1.9-.04.33-.28.21-1.26.06-1.87-.12-.48-.53-.94-.92-1.28-.87-.75-1.16-1.68-1.35-2.78-.13-.78-.6-1.83-1.23-2.14-1.31-.65-2.43-1.31-3.17-2.65-.2-.35-1.31-.48-1.85-.29-1.33.47-2.62,1.11-3.84,1.82-2.45,1.41-3.82,3.39-3.98,6.41-.21,4.01.27,7.74,2.3,11.27,1.66,2.9,2.44,6.1,2.19,9.45-.1,1.37.43,2.22,1.43,2.91,1.61,1.1,3.25,2.16,4.88,3.24.79.52,1.55.78,2.45.14,3.25-2.31,4.86-6.57,3.36-10.09-.66-1.55-2.13-2.75-3.26-4.09-2.12-2.51-5.03-5.08-3.84-8.7.15-.45,2.39-4.28,3.19-3.28.54.67.98,1.52,1.67,1.97Zm-34.91,81.39c2.41.58,4.83,1.12,7.28,1.48,1.61.23,2.17-.27,2.06-1.63-.24-2.97-.6-5.93-.95-9.15-.76.41-1.24.6-1.65.9-3.02,2.24-6.02,4.5-9.47,7.08,1.18.59,1.91,1.13,2.72,1.33Zm81.47.96c.4-.04.95.07,1.17-.15.74-.75.42-1.37-1.07-2.2-.04,1.03-.07,1.69-.1,2.35Z"/>
                <path class="cls-5" d="m419.07,38.37c.71-.66,1.26-.96,1.48-1.41.76-1.6,1.44-3.23,2.09-4.88.43-1.07.8-2.16,1.13-3.27.67-2.22,2.08-3.23,4.44-3.51,1.29-.15,2.62-1.03,3.68-1.9,3.2-2.62,6.56-2.58,9.67.23,1.89,1.71,3.9,3.29,6.04,5.09-1.07.92-1.88,1.62-2.68,2.32.07.18.14.35.21.53,1.04-.22,2.07-.44,3.27-.7-.48-2.18-.89-4.13-2.46-5.6-1.16-1.09-1.64-2.44-1.75-4.04-.12-1.79-.69-3.44-2.88-4.19-.3,2,2.41,3.17,1.21,5.28-2.04-.22-2.68-2.27-4.39-3.15-1.28.69-2.55,2.04-4.42,1.07-.29-.15-1.1.43-1.51.83-1.56,1.53-3.33,2.58-5.45,3.2-2.25.66-3.77,2.35-4.68,4.44-1.16,2.68-2.1,5.45-3.11,8.2-.1.28.03.64.09,1.46Z"/>
                <path class="cls-5" d="m451.92,51.37c.08.79.2,1.6.14,2.39-.18,2.22-2.22,3.87-4.26,3.27-3.03-.89-4.97-3.2-6.68-5.7-.07-.1.05-.33.12-.74,3.28-.51,6.65-1.04,10.38-1.62.11.86.23,1.63.31,2.41Zm-5.29,3.49c.95.66,2.27,1.03,3.15.06.92-1.01,1.08-2.35.09-3.75-1.97.18-3.91.36-5.85.54-.07.19-.13.38-.2.58.93.87,1.78,1.86,2.81,2.58Z"/>
                <path class="cls-5" d="m431.7,35.4c.96-.78,1.83-1.75,2.92-2.27,1.01-.48,2.26-.48,3.57-.72-2.65-2.14-5.24-1.1-6.91,2.5l.42.49Z"/>
                <path class="cls-5" d="m444.22,37.47c1.75,2.1,3.5,4.2,5.2,6.25,1.26-2.07-.61-4.72-5.2-6.25Z"/>
                <path class="cls-5" d="m437.25,40.48c.45-.58.96-.95.94-1.28-.02-.37-.53-.7-.83-1.05-.32.3-.88.57-.91.89-.03.37.41.78.8,1.43Z"/>
                <path class="cls-5" d="m422.94,58.64q1.27-3.33,5.14-7.19c-1.12-.5-2.01.04-2.57.69-1.21,1.39-2.27,2.91-3.29,4.44-.48.72-.42,1.51.73,2.06Z"/>
                <path class="cls-5" d="m429.56,54.4c-2.66,1-3.93,3.46-6.05,5.01.08.17.16.35.24.52.27.04.7.22.8.11,1.63-1.9,4.43-2.78,5.01-5.64Z"/>
                <path class="cls-5" d="m449.38,36.18c-.17.09-.39-.02-.47-.19s-.08-.37-.06-.56c.01-.16.04-.34.17-.42.07-.04.15-.04.23-.04.22,0,.46.01.64.15.25.21.25.59.21.92,0,.07-.02.15-.08.19-.04.02-.08.02-.12.02-.26,0-.52,0-.78,0"/>
              </g>
              <g>
                <path class="cls-5" d="m487.62,64.63c-1.2-3.97-4.44-5.41-10.59-4.61-4.22,4.03-5.12,7.62-2.83,10.92,2.17,3.14,5.92,4.13,9.32,2.45,3.42-1.69,5.14-5.35,4.1-8.77Zm-3.13,6.02c-.34-.35-.68-.69-1.02-1.04.09-.1.18-.21.27-.31.39.29.78.58,1.17.87-.14.16-.28.32-.42.49Zm1.36-2.4c-.48-.02-.95-.05-1.43-.07,0-.17.02-.34.03-.52l1.42.07c0,.17-.01.35-.02.52Zm-.26-2.19l-.3.03.2-.22.1.2Zm-.42-2.44c.08.1.15.2.23.3-.26.19-.52.38-.77.57-.1-.13-.2-.25-.3-.38l.84-.49Zm-1.53-1.32c-.27.21-.53.43-.8.64l.39-1c.14.12.28.24.41.36Zm-2.92-.98c.31.08.62.16.93.24-.13.56-.27,1.12-.4,1.68-.21-.06-.41-.12-.62-.18.03-.58.06-1.16.09-1.74Zm-2.05.08c.18-.02.35-.05.53-.07.05.48.1.96.15,1.44l-.46.07c-.07-.48-.14-.96-.22-1.44Zm-2.13,1.23c.17-.08.35-.16.52-.23.21.48.43.96.64,1.44-.17.08-.34.16-.52.23-.21-.48-.43-.96-.64-1.44Zm-1.25,2.79c.53.08,1.06.17,1.59.25-.52.09-1.04.18-1.56.27,0-.17-.02-.35-.03-.52Zm-.41,2.56c.66-.23,1.31-.47,1.97-.7.06.13.12.26.18.39l-1.84,1.08c-.1-.25-.21-.51-.31-.76Zm1.32,3.01c.61-.6,1.22-1.2,1.82-1.8-.32.8-.63,1.61-.95,2.41l-.88-.61Zm2.56,1.24c.42-.81.84-1.62,1.27-2.43-.14.9-.27,1.8-.41,2.71-.29-.09-.57-.18-.86-.28Zm2.64.05c0-.61,0-1.22,0-1.82.19-.03.38-.06.57-.08.13.6.27,1.2.4,1.79-.33.04-.65.08-.98.11Z"/>
                <path class="cls-5" d="m495.02,56.11c-2.39-3.91-6.9-5.9-12.36-5.46-2.16.18-5.75,2.49-8.23,4.27-.04.03-.09.05-.13.08-.55.36-1.06.76-1.55,1.17-.57.44-.95.74-1.01.79l.06.07c-1.95,1.92-3.38,4.29-4.21,6.98-.28.89-.51,1.81-.51,2.75,0,1.68.37,3.55.94,5.13,1.62,4.48,5.82,7.14,10.29,8.21.96.23,1.73,1.23,2.48,1.79-2.6,5.04-1.62,9.33.75,13.67,2.37,4.35,5.31,9.1,6.93,13.74,1.8,5.16,2.96,10.56,3.51,15.99.52,0,.96-.46,1.1-.96s.06-1.04-.03-1.55c-.84-4.43-2.38-8.78-3.36-13.24-.18-.83-.37-1.68-.75-2.44-1.2-2.42-2.02-4.98-3.38-7.35-.71-1.25-1.5-2.45-2.28-3.65-.45-.69-2.17-2.55-2.15-3.35.08-2.26-1.71-4.98-.13-8.3,2.42,6.37,4.67,12.28,6.95,18.29.98-.12,1.86-.23,2.51-.31.63.77,1.08,1.33,2.05,2.52-.15-1.56-.22-2.29-.29-3,.86-.75,1.63-1.42,2.3-2.01-.1-1.92-.19-3.61-.28-5.45-1.18.06-2.41.13-4.31.23,1.66-1.15,2.67-1.85,3.69-2.56-.12-.18-.25-.36-.37-.54-1.42.55-2.84,1.11-4.26,1.66-.09-.19-.19-.37-.28-.56,1.54-1.1,3.08-2.2,4.63-3.29-.07-.13-.15-.26-.22-.38-1.61.69-3.23,1.39-4.84,2.08-.12-.2-.25-.41-.38-.61,1.51-1.33,3.02-2.66,4.53-3.99-.07-.11-.14-.21-.21-.32-1.74.92-3.48,1.83-5.81,3.05,2.25-4.1,4.74-5.65,7.61-5.18.77.13,1.39,6,1.49,6.78.31,2.53.4,5.08.45,7.62.1,5.01,2.05,10.13,3.29,14.99.43,1.71.87,3.42,1.53,5.05.63-.5.8-1.42.65-2.21s-.57-1.51-.93-2.23c-2.43-4.8-2.34-9.91-3.26-15.05-.44-2.44-.4-4.93-.63-7.42-.09-1.01-.52-8.18-1.44-8.45-1.45-.43-2.85-.84-4.25-1.25-.26-1.72-.52-3.41-.82-5.35,2.35-2.15,5.68-5.46,6.62-7.71,2.31-5.49-.7-11.14-1.68-12.74Zm-18.75,21.84c-.56-.21-1.57-.49-1.96-.94-.68-.77-1.6-1.26-2.33-1.98-.74-.73-1.24-1.82-1.69-2.74-.27-.55-.5-1.11-.67-1.69-.34-1.13-.46-2.32-.46-3.5,0-1.99.35-4,1.16-5.82.35-.79.79-1.55,1.32-2.25.28-.37.59-.73.92-1.06l.07.09c.79-.64,2.16-1.69,3.69-2.74,2.21-.98,4.7-1.27,7.08-.6,4.11,1.16,7.28,4.64,8.46,8.69,2.32,8-4.22,14.92-9.89,15.33-1.93.14-3.87-.1-5.68-.8Zm5.99,2.83c.13.62.25,1.24.38,1.86-.13.05-.27.09-.4.14-.23-.63-.46-1.25-.69-1.88.24-.04.48-.08.71-.12Zm9.96,15.47c.34.88.68,1.79,1.04,2.73-1.51.88-2.76,1.61-4.16,2.43-2.05-2.4-1.91-5.22-2.37-7.85.82.9,1.65,1.81,2.55,2.8.85-.03,1.76-.07,2.95-.11Zm-3.59-18.32c.33,1.81.62,3.43.96,5.26-1.7,1.58-3.38,3.13-5.25,4.87.63,1.08,1.22,2.09,2.21,3.79-3.18-1.81-3.34-4.28-3.85-6.76.52-.49,1.07-1,1.66-1.55-.19-1.08-.37-2.09-.56-3.19,1.25-.62,2.47-1.23,3.94-1.96l.12.14c.13-.11.33-.28.56-.48.07-.04.14-.07.21-.11Zm6.76-9.63c-.4.96-1.4,2.24-2.62,3.58,2.02-4.62.81-10.89-3.01-14.79-2.68-2.74-6.42-4.14-10.04-3.89,1.18-.63,2.26-1.08,3.04-1.15,4.91-.4,8.94,1.35,11.04,4.79.89,1.46,3.64,6.59,1.59,11.46Z"/>
              </g>
            </g>
            <path class="cls-3" d="m511.91,72.42c0,39.17-31.75,70.92-70.92,70.92-14.53,0-27.24-3.76-39.28-11.86-.32-.22-20.84,14.68-20.84,14.68,0,0,10.37-23.17,9.97-23.59-5.27-5.53-20.77-30.56-20.77-50.15,0-39.17,31.75-70.92,70.92-70.92s70.92,31.75,70.92,70.92Z"/>
          </g>
          <path class="cls-8" d="m275.07,151.89c-16.5,7.01-25.18,25.59-24.18,43.61,1.21,21.88,16.3,41.18,17.44,63.06.69,13.19-3.77,26.02-6.57,38.93-2.81,12.91-3.75,27.27,3.21,38.5.98-8.86,6.66-16.4,12.13-23.45,9.3-11.97,19.13-27.1,13.44-41.15-2.43-6-7.36-10.56-11.59-15.46-18.21-21.08-24.43-51.88-15.81-78.37,3.38-10.38,12.06-21.66,22.71-19.25,3.2.73,6,2.64,8.58,4.68,10.17,8.01,18.54,18.49,30.04,24.44,7.97,4.12,17.21,5.93,24.22,11.53,6.54,5.23,7.89,13.12,13.05,18.85,6.56,7.29,15.94,9.05,20.1,19.17,4.28,10.43.45,22.17-1.99,33.17-2.76,12.44-3.69,25.28-2.73,37.98,8.94-2.71,17.73-6.72,24.32-13.33,6.6-6.61,10.72-16.18,9.09-25.38-1.95-10.99-11.16-18.96-17.63-28.06-13.49-18.98-12.57-42.04-21.94-62.38-6.57-14.26-19.74-29.92-33.69-37.14-12.94-6.7-28.44-8.32-42.48-4.43-7.27,2.01-14.83,6.22-16.98,13.45-.93.31-1.84.65-2.72,1.03Z"/>
          <path class="cls-7" d="m406.03,27.65c-3.39,6.97-3.4,15.52,1.88,23.37.71,1.05,6.38-3.57,6.87-4.23,1.93-2.58,1.92-4.66,2.21-7.83.43-4.81,1.66-9.85,5.1-13.25,2.82-2.78,6.74-4.09,10.1-6.19.96-.6,1.91-1.3,2.43-2.3s.5-2.36-.33-3.13c-.59-.55-1.45-.68-2.25-.76-11.57-1.13-21.63,5.27-26.03,14.31Z"/>
          <g>
            <path class="cls-6" d="m482.17,59.07c-.5-.13-1.01-.19-1.51-.19-2.08,0-4.13,1.08-5.9,3.13h0c-2.2,2.55-2.62,6.36-.98,8.86.47.72,1.11,1.36,1.62,1.83,1.43,1.35,2.57,2.03,3.69,2.19.86.13,1.86-.04,2.82-.2.97-.16,1.89-.32,2.69-.65,2.64-1.1,4.21-4.63,3.5-7.87-.8-3.65-3.07-6.37-5.93-7.09Z"/>
            <path class="cls-6" d="m495.31,62.36c-.38-5.62-1.87-11.2-8.03-12.11-5.31-.78-10.62,1.64-14.66,5.22-3.01,2.66-6.96,6.55-6.88,10.75.07,3.35.8,6.77,2.63,9.57,1.83,2.81,4.87,4.94,8.21,5.17,2.08.15,4.7-.95,6.46.39.62.47,2.79,5.27,1.83,5.46,1.77-.35,3.52-.86,5.2-1.52-.28-2.31-.56-4.63-.84-6.94-.12-1.03-.25-2.09.04-3.09.63-2.23,3-3.43,4.39-5.27,1.6-2.13,1.82-4.99,1.64-7.64Zm-9.45,14.73c-1.15.48-2.35.68-3.41.86-.83.14-1.75.3-2.71.3-.38,0-.77-.02-1.16-.08-2.37-.36-4.25-1.92-5.46-3.06-.64-.6-1.45-1.42-2.12-2.42-2.46-3.75-1.94-9.15,1.24-12.83,3.01-3.49,6.92-4.95,10.73-3.98,4.08,1.03,7.28,4.71,8.35,9.59,1.05,4.81-1.35,9.92-5.46,11.63Z"/>
          </g>
          <path class="cls-4" d="m471.7,72.22c.61.93,1.39,1.71,1.99,2.28,1.13,1.06,2.88,2.52,5.02,2.84,1.14.17,2.44-.01,3.61-.21,1.02-.17,2.17-.37,3.23-.81,3.76-1.56,5.94-6.26,4.97-10.69-1-4.57-3.97-8.01-7.74-8.97-.7-.18-1.41-.26-2.11-.26-2.8,0-5.56,1.39-7.8,3.98-2.94,3.41-3.44,8.39-1.17,11.84Zm2.42-10.76c2.4-2.78,5.36-3.93,8.25-3.2,3.17.8,5.67,3.76,6.54,7.72.79,3.61-1,7.57-3.99,8.81-.89.37-1.85.53-2.87.7-.76.13-1.54.26-2.29.26-.27,0-.53-.02-.79-.06-1.3-.2-2.57-.94-4.14-2.41-.54-.51-1.22-1.19-1.74-1.98-1.84-2.8-1.39-7.03,1.04-9.85Z"/>
          <g>
            <path class="cls-5" d="m385.36,316.01c.24,2.99.5,5.98.84,8.96.12,1,.51,1.97.77,2.9,1.98.06,2.16-1.34,2.69-2.29,2.42-4.29,4.69-8.67,8.19-12.25,1.02-1.04,2.01-1.9,3.91-1.02-.47.81-.84,1.53-1.29,2.18-2.38,3.43-4.79,6.83-7.16,10.26-.79,1.14-1.37,2.44-2.23,3.53-1.97,2.47-3.58,5.06-3.8,8.33-.02.35-.44.67-.71,1.07-1.85-.71-1.94-2.37-2.11-3.74-.8-6.59-1.51-13.18-2.15-19.79-.37-3.79-.65-3.97-4.55-3.81-7.07.28-14.15.53-21.19-.63-3.19-.53-3.58-.22-3.32,3.11.44,5.66,1.1,11.29,1.6,16.95.26,2.94.73,5.89.31,8.9-2.59.08-2.79-1.59-2.93-3.21-.27-3.09-.42-6.2-.69-9.29-.38-4.37-.77-8.75-1.26-13.11-.25-2.25,0-4.21,1.78-5.86.66-.61,1.18-1.59,1.33-2.47.46-2.74.73-5.52,1-8.29.05-.47-.25-.98-.55-2.03-1.04.85-1.91,1.38-2.54,2.11-2.96,3.39-5.78,6.89-8.8,10.23-1.53,1.69-1.91,3.42-1.39,5.58,2,8.43,3.93,16.87,5.87,25.31.23.99.4,2,.6,2.98-2.2.84-2.58-.61-2.94-1.77-1-3.27-1.97-6.56-2.77-9.88-1.12-4.68-2.06-9.4-3.11-14.1-.17-.78-.5-1.52-.98-2.93-2.34,2.73-4.33,4.93-6.19,7.23-5.05,6.25-10.19,12.43-15.02,18.84-3.6,4.78-6.8,9.86-10.13,14.84-.95,1.42-1.75,2.92-3.75,3.27-.99-1.61-.14-2.86.7-3.85,1.72-2.05,1.86-3.92.81-6.46-1.67-4.03-2.81-8.29-4.09-12.47-1.57-5.11-4.2-9.57-7.79-13.53-1.36-1.5-2.56-3.16-3.71-4.83-.72-1.04-1.39-2.22-.31-3.96,3.02,1.68,4.21,4.97,6.34,7.3,2.28,2.5,4.17,5.44,5.75,8.45,1.53,2.92,2.41,6.17,3.61,9.27,1.17,3.01,1.38,6.39,3.34,9.62,2-2.67,3.64-5,5.43-7.21,7.93-9.74,16.75-19.12,24.34-29.04,3.09-4.05,5.59-8.47,8.88-12.46.68-.82,1.36-1.65,2.02-2.49.58-.74,1.14-1.85,1.9-2.41,1.52-1.11,4-.79,5.66-.3.39.11.77.25,1.09.49.99.74.39,3.17.35,4.27-.08,1.84-.23,3.68-.43,5.52-.16,1.47-.25,2.94-.41,4.76-.03.38,10.3.94,11.27.96,3.6.07,7.37.12,10.93-.35,1.13-.15,2.29-.13,3.42.07,3.01.53,3.38,6.22,3.57,8.54Zm-69.26-185.46c-6.03-.54-12.13-.06-18,1.42-5.02,1.26-10.34,2.27-14.52,5.44-5.99,4.54-13.01,7.03-18.26,12.61-2.42,2.57-4.87,5.16-6.11,8.58-.44,1.2-.82,2.42-1.22,3.63-.2.61-.21,1.37-.61,1.8-.51.55-1.35,1.24-1.96,1.16-1.13-.14-.89-1.16-.7-2.05.88-3.93,2.58-7.47,4.83-10.78,4.1-6.04,9.7-10.16,16.39-12.98,2.36-.99,4.64-2.23,6.81-3.58,6.35-3.95,13.11-6.79,20.54-7.93,10.59-1.62,20.64.05,30.34,4.58,10.29,4.81,17.57,12.86,24.01,21.8,5.9,8.18,10.89,16.9,14.72,26.29,5.34,13.08,10.73,26.15,16.41,39.09,2.57,5.87,5.89,11.41,8.84,17.11,1.05,2.02,2.58,2.38,4.8,2.15,8.53-.86,17.08-1.54,25.63-2.17,11.54-.85,23.09-1.6,34.64-2.35,4.28-.28-31.71,1.73-27.42,1.56,8.04-.31,16.07-.69,24.11-.82,2.43-.04,4.91.43,7.29.97,6.69,1.51,10.57,6.26,13.05,12.2,4.04,9.66,3.94,19.91,3.5,30.08-.54,12.41-1.45,24.81-2.32,37.21-.53,7.47-1.26,14.93-1.95,22.4-.86,9.38-1.56,18.78-2.69,28.13-1.36,11.27-2.87,22.53-4.71,33.72-1.74,10.55-3.98,21.02-6.04,31.52-.46,2.33-.13,2.88,1.95,2.88,13.51-.03-4.55-.08,8.96-.07,15.88.01-1.99.08,13.88.12.86,0,1.72-.01,2.57.05,1.66.12,2.28.99,1.66,2.95-.92.05-1.95.14-2.98.14-29.18-.02,6.96-.05-22.22-.08-28.31-.03-16.35-2.2-44.66-2.3-16.51-.06-33.02-.33-49.53-.45-2.78-.02-5.56.43-8.34.39-2.66-.04-5.41-.06-7.94-.74-6.48-1.74-13.12-2.08-19.72-2.76-4.89-.5-9.81-.73-14.86-1.08-.62,1.32-1.23,2.62-2.16,4.63-.77-1.4-1.4-2.19-1.65-3.08-1.59-5.72-1.57-5.64-7.6-5.94-8.67-.43-17.33-1.06-25.99-1.52-10.59-.56-21.19-1.04-31.79-1.55-.32-.02-.64,0-.97,0-1.37,0-2.42-.5-2.27-2.02.15-1.52,1.33-1.27,2.46-1.2,5.56.34,11.13.61,16.7.88.62.03,1.24-.09,2.12-.15-.18-2.61-1.05-4.85-1.94-7.07-2.47-6.21-6.17-11.74-9.81-17.3-3.46-5.29-6.82-10.63-9.24-16.52-1.93-4.7-3.09-9.58-3.54-14.61-.58-6.51-1.01-13.02-1.52-19.54-.04-.51-.21-1.01-.36-1.72-2.23.35-3.76,1.72-5.21,3.02-5.99,5.35-12.03,10.67-17.79,16.26-8.16,7.91-16.13,16-24.09,24.1-2.62,2.66-5,5.56-7.43,8.41-.51.6-.74,1.43-1.15,2.28,4.79-.39,6.87,1.48,7.03,6.15.14,4.01-.9,7.55-3.78,10.57-1.27,1.34-2.06,3.17-2.9,4.86-.76,1.52-.84,3.01.5,4.45.4.43.48,1.87.13,2.16-.94.79-1.99.07-2.34-.82-.57-1.44-.96-3.01-1.09-4.55-.1-1.14.38-2.31.52-3.48.11-.95-.23-1.85-1.3-1.81-.73.03-1.84.4-2.08.93-.94,2.06-1.42,4.27-.64,6.55.21.61.56,1.17.71,1.79.56,2.19-.15,3.03-2.38,2.85-.74-.06-1.48-.27-2.22-.34-4.05-.37-5.77-2.16-5.67-6.17.04-1.69.35-3.37.58-5.34-.63.11-1.12.12-1.56.28-3.77,1.43-5.52.59-2.95,6.36,2.26,5.07,3.94,10.41,5.78,15.66.4,1.14.38,2.41.56,3.61-2.14.52-2.63-.7-3.07-1.95-2.49-6.95-4.95-13.91-7.47-20.84-6.29-17.29-12.63-34.56-18.9-51.86-3.79-10.46-7.47-20.97-11.27-31.43-1.72-4.73-3.57-9.41-5.48-14.06-.56-1.36-1.42-2.63-2.33-3.8-1.31-1.7-3.06-2.47-5.31-2.47-6.11.01-12.23-.11-18.34-.25-26.91-.62-53.82-1.24-80.73-1.93-6.21-.16-12.42-.53-18.62-.89-1.52-.09-2.39.51-2.3,1.92.12,1.79.33,3.65.94,5.33,3.27,8.95,6.65,17.86,10.03,26.76,3.72,9.81,7.48,19.61,11.24,29.41,4.25,11.09,8.55,22.17,12.78,33.27,2.29,6,4.5,12.03,6.69,18.07,1.5,4.13,4.24,7.06,8.52,7.98,4.27.92,8.65,1.38,13,1.89,6.92.82,13.84,1.53,20.77,2.27,9.38,1,18.76,1.95,28.13,2.96,13.1,1.42,26.2,2.88,39.3,4.3,4.05.44,8.09.96,12.15,1.24,3.67.25,7.31.02,10.23-2.68,1.33,2.12,1.17,3.3-.81,4.09-1.66.66-3.51,1.26-5.26,1.23-5.24-.1-10.49-.37-15.71-.85-7.15-.66-14.27-1.57-21.4-2.37-7.02-.79-14.04-1.58-21.07-2.34-9.05-.97-18.11-1.91-27.16-2.87-6.71-.71-13.42-1.43-20.13-2.16-2.88-.31-5.77-.51-8.62-1-2.09-.36-4.17-.97-6.17-1.71-4.82-1.78-7.3-5.65-8.97-10.25-2.38-6.53-4.84-13.03-7.3-19.54-2.87-7.61-5.77-15.21-8.66-22.81-2.89-7.6-5.78-15.2-8.69-22.79-3.99-10.39-8.01-20.77-12.01-31.16-1-2.6-2.18-5.14-2.91-7.81-.79-2.86-1.39-5.81-1.63-8.75-.25-3.09,1.01-4.24,4.22-4.28,4.07-.05,8.15.05,12.22.14,7.83.17,15.65.4,23.48.57,21.66.49,43.31.96,64.97,1.45,5.68.13,11.36.47,17.04.43,3.81-.03,6.62,1.47,8.75,4.46.8,1.13,1.66,2.29,2.15,3.56,2.88,7.38,5.69,14.78,8.45,22.21,3.25,8.73,6.41,17.49,9.64,26.22.36.98.93,1.88,1.52,3.06,3.6-3.31,6.73-6.61,9.34-10.38,3.47-5.02,6.96-10.03,10.38-15.09,4.87-7.2,10.41-13.86,16.26-20.29,11.47-12.6,22.73-25.38,34.17-38.02,6.04-6.67,12.16-13.27,18.42-19.72,3.82-3.94,8.65-6.28,14.07-7.26,1.54-.28,3.2-.74,4.58.78-.12,1.47-1.19,1.9-2.41,1.96-6.24.32-11.35,3.12-15.55,7.49-5.49,5.71-10.77,11.63-16.09,17.51-11.29,12.48-22.52,25-33.82,37.47-8.51,9.39-16.31,19.28-23,30.07-3.96,6.39-8.54,12.35-14.54,17.04-.99.78-1.17,1.69-.75,2.84,1.41,3.81,2.7,7.67,4.2,11.45.93,2.32,3.14,3.11,5.32,2.72,5.05-.91,9.2.97,13.36,3.39,2.1,1.22,4.52,1.91,6.79,2.85,1.63.67,2.92.1,4.03-1.1,5.16-5.59,10.21-11.29,15.5-16.74,12.24-12.62,24.61-25.11,38.53-35.94.68-.53,1.32-1.1,2-1.62,1.62-1.22,2.02-2.76,1.81-4.79-.55-5.32-.87-10.67-1.23-16.01-.06-.93.08-1.87.13-2.65,1.27-.61,1.98-.28,2.28.7.22.7.25,1.47.31,2.22.56,7.37,1.08,14.74,1.65,22.11.64,8.22,1.12,16.46,2.06,24.65.75,6.53,2.91,12.73,6.36,18.38,2.51,4.11,5.31,8.05,7.74,12.21,2.96,5.08,5.74,10.26,8.42,15.49.81,1.58,1.08,3.47,1.47,5.24.55,2.48.58,2.62,3.06,2.78,3.96.26,7.92.43,11.88.65,4.59.25,9.17.5,13.88.76.6-1.66-.03-2.97-.77-4.27-1.49-2.6-3.06-5.16-4.47-7.81-5.44-10.2-6.17-21.06-4.03-32.17,1.13-5.87,2.79-11.65,4.22-17.46.32-1.29.8-2.44,2.99-2.36-.16,1.22-.23,2.31-.46,3.37-1.44,6.68-3.28,13.31-4.3,20.05-1.61,10.66-.28,20.9,5.69,30.27,1.71,2.68,2.91,5.7,4.15,8.65.64,1.51,1.57,2.19,3.14,2.21,2.36.03,4.72.02,7.07.18,1.93.13,3.88.33,4.41,2.84.31,1.46,1.66,1.45,2.86,1.52,3.21.19,6.43.33,9.63.61,4.59.4,9.16.91,13.75,1.34.5.05,1.02-.08,1.69-.15-.27-.78-.39-1.43-.69-1.96-3.8-6.71-4.27-14.08-4.09-21.5.18-7.39.51-14.78,1.13-22.14.75-8.95,1.81-17.88,2.84-26.81.4-3.5,1.03-6.98,1.66-10.45.39-2.17,1.44-4.03,3.33-5.29.3-.2.73-.22,1.22-.36.07.5.25.86.14,1.08-2.45,4.79-2.77,10.08-3.51,15.25-2.43,16.98-3.65,34.07-3.84,51.22-.04,3.92.4,7.93,1.21,11.78,1.86,8.84,7.89,12.39,17.16,11.68,9.38-.71,16.73-5.64,23.32-11.82,9.49-8.9,16.51-19.64,22.57-31.05,6.7-12.62,11.63-25.98,16.02-39.52,3.89-12,7.37-24.15,10.75-36.31,1.05-3.77,1.41-7.79,1.66-11.73.59-9.47-4-16.39-11.48-21.64-2.09-1.47-4.47-2.53-6.69-3.82-1.17-.67-2.59-1.22-2.12-3.32.71.03,1.49-.13,2.08.13,7.96,3.47,14.67,8.36,18.71,16.34,2.52,4.98,2.91,10.24,2.31,15.66-.91,8.13-3.09,15.98-5.56,23.74-3.87,12.14-7.93,24.21-11.91,36.31-.2.61-.41,1.22-.69,1.8-2.47,4.98-3.57,10.16-3.5,15.8.12,9.74-.44,19.48-.49,29.22-.02,4.59.47,9.19.79,13.79.07,1.06.29,2.13.55,3.16.65,2.58,1.13,2.94,3.75,2.94,9.33.01,18.66-.02,28,.02,14.91.08-10.46,2.37,4.45,2.49,2.66.02,3.43-.54,3.82-2.82.76-4.42,1.59-8.83,2.32-13.26,2.05-12.35,4.29-24.68,6.02-37.07,1.6-11.45,2.74-22.96,3.88-34.47.71-7.14.97-14.31,1.56-21.46.64-7.79,1.57-15.56,2.1-23.36.87-12.72,1.75-25.46.98-38.21-.29-4.78-.76-9.58-2.79-14.1-3.17-7.05-8.34-11.08-16.2-10.99-7.82.08-15.65.34-23.46.69-10.28.47,19.71-1.16,9.45-.49-10.05.66-20.09,1.53-30.14,2.28-4.06.3-8.13.51-12.2.78-.83.06-1.66.23-2.95.42.49.99.73,1.78,1.21,2.37,2.23,2.74,4.45,5.5,6.83,8.12,3.16,3.47,5.51,7.38,6.97,11.81,2.12,6.43,1.95,12.93-.44,19.18-1.2,3.15-3.32,5.97-5.16,8.85-.79,1.23-1.81,2.49-3.8,1.83-.66-1.68.45-2.77,1.42-3.87,5.98-6.84,7.46-14.76,5.47-23.42-.98-4.25-3.26-7.88-5.9-11.3-4.05-5.25-8.38-10.31-12.08-15.8-5.83-8.65-9.92-18.23-13.82-27.87-3.53-8.74-6.97-17.51-10.74-26.15-5.23-11.99-10.98-23.72-19.25-34.02-4.88-6.08-10.53-11.24-17.24-15.21-5.82-3.44-12.12-5.4-18.83-6Zm102.89,253.03c-.91,1.11-1.81,1.98-2.43,3.01-.88,1.46-1.54,3.05-2.31,4.58-5,9.89-11.28,18.92-18.74,27.11-4.56,5-9.8,9.2-16.21,12.25,1.66,1.18,3.25,1.15,4.83,1.15,9,0,18,0,27,0,2.25,0,4.5.08,6.75,0,2.44-.08,2.83-.69,2.21-2.98-.34-1.23-.77-2.48-.85-3.73-.3-4.91-.67-9.83-.67-14.75,0-8.74.26-17.48.42-26.64Zm-234.31,22.05c.37,1.41.59,2.32.86,3.21.59,1.99,1.91,3.31,3.82,4.05,1.24.48,2.29.28,3.08-.9,1.5-2.24,2.81-4.49,2.72-7.37-.1-3.49-.8-4.45-4.16-4.53-.89-.02-1.8.54-2.7.83-1.14.36-2.28.7-3.7,1.13-.11-2.46-1.18-3.35-3.07-3.91-2.23-.66-4.4-1.71-6.38-2.94-4.34-2.7-8.8-2.82-13.73-1.17.96,2.85,1.88,5.65,2.84,8.45.9,2.6,1.58,2.71,3.55.63.07-.08.12-.21.2-.24.55-.21,1.1-.39,1.65-.59.13.66.53,1.43.32,1.96-.42,1.07-1.17,2.02-1.8,3-1.22,1.9-.8,5.35.95,6.71.43.33,1.26.55,1.73.37,4.56-1.82,9.95-2.34,12.42-7.6.15-.33.62-.5,1.39-1.08Zm-3.14,19.57c.17-1.41.52-2.43.34-3.35-.39-2.11.34-3.75,1.68-5.23.42-.47,1.01-.79,1.43-1.26,1.1-1.24.61-2.71-1.01-3.15-2.39-.65-5.51,1.57-5.68,4.07-.09,1.38,0,2.77-.19,4.13-.31,2.28.8,3.56,3.43,4.79Z"/>
            <path class="cls-5" d="m181.22,450.29c.12-2.84.3-3.11,2.5-3.26,6.52-.44,13.05-.74,19.57-1.29,7.47-.63,14.92-1.47,22.39-2.22,5.22-.52,10.44-1.06,15.67-1.57,11.08-1.08,22.17-2.15,33.25-3.2,1.28-.12,2.58-.01,3.85-.15,2.21-.24,3.19-1.33,3.37-3.58.17-2.03-.62-2.67-2.68-2.38-4.76.66-9.53,1.41-14.31,1.84-13.34,1.19-26.69,2.24-40.03,3.35-10.25.85-20.5,1.67-30.75,2.57-3.62.32-7.22.85-10.84,1.23-.71.08-1.45-.08-2.17-.13-.01-2.38.42-2.96,2.83-3.31,2.44-.35,4.89-.54,7.35-.76,9.61-.86,19.21-1.73,28.82-2.53,6.51-.54,13.04-.97,19.56-1.43,7.26-.51,14.51-1,21.77-1.53.25-.02.48-.31,1.32-.87-1.47-.37-2.41-.72-3.38-.83-1.38-.15-2.79-.07-4.17-.17-2.17-.16-2.39-.5-2.17-3.58,2.17.23,4.34.51,6.51.7,9.5.83,18.99,1.73,28.5,2.43,8.23.6,16.48.94,24.71,1.44,1.38.08,2.78.29,4.11.66.47.13,1.07.91,1.05,1.38-.02.45-.69,1.06-1.2,1.25-.67.24-1.48.23-2.22.18-8.88-.57-17.75-1.14-26.62-1.77-2.48-.18-2.97.12-3.38,2.62-.16.95-.34,1.89-.61,2.81-.61,2.09-2.01,3.14-4.21,3.33-7.58.65-15.16,1.33-22.73,2.06-9.17.89-18.33,1.85-27.49,2.78-7.67.78-15.34,1.59-23.01,2.33-5.86.57-11.73,1.12-17.6,1.56-2.43.18-4.88.03-7.55.03Z"/>
            <path class="cls-5" d="m267.79,224.16c.42,1.15.95,2.26,1.24,3.44,1.53,6.28,3.65,12.34,7.02,17.87,5.33,8.75,12.62,15.29,22.22,19.15,5.14,2.07,10.11,1.68,14.84-1,2.54-1.43,4.99-3.02,7.32-4.76.93-.7,4.95-4.9,5.9-4.19.4.3.54.83.6,1.32.21,1.54-.31,1.92-1.48,2.51-1.23.62-2.29,1.74-3.4,2.57-2.39,1.79-4.91,3.4-7.54,4.81-3.74,2.02-7.61,3.45-11.97,2.81-.31-.05-.64,0-.95.05-.2.04-.38.18-.75.37-.12.59-.32,1.29-.39,2.01-.7,7.84-2.54,15.46-5.55,22.69-1.45,3.49-3.72,6.77-6.15,9.71-3.07,3.71-5.85,7.38-6.12,12.41-.01.27-.33.53-.57.89-1.92-.17-2.28-1.53-1.84-2.93.78-2.53,1.72-5.04,2.88-7.43.78-1.61,1.91-3.12,3.13-4.46,6.19-6.78,8.59-15.18,10.36-23.84.53-2.61.62-5.32,1.1-7.95.33-1.83-.45-2.66-1.95-3.51-3.62-2.07-7.35-4.04-10.6-6.6-9.05-7.13-14.65-16.59-17.62-27.66-.44-1.65-1.02-3.28-1.27-4.97-.15-1.02.22-2.12.36-3.18.4-.04.79-.09,1.19-.13Z"/>
            <path class="cls-5" d="m266.9,258.87c-.43,5.3-.62,9.28-2.52,12.89-.35.66-.62,1.44-1.15,1.91-.47.41-1.27.63-1.91.59-.23-.01-.61-1.06-.54-1.59.11-.83.47-1.64.83-2.41,2.85-5.92,2.78-12.13,1.01-18.17-2.29-7.79-5.26-15.37-7.85-23.07-3.01-8.95-5.1-18.09-5.77-27.56-.47-6.64-.81-13.26.12-19.87.53-3.78,1.98-7.22,4.53-10.12.28-.32.52-.77.87-.92.53-.22,1.14-.24,1.72-.34.09.56.33,1.15.23,1.68-.09.49-.52.92-.83,1.36-2.71,3.79-3.86,8.1-4.03,12.68-.64,17.36,2.27,34.11,8.79,50.24,1.56,3.87,3.18,7.75,4.31,11.75,1.12,3.99,1.64,8.15,2.18,10.95Z"/>
            <path class="cls-5" d="m43.49,435.16H.4c-.79-2.92-.54-3.34,1.89-3.34,18.75.03,11.38.07,30.13.09,2.79,0,5.57-.18,8.36-.11,2.46.06,2.77.52,2.71,3.35Z"/>
            <path class="cls-5" d="m276.03,166.92c2.54-4.11,4.9-5.16,8.9-4.3,5.41,1.17,9.77,4.27,13.67,8.01,3.47,3.33,6.71,6.91,10.1,10.33,4.07,4.1,7.98,8.38,13.25,11.05,4.16,2.11,8.46,3.66,13.24,3.02,1.36-.18,2.72-.48,4.03-.89,1.16-.36,2.45-.97,2.96.57.42,1.27-.77,1.7-1.85,2.11-4.84,1.82-9.62,1.39-14.45-.08-6.35-1.93-11.3-5.99-15.92-10.48-3.68-3.58-6.94-7.6-10.72-11.06-3.29-3.01-6.94-5.67-10.63-8.19-2.78-1.9-5.87-2.43-9.06-.49-.74.45-1.89.23-3.5.39Z"/>
            <path class="cls-5" d="m265.37,316.23c-1.54-1.1-1.65-2.59-2-4.04-3.04-12.56.05-24.44,4.08-36.17,1.47-4.28,2.91-8.51,2.91-13.09,0-.32-.06-.72.1-.95.38-.54.92-1.45,1.3-1.4.57.08,1.42.77,1.51,1.3.21,1.24.27,2.6,0,3.82-.89,3.96-1.87,7.91-2.96,11.82-1.24,4.43-2.71,8.79-3.93,13.22-1.84,6.66-1.18,13.38-.21,20.09.25,1.75.96,3.58-.78,5.39Z"/>
            <path class="cls-5" d="m385.52,340.33c2.96.52,3.16,2.46,3.55,4.01,1.64,6.53,3.32,13.06,4.61,19.66,1.81,9.36,2.83,18.82,2.87,28.37,0,.85-.02,1.72-.19,2.55-.21,1.01-.9,1.4-2.3.86-.19-1.59-.57-3.36-.58-5.14-.14-15.96-2.88-31.48-7.57-46.7-.32-1.03-.24-2.18-.38-3.62Z"/>
            <path class="cls-5" d="m263.24,199.2c-1.94-.07-2.59-1.03-2.84-2.22-1.47-7.02-1.64-14,.98-20.82.72-1.87,1.63-3.69,3.73-4.96.83,1.84-.03,3.27-.54,4.67-1.73,4.8-2.42,9.74-2.1,14.81.08,1.27.42,2.53.53,3.8.14,1.52.16,3.06.23,4.72Z"/>
            <path class="cls-5" d="m289.5,241.15c1.45.07,2.38-.05,3.21.19,6.43,1.89,11.98.24,16.88-4.1,2.24-1.98,3.46.47,3.37,2.78-.25,6.35-6.05,17.29-14.21,14.14-.95-.37-2.99-2.7-.74-2.87.5-.04.98.19,1.45.35,5.4,1.87,9.27-3.97,10.39-8.43.11-.43.21-.87.11-1.3-.29-1.23-5.77,1.91-7.07,2.27-2.56.7-5.23.91-7.87.76-2.81-.16-3.83-.91-5.52-3.79Z"/>
            <path class="cls-5" d="m393.06,302.1c.7-1.04,1.17-1.82,1.72-2.54,1.61-2.13,3.29-4.22,4.86-6.38,1.72-2.38,2.82-5.01,3.09-7.98.1-1.12.56-2.21.89-3.44,1.71.55,1.78,1.72,1.8,2.87.07,3.98-1.03,7.63-3.43,10.8-1.55,2.04-3.27,3.96-4.97,5.88-.86.97-1.86,1.78-3.95.79Z"/>
            <path class="cls-5" d="m293.09,199.56c.96-1.2,1.45-2.17,2.23-2.72,4.96-3.54,10.43-5.29,16.55-4.21,1.23.21,2.44.78,3.54,1.4.47.27.63,1.1,1.21,2.19-1.53-.15-2.46-.14-3.34-.35-5.32-1.31-10.33-.76-15.03,2.22-1.28.81-2.5,2.04-5.15,1.49Z"/>
            <path class="cls-5" d="m270.81,300.97c.11.83.32,1.62.31,2.41-.09,4.91.72,9.57,3.57,13.71.81,1.18,1.43,2.41.32,4.29-.96-.89-1.97-1.59-2.66-2.53-3.39-4.62-4.32-9.91-3.97-15.51.08-1.32.64-2.21,2.43-2.37Z"/>
            <path class="cls-5" d="m286.18,214.89c2.23.07,2.51,1.58,2.62,2.92.17,2.22.36,4.51.03,6.69-.38,2.56-.04,4.56,2.08,6.26,1.23.98,1.1,1.15.56,2.91-3.32-.78-5.87-3.46-5.68-6.63.23-3.73.74-7.43.05-11.15-.05-.27.19-.59.34-1Z"/>
            <path class="cls-5" d="m386.06,307.1c-.71-1.77-.7-3.16.13-4.56,1.69-2.85,2.34-5.95,2.27-9.24-.01-.64-.06-1.33.15-1.9.19-.53.85-1.37,1.07-1.31.6.18,1.35.66,1.56,1.21,1.66,4.38-1.06,12.89-5.18,15.8Z"/>
            <path class="cls-5" d="m378.88,340.64c-3.86.18-7.46.36-11.06.52-1.49.07-2.99.11-4.48.15-1.07.03-2.01-.28-2.07-1.49-.06-1.28.9-1.47,1.97-1.51,4.38-.15,8.75-.38,13.12-.5,2.01-.06,2.01.03,2.52,2.82Z"/>
            <path class="cls-5" d="m277.76,150.96c-.45,1.05-.88,2.11-1.35,3.15-.62,1.35-1.34,2.67-1.92,4.04-.85,2.02-1.12,4.1-.32,6.23.25.67.35,1.39.51,2.08-2.73.89-3.39.61-3.67-1.67-.62-5.01.64-9.53,3.88-13.41.5-.59,1.44-.81,2.17-1.21.23.26.46.53.7.79Z"/>
            <path class="cls-5" d="m279.12,202.27c-.32,1.39-1.29,1.64-2.42,1.15-2.55-1.09-4.96-.79-7.35.44-.37.19-.82.38-1.21.33-.48-.06-1.23-.28-1.32-.59-.15-.5.14-1.14.26-1.71.02-.09.14-.16.21-.23,2.76-2.68,9.15-2.36,11.82.6Z"/>
            <path class="cls-5" d="m281.36,322.94c2.51-.72,3.44-.44,8.62,2.85,1.54.98,3.42,1.87,3.35,4.81-1.12-.51-2.05-.8-2.85-1.31-3.04-1.95-6.54-3.3-9.12-6.34Z"/>
            <path class="cls-5" d="m249.21,429.82c-.94-.76-1.98-1.23-2.39-2.02-1.12-2.13-1.33-4.46-.48-6.77.24-.66.74-1.3,1.29-1.73.31-.25,1.09-.24,1.43-.01.31.22.46.89.42,1.35-.04.5-.29,1.03-.57,1.47-.79,1.25-.58,2.35.21,3.53.71,1.07,1.26,2.24.1,4.18Z"/>
            <path class="cls-5" d="m308.41,209.99c3.07-.3,4.13.44,4.65,2.9.34,1.58-.34,3.13-1.52,3.48-1.2.35-2.96-.85-3.19-2.45-.19-1.3.02-2.65.05-3.93Z"/>
            <path class="cls-5" d="m197.91,416.09v10.78c-3.01-.56-2.86-3.12-3.14-4.99-.34-2.25.41-4.41,3.14-5.79Z"/>
            <path class="cls-5" d="m279.89,217.45c.06,1.65-.36,2.93-1.71,2.97-.83.03-1.73-.91-2.51-1.52-.29-.23-.39-.75-.51-1.15-.53-1.81-.04-3.15,1.23-3.44,1.42-.33,2.98.69,3.38,2.23.11.41.11.84.12.92Z"/>
            <path class="cls-5" d="m204.02,415.93c.12,1.34.55,2.4.23,3.16-.86,2.05-.81,3.84.41,5.72.28.42-.08,1.26-.14,1.9-.72-.27-1.7-.32-2.12-.83-1.92-2.32-1.28-6.94,1.62-9.94Z"/>
            <path class="cls-5" d="m223.81,427.76c-2.25.79-2.3-.91-2.69-1.97-1.04-2.83-1.12-5.53,1.95-8.09.27,3.66.51,6.89.75,10.06Z"/>
            <path class="cls-5" d="m235.96,418.44c.2,3.64.37,6.82.55,10.21-2.9-.52-2.97-2.89-3.31-4.64-.41-2.09.16-4.17,2.76-5.57Z"/>
            <path class="cls-5" d="m242.56,418.87c-.71,3.31-1.03,6.53,1.07,9.6-2.08.63-3.02.04-3.55-1.57-1.07-3.24-.23-6.74,2.48-8.03Z"/>
            <path class="cls-5" d="m210.52,416.7v10.63c-1.57-.23-2.25-1.49-2.64-3.07-.71-2.9-.32-5.44,2.64-7.56Z"/>
            <path class="cls-5" d="m230.01,417.87c-.35,2.27-.91,3.93-.78,5.55.12,1.6.93,3.14,1.45,4.78-2.34-.03-3.06-.6-3.65-2.71-.72-2.58.34-5.83,2.98-7.62Z"/>
            <path class="cls-5" d="m217.28,418.01c-.38,1.67-1.09,3.23-.96,4.73.13,1.47,1.1,2.87,1.86,4.68-.95-.18-1.58-.18-2.1-.41-1.8-.8-1.91-2.45-1.8-4.08.13-1.95-.16-4.14,2.16-5.2.14-.06.38.12.85.28Z"/>
            <g>
              <path class="cls-5" d="m384.07,204.94l-28.86-11.92c-2.37-.98-5.09.15-6.06,2.52l-26.56,64.3c-.98,2.37.15,5.09,2.52,6.06l25.93,10.71c-.12-1.27-.12-2.54.02-3.77.42-3.62,1.87-7.47.28-10.74-1.6-3.28-5.69-4.54-9.34-4.52-3.65.02-7.29.96-10.92.59-.58-.06-1.21-.18-1.59-.63-.88-1.05.4-2.54,1.58-3.24,4.12-2.45,8.89-4.2,13.66-3.68,4.77.52,9.62,2.85,10.69,7.53.88-3.98-2.8-7.71-6.72-8.8-3.92-1.1-8.1-.44-12.17-.63-1.47-.07-3.22-.47-3.69-1.86-.38-1.12.34-2.37,1.35-2.98,1.01-.62,2.22-.75,3.4-.86,2.45-.24,4.91-.48,7.37-.57,2.82-.1,5.72,0,8.36,1.02,4.83,1.86,8.04,6.38,10.94,10.66-1.53-2.25-1.76-4.96-3.77-7.15-1.79-1.95-3.89-4.34-6.31-5.52-5.33-2.6-12.27.42-17.4-2.58-.73-.43-1.46-1.13-1.34-1.97.13-.83,1.02-1.28,1.82-1.55,7.11-2.39,14.86-1.11,22.25.2.92.16,1.85.33,2.66.78.95.52,1.66,1.39,2.35,2.23,1.85,2.27,3.69,4.54,5.54,6.81,1.57-1.26,1.68-3.7,2.3-5.51.14-.42.28-.87.19-1.31-.09-.46-.42-.84-.73-1.19-1.24-1.38-2.53-2.72-3.85-4.02-1.42-1.4-2.97-2.81-4.9-3.32-.84-.22-1.72-.26-2.59-.3-4.04-.18-8.3.08-12.15-1.15-1.4-.45-2.8-1.08-3.72-2.22s-1.19-2.91-.28-4.06c7.07.83,14.02.63,21.16.78.67.01,1.35.03,1.97.29.47.2.87.54,1.26.87,2.81,2.41,6.11,5.3,8.9,8.55l9-21.79c.98-2.37-.15-5.09-2.52-6.06Z"/>
              <path class="cls-5" d="m375.56,310.68s-.04,0-.07,0c-20.25-.75-20.9-1.4-21.48-1.98-.88-.88-.67-1.73.1-4.87.48-1.96,1.15-4.64,1.19-6.22.12-4.03-.1-8.58-2.64-11.74-2.72-3.39-4.01-8.33-3.44-13.23.11-.98.29-1.96.47-2.91.47-2.53.91-4.92-.02-6.83-1.26-2.58-4.75-3.5-7.62-3.5-.02,0-.05,0-.07,0-1.41,0-2.83.16-4.33.33-2.2.24-4.47.49-6.79.25-.52-.05-1.89-.19-2.8-1.27-.59-.7-.83-1.59-.67-2.5.26-1.53,1.58-2.8,2.72-3.48,1.62-.96,3.21-1.75,4.78-2.37-2.6-.52-3.5-1.99-3.81-2.91-.71-2.08.53-4.15,2.12-5.13,1.38-.84,2.93-1,4.17-1.12,0,0,.01,0,.02,0-.53-.21-1.06-.45-1.57-.75-1.61-.94-2.44-2.37-2.22-3.82.21-1.38,1.24-2.39,3.04-3,7.72-2.6,16.27-1.08,23.15.13,1,.18,2.14.38,3.23.98,1.28.7,2.17,1.8,2.88,2.68l3.9,4.8c.11-.37.2-.77.3-1.17.14-.58.29-1.19.49-1.77.05-.16.09-.27.11-.35-.07-.1-.21-.25-.28-.33-1.22-1.35-2.49-2.67-3.78-3.94-1.24-1.23-2.59-2.46-4.09-2.86-.66-.17-1.41-.21-2.21-.25-.92-.04-1.86-.06-2.8-.08-3.25-.06-6.62-.13-9.82-1.15-1.34-.43-3.28-1.19-4.58-2.82-1.54-1.92-1.66-4.59-.29-6.33.39-.5,1.02-.76,1.65-.68,5.2.61,10.27.65,15.64.7,1.78.02,3.56.03,5.36.07.76.02,1.7.04,2.64.44.7.3,1.22.72,1.74,1.16,6.35,5.44,18.16,15.56,15.08,27.32-3.96,15.07-6.63,30.21-7.94,45h0c-.16,1.77.08,6.45.24,9.54q.24,4.58-.2,5.19c-.34.48-.9.77-1.49.77Zm-18.21-4.71c2.9.33,9.73.72,16.36.99-.03-.63-.07-1.36-.1-2.05-.18-3.57-.41-8.02-.23-10.05,1.33-14.99,4.03-30.34,8.04-45.6,2.31-8.81-5.97-16.81-13.92-23.62-.25-.21-.56-.48-.79-.58-.3-.13-.8-.14-1.29-.15-1.78-.04-3.55-.05-5.31-.07-4.74-.04-9.63-.09-14.53-.57.05.32.2.67.42.95.53.66,1.43,1.17,2.85,1.63,2.7.86,5.79.92,8.78.98.97.02,1.94.04,2.9.08.91.04,1.94.09,2.98.36,2.37.63,4.19,2.28,5.72,3.79,1.34,1.32,2.65,2.69,3.92,4.09.37.41.98,1.08,1.17,2.05.19.95-.1,1.8-.26,2.25-.14.42-.26.92-.39,1.44-.39,1.6-.87,3.59-2.49,4.9-.78.63-1.93.51-2.56-.27l-5.54-6.81c-.57-.7-1.16-1.42-1.81-1.78-.56-.31-1.34-.45-2.1-.58-6.8-1.2-14.51-2.57-21.35-.27-.12.04-.21.08-.3.11.05.03.1.06.15.1,2.2,1.29,5.01,1.24,7.97,1.18,3.11-.06,6.33-.12,9.31,1.33,2.6,1.27,4.79,3.66,6.55,5.59l.31.34c1.38,1.5,2.04,3.18,2.63,4.65.39.98.76,1.91,1.3,2.71h0c.57.83.35,1.97-.48,2.54-.83.57-1.97.35-2.54-.48h0c-3.07-4.52-5.95-8.39-10.09-9.98-2.47-.95-5.24-.99-7.64-.9-2.41.09-4.87.33-7.26.57-.96.1-1.96.19-2.63.6-.41.25-.62.7-.57.84.07.21.69.56,2.05.62,1.26.06,2.52.03,3.86,0,2.85-.06,5.8-.12,8.71.69,4.73,1.32,9.13,5.88,8.01,10.95-.18.83-.92,1.43-1.78,1.43h0c-.85,0-1.59-.59-1.78-1.42-1.11-4.87-7.25-5.91-9.11-6.12-3.78-.42-7.99.74-12.52,3.43-.25.15-.47.33-.64.49,1.9.18,3.85-.03,5.91-.26,1.53-.17,3.11-.34,4.71-.35.03,0,.07,0,.1,0,5.13,0,9.19,2.07,10.89,5.55,1.46,2.99.86,6.23.33,9.09-.17.93-.33,1.8-.43,2.66-.45,3.95.54,7.88,2.67,10.53,3.3,4.11,3.57,9.71,3.44,14.13-.06,1.96-.75,4.75-1.3,6.98-.1.41-.21.86-.31,1.27Zm17.84-10.95h0,0Z"/>
            </g>
            <path class="cls-5" d="m201.22,199.69c-.28,0-.57-.07-.83-.23l-22.36-13.23c-.78-.46-1.03-1.46-.57-2.24.46-.78,1.46-1.03,2.24-.57l22.36,13.23c.78.46,1.03,1.46.57,2.24-.31.52-.85.8-1.41.8Z"/>
            <path class="cls-5" d="m178.77,208.57c-.9,0-1.63-.73-1.63-1.63,0-.9.72-1.64,1.63-1.64l20.54-.08h0c.9,0,1.63.73,1.63,1.63,0,.9-.72,1.64-1.63,1.64l-20.54.08h0Z"/>
            <path class="cls-5" d="m207.51,191.23c-.53,0-1.05-.26-1.36-.73l-10.95-16.42c-.5-.75-.3-1.76.45-2.26.75-.5,1.76-.3,2.26.45l10.95,16.42c.5.75.3,1.76-.45,2.26-.28.19-.59.27-.9.27Z"/>
          </g>
        </g>
      </g>
    </g>
  </g>
</svg>