<?xml version="1.0" encoding="UTF-8"?>
<svg xmlns="http://www.w3.org/2000/svg" viewBox="0 0 551.69 461.32">
  <defs>
    <style>
      .cls-1, .cls-2, .cls-3 {
        fill: none;
      }

      .cls-2 {
        isolation: isolate;
      }

      .cls-4 {
        fill: #f2e8c7;
      }

      .cls-5 {
        fill: #fff;
      }

      .cls-6 {
        fill: #f2c6d5;
      }

      .cls-7 {
        fill: #939393;
      }

      .cls-8 {
        fill: #c5c5c5;
      }

      .cls-9 {
        fill: #646464;
      }

      .cls-10 {
        fill: #c6e2e6;
      }

      .cls-10, .cls-11 {
        mix-blend-mode: multiply;
      }

      .cls-11 {
        fill: #ffdbbe;
      }

      .cls-3 {
        stroke: #939393;
        stroke-linecap: round;
        stroke-linejoin: round;
        stroke-width: 3px;
      }
    </style>
  </defs>
  <g class="cls-2">
    <g id="_レイヤー_2" data-name="レイヤー 2">
      <g id="_レイアウト" data-name="レイアウト">
        <g>
          <g>
            <path class="cls-9" d="m180.36,416.24l-.48,11.39c-.09.73-.04,1.48.17,2.24,1.7,6.3,11.64,10.75,22.68,9.43,8.26-.99,13.74-4.74,14.36-8.98.13-.91,1.75-11.81,1.75-11.81l-38.48-2.27Z"/>
            <g>
              <path class="cls-9" d="m204.08,425.19c-8.71.96-17.43-2.28-18.82-7.2-1.35-4.81,5.02-8.9,13.6-9.2,7.97-.28,15.21,2.85,16.68,7.04,1.5,4.27-3.39,8.47-11.46,9.36Z"/>
              <path class="cls-4" d="m218.58,415.61c-1.84-5.15-10.7-9.04-20.59-8.79-10.83.28-19.09,5.38-17.44,11.5,1.7,6.3,12.91,10.35,23.95,9.03,10.03-1.2,15.96-6.47,14.08-11.74Zm-20.9,8.53c1.42-1.29,3.39-3.65,2.77-6.49,2.87,2.54,2.76,5.21,2.42,6.62-1.76.14-3.52.09-5.19-.14Zm-8.17-11.72c1.69,1.19,5.02,3.04,10.06,3.88-5.29.24-9.75-.92-12.13-1.73.46-.78,1.17-1.51,2.07-2.14Zm14.5-2.38c-1.29,1.06-3.27,3.21-2.64,6.05-2.87-2.54-2.7-5.08-2.35-6.38,1.73-.06,3.42.06,4.99.33Zm-3.44,7.21c-.05-.04-.1-.08-.15-.13l-.11.04c-.02-.06-.03-.11-.05-.17h-.1s.04-.09.06-.14l-.13-.02c.06-.05.12-.09.19-.14l-.09-.03c.08-.03.15-.05.23-.08l-.07-.06c.1,0,.21-.01.31-.02l-.02-.06c.09.01.18.02.27.04l.02-.07c.09.04.17.07.26.11l.06-.05c.05.04.1.09.15.13l.1-.04c.02.06.04.11.06.17h.1s-.04.09-.05.14h.13c-.06.06-.12.1-.18.15l.09.03c-.08.03-.15.05-.23.08l.07.06c-.1,0-.21.01-.31.02l.02.06c-.09-.01-.18-.02-.27-.04l-.02.07c-.09-.03-.17-.07-.26-.1l-.06.05Zm1.79-.1c4.59-1.46,9.25-1.21,11.45-.96.26.91.2,1.81-.14,2.65-1.99-.73-6.09-1.92-11.32-1.69Zm.18-.37c3.23-2.22,7.58-2.86,9.73-3.05.68.67,1.18,1.41,1.46,2.2-2.25-.24-6.71-.46-11.19.86Zm-.28-.26c1.21-2.83,4.67-4.42,6.5-5.08,1.29.57,2.4,1.26,3.26,2.05-2.24.21-6.51.87-9.76,3.04Zm-.37-.34c-.71-2.86,1.36-5.03,2.61-6.04,1.39.27,2.69.65,3.85,1.13-1.86.69-5.14,2.24-6.46,4.92Zm-3.4-6.44c-.19.74-.31,1.82.08,3.08.31.99.94,2.08,2.09,3.16-4.22-1.85-5.82-4.28-6.4-5.62,1.3-.33,2.72-.54,4.23-.62Zm1.7,6.38c-5.27-.78-8.69-2.74-10.35-3.92,1.09-.7,2.43-1.28,3.95-1.71.62,1.38,2.26,3.78,6.4,5.63Zm-.76.47c-4.62,1.44-9.64,1.34-12.5,1.1-.24-.99-.11-1.94.34-2.83,2.47.82,6.91,1.95,12.16,1.73Zm-.19.38c-3.28,2.2-7.91,3.07-10.68,3.41-.75-.73-1.28-1.53-1.55-2.38,2.89.22,7.71.28,12.23-1.03Zm.29.26c-1.24,2.82-4.82,4.66-7.06,5.58-1.44-.59-2.67-1.32-3.62-2.16,2.84-.36,7.4-1.26,10.68-3.42Zm.37.35c.69,2.86-1.37,5.24-2.77,6.49-1.5-.23-2.92-.6-4.2-1.08,2.24-.94,5.63-2.73,6.98-5.41Zm1.24.19c4.23,1.84,5.8,4.31,6.37,5.64-1.21.38-2.56.66-4.03.81-.03,0-.07,0-.1,0,.32-1.43.37-3.98-2.24-6.46Zm.46-.15c5.29.76,8.52,2.74,9.94,3.82-.95.72-2.16,1.34-3.59,1.83-.61-1.37-2.21-3.8-6.35-5.65Zm10.23,3.59c-1.46-1.08-4.58-2.96-9.6-3.78,5.28-.27,9.42.96,11.33,1.67-.36.75-.94,1.46-1.72,2.11Z"/>
              <path class="cls-4" d="m201.87,419.05c-2.25.18-4.42-.67-4.8-1.91-.38-1.23,1.17-2.33,3.41-2.47s4.26.71,4.65,1.9-1.05,2.3-3.26,2.48Z"/>
              <path class="cls-8" d="m201.78,418.77c-1.97.16-3.86-.59-4.19-1.67s1.01-2.04,2.98-2.16,3.74.62,4.07,1.66-.93,2.02-2.86,2.17Z"/>
            </g>
          </g>
          <g>
            <path class="cls-9" d="m222.79,438.03l-.48,11.39c-.09.73-.04,1.48.17,2.24,1.7,6.3,11.64,10.75,22.68,9.43,8.26-.99,13.74-4.74,14.36-8.98.13-.91,1.75-11.81,1.75-11.81l-38.48-2.27Z"/>
            <g>
              <path class="cls-9" d="m246.5,446.97c-8.71.96-17.43-2.28-18.82-7.2-1.35-4.81,5.02-8.9,13.6-9.2,7.97-.28,15.21,2.85,16.68,7.04,1.5,4.27-3.39,8.47-11.46,9.36Z"/>
              <path class="cls-6" d="m261,437.4c-1.84-5.15-10.7-9.04-20.59-8.79-10.83.28-19.09,5.38-17.44,11.5,1.7,6.3,12.91,10.35,23.95,9.03,10.03-1.2,15.96-6.47,14.08-11.74Zm-20.9,8.53c1.42-1.29,3.39-3.65,2.77-6.49,2.87,2.54,2.76,5.21,2.42,6.62-1.76.14-3.52.09-5.19-.14Zm-8.17-11.72c1.69,1.19,5.02,3.04,10.06,3.88-5.29.24-9.75-.92-12.13-1.73.46-.78,1.17-1.51,2.07-2.14Zm14.5-2.38c-1.29,1.06-3.27,3.21-2.64,6.05-2.87-2.54-2.7-5.08-2.35-6.38,1.73-.06,3.42.06,4.99.33Zm-3.44,7.21c-.05-.04-.1-.08-.15-.13l-.11.04c-.02-.06-.03-.11-.05-.17h-.1s.04-.09.06-.14l-.13-.02c.06-.05.12-.09.19-.14l-.09-.03c.08-.03.15-.05.23-.08l-.07-.06c.1,0,.21-.01.31-.02l-.02-.06c.09.01.18.02.27.04l.02-.07c.09.04.17.07.26.11l.06-.05c.05.04.1.09.15.13l.1-.04c.02.06.04.11.06.17h.1s-.04.09-.05.14h.13c-.06.06-.12.1-.18.15l.09.03c-.08.03-.15.05-.23.08l.07.06c-.1,0-.21.01-.31.02l.02.06c-.09-.01-.18-.02-.27-.04l-.02.07c-.09-.03-.17-.07-.26-.1l-.06.05Zm1.79-.1c4.59-1.46,9.25-1.21,11.45-.96.26.91.2,1.81-.14,2.65-1.99-.73-6.09-1.92-11.32-1.69Zm.18-.37c3.23-2.22,7.58-2.86,9.73-3.05.68.67,1.18,1.41,1.46,2.2-2.25-.24-6.71-.46-11.19.86Zm-.28-.26c1.21-2.83,4.67-4.42,6.5-5.08,1.29.57,2.4,1.26,3.26,2.05-2.24.21-6.51.87-9.76,3.04Zm-.37-.34c-.71-2.86,1.36-5.03,2.61-6.04,1.39.27,2.69.65,3.85,1.13-1.86.69-5.14,2.24-6.46,4.92Zm-3.4-6.44c-.19.74-.31,1.82.08,3.08.31.99.94,2.08,2.09,3.16-4.22-1.85-5.82-4.28-6.4-5.62,1.3-.33,2.72-.54,4.23-.62Zm1.7,6.38c-5.27-.78-8.69-2.74-10.35-3.92,1.09-.7,2.43-1.28,3.95-1.71.62,1.38,2.26,3.78,6.4,5.63Zm-.76.47c-4.62,1.44-9.64,1.34-12.5,1.1-.24-.99-.11-1.94.34-2.83,2.47.82,6.91,1.95,12.16,1.73Zm-.19.38c-3.28,2.2-7.91,3.07-10.68,3.41-.75-.73-1.28-1.53-1.55-2.38,2.89.22,7.71.28,12.23-1.03Zm.29.26c-1.24,2.82-4.82,4.66-7.06,5.58-1.44-.59-2.67-1.32-3.62-2.16,2.84-.36,7.4-1.26,10.68-3.42Zm.37.35c.69,2.86-1.37,5.24-2.77,6.49-1.5-.23-2.92-.6-4.2-1.08,2.24-.94,5.63-2.73,6.98-5.41Zm1.24.19c4.23,1.84,5.8,4.31,6.37,5.64-1.21.38-2.56.66-4.03.81-.03,0-.07,0-.1,0,.32-1.43.37-3.98-2.24-6.46Zm.46-.15c5.29.76,8.52,2.74,9.94,3.82-.95.72-2.16,1.34-3.59,1.83-.61-1.37-2.21-3.8-6.35-5.65Zm10.23,3.59c-1.46-1.08-4.58-2.96-9.6-3.78,5.28-.27,9.42.96,11.33,1.67-.36.75-.94,1.46-1.72,2.11Z"/>
              <path class="cls-4" d="m244.29,440.84c-2.25.18-4.42-.67-4.8-1.91s1.17-2.33,3.41-2.47,4.26.71,4.65,1.9-1.05,2.3-3.26,2.48Z"/>
              <path class="cls-8" d="m244.21,440.56c-1.97.16-3.86-.59-4.19-1.67s1.01-2.04,2.98-2.16,3.74.62,4.07,1.66-.93,2.02-2.86,2.17Z"/>
            </g>
          </g>
          <g>
            <path class="cls-9" d="m331.72,412.8l-.48,11.39c-.09.73-.04,1.48.17,2.24,1.7,6.3,11.64,10.75,22.68,9.43,8.26-.99,13.74-4.74,14.36-8.98.13-.91,1.75-11.81,1.75-11.81l-38.48-2.27Z"/>
            <g>
              <path class="cls-9" d="m355.43,421.75c-8.71.96-17.43-2.28-18.82-7.2s5.02-8.9,13.6-9.2c7.97-.28,15.21,2.85,16.68,7.04,1.5,4.27-3.39,8.47-11.46,9.36Z"/>
              <path class="cls-4" d="m369.93,412.17c-1.84-5.15-10.7-9.04-20.59-8.79-10.83.28-19.09,5.38-17.44,11.5,1.7,6.3,12.91,10.35,23.95,9.03,10.03-1.2,15.96-6.47,14.08-11.74Zm-20.9,8.53c1.42-1.29,3.39-3.65,2.77-6.49,2.87,2.54,2.76,5.21,2.42,6.62-1.76.14-3.52.09-5.19-.14Zm-8.17-11.72c1.69,1.19,5.02,3.04,10.06,3.88-5.29.24-9.75-.92-12.13-1.73.46-.78,1.17-1.51,2.07-2.14Zm14.5-2.38c-1.29,1.06-3.27,3.21-2.64,6.05-2.87-2.54-2.7-5.08-2.35-6.38,1.73-.06,3.42.06,4.99.33Zm-3.44,7.21c-.05-.04-.1-.08-.15-.13l-.11.04c-.02-.06-.03-.11-.05-.17h-.1s.04-.09.06-.14l-.13-.02c.06-.05.12-.09.19-.14l-.09-.03c.08-.03.15-.05.23-.08l-.07-.06c.1,0,.21-.01.31-.02l-.02-.06c.09.01.18.02.27.04l.02-.07c.09.04.17.07.26.11l.06-.05c.05.04.1.09.15.13l.1-.04c.02.06.04.11.06.17h.1s-.04.09-.05.14h.13c-.06.06-.12.1-.18.15l.09.03c-.08.03-.15.05-.23.08l.07.06c-.1,0-.21.01-.31.02l.02.06c-.09-.01-.18-.02-.27-.04l-.02.07c-.09-.03-.17-.07-.26-.1l-.06.05Zm1.79-.1c4.59-1.46,9.25-1.21,11.45-.96.26.91.2,1.81-.14,2.65-1.99-.73-6.09-1.92-11.32-1.69Zm.18-.37c3.23-2.22,7.58-2.86,9.73-3.05.68.67,1.18,1.41,1.46,2.2-2.25-.24-6.71-.46-11.19.86Zm-.28-.26c1.21-2.83,4.67-4.42,6.5-5.08,1.29.57,2.4,1.26,3.26,2.05-2.24.21-6.51.87-9.76,3.04Zm-.37-.34c-.71-2.86,1.36-5.03,2.61-6.04,1.39.27,2.69.65,3.85,1.13-1.86.69-5.14,2.24-6.46,4.92Zm-3.4-6.44c-.19.74-.31,1.82.08,3.08.31.99.94,2.08,2.09,3.16-4.22-1.85-5.82-4.28-6.4-5.62,1.3-.33,2.72-.54,4.23-.62Zm1.7,6.38c-5.27-.78-8.69-2.74-10.35-3.92,1.09-.7,2.43-1.28,3.95-1.71.62,1.38,2.26,3.78,6.4,5.63Zm-.76.47c-4.62,1.44-9.64,1.34-12.5,1.1-.24-.99-.11-1.94.34-2.83,2.47.82,6.91,1.95,12.16,1.73Zm-.19.38c-3.28,2.2-7.91,3.07-10.68,3.41-.75-.73-1.28-1.53-1.55-2.38,2.89.22,7.71.28,12.23-1.03Zm.29.26c-1.24,2.82-4.82,4.66-7.06,5.58-1.44-.59-2.67-1.32-3.62-2.16,2.84-.36,7.4-1.26,10.68-3.42Zm.37.35c.69,2.86-1.37,5.24-2.77,6.49-1.5-.23-2.92-.6-4.2-1.08,2.24-.94,5.63-2.73,6.98-5.41Zm1.24.19c4.23,1.84,5.8,4.31,6.37,5.64-1.21.38-2.56.66-4.03.81-.03,0-.07,0-.1,0,.32-1.43.37-3.98-2.24-6.46Zm.46-.15c5.29.76,8.52,2.74,9.94,3.82-.95.72-2.16,1.34-3.59,1.83-.61-1.37-2.21-3.8-6.35-5.65Zm10.23,3.59c-1.46-1.08-4.58-2.96-9.6-3.78,5.28-.27,9.42.96,11.33,1.67-.36.75-.94,1.46-1.72,2.11Z"/>
              <path class="cls-4" d="m353.22,415.61c-2.25.18-4.42-.67-4.8-1.91s1.17-2.33,3.41-2.47,4.26.71,4.65,1.9c.39,1.19-1.05,2.3-3.26,2.48Z"/>
              <path class="cls-8" d="m353.13,415.33c-1.97.16-3.86-.59-4.19-1.67s1.01-2.04,2.98-2.16,3.74.62,4.07,1.66-.93,2.02-2.86,2.17Z"/>
            </g>
          </g>
          <g>
            <line class="cls-3" x1="232.67" y1="29.13" x2="211.06" y2="38.6"/>
            <line class="cls-3" x1="216.71" y1="9.53" x2="203.7" y2="22.59"/>
            <line class="cls-3" x1="236.28" y1="54.14" x2="217.86" y2="54.86"/>
          </g>
          <path class="cls-7" d="m297.34,378.77c.64-6.27,1.31-12.55,1.92-18.82.23-2.34.34-4.69.48-7.04.13-2.25-1.18-3.33-3.19-3.11-7.43.8-14.5-.84-21.55-2.8-.34-.09-.72-.01-1.6-.01-.17,1.1-.38,2.22-.52,3.36-.33,2.76-1.65,3.71-4.27,3.04-4.87-1.25-7-4.84-6.8-9.92.14-3.65-.64-7.34-1.05-11.01-.55-4.86,1.99-8.97,3.98-12.88,1.43-2.81,5-4.63,9.02-3.72-2.83,2.15-7.62,2.05-8.39,7.57,2.84-1.13,5.17-2.07,7.51-3.01.11.26.23.53.34.79-1.76,2.11-4.56,2.48-6.86,3.65-2.92,1.48-3.8,2.95-3.5,6.62,3.63-.34,6.41-3.8,10.64-2.36-1.1.56-2.2,1.14-3.3,1.69-1.88.93-3.83,1.74-5.63,2.8-1.69,1-2.1,2.57-1.36,4.7,4.12-1.07,8.09-2.1,12.07-3.13.13.33.27.65.4.98-.98.55-1.92,1.21-2.95,1.62-1.49.59-3.08.93-4.58,1.51-3.35,1.29-4.95,3.68-4.59,6.68.31,2.57,2.79,4.75,6.25,5.44,2.08-1.9-.03-3.56-.51-5.74,2.74-1.25,5.47-.4,8.15.03,4.89.78,9.76,1.64,14.65,2.4,1.07.17,2.19.02,3.42.02.16-2.43-1.57-3.41-2.93-4.53-7.12-5.89-12.54-12.93-15.55-21.78-2.2-6.47-3.36-13.11-4.19-19.85-1.61-13.15-3.41-26.27-4.84-39.44-1.38-12.66-2.69-25.35-3.47-38.06-.67-10.95,5.34-18.66,14.29-23.88,4.73-2.76,10.15-4.53,15.46-6.1,5.09-1.51,10.46-2.02,15.63-3.26,5.63-1.35,11.19-3.03,16.97-4.62.07-1.5.23-2.71.17-3.91-.22-3.94.45-7.32,3.34-10.53,3.6-4,6.17-8.92,9.63-13.07,2.62-3.15,6.26-5.42,10.3-6.24,3.96-.81,8.09-.99,12.14-.96,1.22,0,2.98,1.45,3.43,2.64.29.77-1.08,2.66-2.16,3.35-1.73,1.11-3.82,1.69-5.79,2.39-2.39.86-4.95,1.38-6.45,4,7.4-.84,14.37-3.2,21.11-6.44.16.29.32.57.49.86-.49.54-.87,1.34-1.48,1.57-3.91,1.49-7.86,2.88-11.81,4.26-1.21.42-2.45.74-4.34,1.31,1.06,1.38,1.66,2.23,2.33,3.01,2.34,2.72,4.98,5.24,6.98,8.19,1.77,2.61,2.96,5.65,4.16,8.6.36.9.32,2.55-.26,3.14-2.22,2.27-2.63,5.12-3.48,7.96-1.14,3.84-6.98,3.85-10.41-.4,2.07-.35,3.84-1.03,5.51-.85,2.26.24,3.28-.5,3.53-2.24-1.2-2.19-2.22-4.1-3.28-5.99-.73-1.3-1.38-2.65-2.27-3.83-2.1-2.78-4.58-4.78-8.47-4.19-1.94.3-3.96.1-5.94.15-3.67.09-7.15-3.25-6.86-6.92.07-.93,1.16-2.26,2.06-2.56,4.08-1.33,6.79-4.16,9.73-7.1,2.1-2.09,5.57-2.84,8.48-4.08,1.47-.63,3.13-.86,4.54-1.59.72-.37,1.08-1.44,1.61-2.19-.75-.52-1.5-1.49-2.24-1.48-8.3.07-16.03,1.3-20.98,9.29-2.06,3.32-4.83,6.24-7.57,9.06-2.93,3.01-3.94,6.47-3.55,10.49.55,5.78,1.56,11.56,1.59,17.34.04,10.13-.78,20.24-3.19,30.15-.08.33.1.72.21,1.4,4.83,1.71,9.77,3.45,14.88,5.25.38-1.08.82-1.67.74-2.18-.82-5.16,1-9.56,4.05-13.48,3.58-4.6,4.42-9.71,4.06-15.37-.34-5.4-.07-10.83-.07-16.02-4.06-1.17-5.99.12-5.62,3.27.29,2.44.99,4.84,1.57,7.25,1.03,4.31,1.62,8.65,1.07,13.06-.27.09-.54.17-.81.26-.29-.77-.74-1.51-.86-2.3-.75-5.13-1.25-10.3-2.19-15.39-.75-4.04.8-7.14,3.57-9.58,1.06-.93,3.52-1.38,4.66-.78,1.1.58,1.89,2.84,1.82,4.32-.21,4.4-1,8.77-1.38,13.17-.11,1.29.42,2.63.71,4.22,15.24.64,26.63-6.39,36.68-17.52-1.53,9.46-22.42,20.28-36.51,19.39-.31.85-.64,1.84-1.03,2.8-1.34,3.28-2.69,6.56-4.07,9.83-1.25,2.94-3,5.75-3.7,8.81-.49,2.1-.17,4.85.86,6.73,1.35,2.46,1.35,4.56.68,7.06-2.36,8.84-4.92,17.65-6.79,26.6-1.49,7.13-1.94,14.47-3.15,21.66-1.46,8.66-3.28,17.25-4.83,25.89-.29,1.61-.04,3.32-.04,5.31,3.51,0,6.46-.02,9.42,0,14.03.11,27.99-.63,41.91-2.51,8.33-1.13,16.74-1.69,25.11-2.53.85-.08,1.68-.31,3.14-.58,0-4.06-.35-8.14.07-12.15.97-9.23,2.28-18.43,3.5-27.63,1.35-10.16.29-20.25-.38-30.39-.46-6.99.17-14.07.47-21.1.05-1.23.88-2.43,1.34-3.64.33.03.67.07,1,.1.06.96.4,2,.15,2.87-2.67,9.07-1.34,18.21-.49,27.31.92,9.91.96,19.76-.52,29.63-1.39,9.3-2.49,18.65-3.59,27.99-.27,2.29-.04,4.64-.04,6.95,2.4.57,4.18.98,5.96,1.4-.02.26-.04.51-.06.77-.68.15-1.37.49-2.03.44-11.85-.89-23.49,1.03-35.13,2.71-15.87,2.29-31.8,3.32-47.82,2.14-2.32-.17-3.26.72-4.07,2.75-2.87,7.2-3.83,14.5-2.3,22.18.82,4.08,1.36,4.82,5.46,4.81,6.32-.03,12.66-.41,18.94.08,19.29,1.51,38.57,2.78,57.93,2.43,7.31-.14,14.63-.31,21.94-.32,5.47-.01,8.97-2.86,10.65-7.69,1.74-5,2.89-10.2,4.26-15.32.3-1.13.44-2.3.66-3.46.26,0,.51,0,.77,0,.18.75.57,1.52.52,2.26-.44,6.36-2.04,12.4-4.73,18.21-2.68,5.78-7.26,8.1-13.4,8.15-5.05.04-10.11.3-15.65.48,1.05,7.35,4.52,13.63,5.52,20.45-.33.12-.66.24-.99.36-.48-.9-1.12-1.75-1.42-2.71-1.55-4.83-3.27-9.63-4.4-14.56-.6-2.61-1.6-3.43-4.17-3.46-9.79-.08-19.59-.22-29.37-.6-5.81-.23-11.59-1.17-17.4-1.41-9.03-.38-18.08-.43-27.12-.62-1.49-.03-2.98.09-4.46-.03-3.22-.26-4.7-1.62-5.3-4.71-.77-3.92-3.32-5.63-7.25-4.78-.72.16-1.46.4-2.08.78-4.34,2.66-8.89,4.32-14.42,2.78-.15,1.58-.26,2.77-.39,3.96-.73,6.65-1.37,13.3-2.28,19.92-.17,1.25-1.41,2.36-2.16,3.53l.09.09Zm-6.32-70.64c-.32-.13-.64-.27-.96-.4.39-1.35.66-2.75,1.19-4.04,3.46-8.34,6.89-16.69,10.51-24.95,1.58-3.6,2.75-7.04,1.57-11.07-.65-2.22-.6-4.65-.76-6.99-.65-9.41-1.83-18.71-5.52-27.51-.34-.82-.38-1.76-.56-2.64.41-.3.83-.6,1.24-.9.28.67.59,1.32.83,2.01,1.08,3.16,2.58,6.25,3.12,9.5,1.22,7.31,1.92,14.71,2.91,22.06.26,1.93.81,3.83,1.22,5.74.49.01.99.03,1.48.04,3.67-10.87,7.37-21.72,10.98-32.61.75-2.25,1.14-4.98,3.82-5.43,2.98-.5,3.97-2.28,4.29-4.75.77-6,1.28-12.03,2.16-18.01.62-4.27.34-7.78-4.27-9.8-1.76-.77-3.12-2.39-3.27-5.09,2.55,2.06,4.58,3.72,6.62,5.37.3-.2.59-.39.89-.59.08-3.14.77-6.32-1-9.52-1,.24-1.71.41-2.41.59-7.31,1.8-14.63,3.6-21.94,5.42-5.76,1.43-11.77,2.27-17.24,4.45-13.99,5.58-20.69,14.56-19.37,30.17.96,11.34,2.37,22.65,3.67,33.97,1.55,13.53,3.22,27.04,4.79,40.57,1.14,9.82,3.58,19.22,8.98,27.64,4.14,6.46,9.98,11.35,15.89,16.03,4.87,3.85,10.42,3.36,15.45-.44,5.28-3.99,9.23-9.06,11.09-15.41,1.7-5.79,3.01-11.72,4.14-17.65,1.82-9.59,3.26-19.25,5.01-28.85,1.73-9.48,3.49-18.96,5.52-28.38,1.01-4.7,2.62-9.28,4-13.9.57-1.9.48-3.38-1.76-4.12-5.64-1.86-11.25-3.82-16.89-5.69-3.72-1.23-4.71-.6-5.94,3.19-1.95,6-3.76,12.06-6.08,17.91-2.32,5.84-5.35,11.4-7.79,17.2-4.79,11.4-9.38,22.89-14.08,34.33-.38.91-1.02,1.72-1.54,2.57Zm66.63-135.95c-1.51-3.61-4.01-5.57-7.61-4.78-2.98.66-5.83,2.04-8.61,3.35-.81.38-1.57,1.57-1.73,2.5-.57,3.26,1.29,4.92,5.81,4.41,5.71-.64,11.08-.24,16.13,2.67.25.14.66.02,1.48.02-2.62-3.42-5.74-5.43-9.56-5.94-2.53-.34-5.17.16-7.76.23-.84.02-1.68-.15-2.52-.24,0-.4,0-.8,0-1.2,4.7-.33,9.4-.67,14.36-1.02Zm-33.24,169.12c-2.14.36-3.15,1.57-2.8,3.52.09.53,1.81,1.38,2.13,1.15,1.62-1.14,1.62-2.76.67-4.67Z"/>
          <path class="cls-7" d="m299.81,385.65c1.76-2.4,3.77-1.76,5.47-1.77,12.03-.07,24.05-.05,36.08-.03,51.58.07,103.15.14,154.73.23,1.13,0,2.27.22,3.4.34,0,.36.02.72.03,1.08-1.35.2-2.7.58-4.06.58-24.55.07-49.1.09-73.65.12-28.64.04-57.28.1-85.92.13-10.9.01-21.79,0-32.69-.06-.99,0-1.98-.36-3.38-.63Z"/>
          <path class="cls-7" d="m448.21,325.92c-.14-1.07-.42-2.14-.41-3.21.13-13.25.57-26.51.4-39.76-.2-15.85-.79-31.7-1.42-47.54-.3-7.69-1.75-15.23-4.05-22.61-2.51-8.05-7.47-13.85-15.28-17.15-6.9-2.92-14.06-4.73-21.58-5.07-6.09-.27-12.05-1.09-17.79-3.41-4.22-1.71-7.17-4.67-7.27-9-.14-6.38.62-12.8,1.24-19.18.13-1.38,1.29-2.66,1.98-3.98.35.13.7.25,1.05.38-.08.88.02,1.83-.28,2.63-2.1,5.68-2.56,11.59-2.44,17.56.11,5.14,3.08,9.38,7.91,10.42,4.81,1.03,9.8,1.16,14.65,2.02,11.42,2.01,23.18,3.18,32.27,11.71,3.64,3.41,5.87,7.6,7.38,12.27,2.72,8.43,4.1,17.14,4.33,25.94.66,25.01,1.06,50.03,1.45,75.05.07,4.26-.43,8.53-.66,12.79l-1.49.15Z"/>
          <path class="cls-7" d="m405.32,186.15c-.3-1.12-.74-2.23-.86-3.38-1.18-10.4.43-20.49,3.72-30.33,2.91-8.7,5.79-17.4,6.87-26.54,1.86-15.79.83-31.19-7.34-45.35-5.88-10.17-14.33-16.55-26.52-17.08-1.13-.05-2.23-.61-3.35-.93l.11-.94c.65-.2,1.3-.58,1.94-.56,12.97.49,22.79,6.67,29.18,17.61,10.66,18.27,10.92,37.96,6.23,57.95-1.86,7.93-4.62,15.65-6.88,23.49-2.04,7.1-2.7,14.33-1.83,21.69.16,1.37.02,2.77.02,4.16-.43.07-.86.14-1.29.21Z"/>
          <path class="cls-7" d="m332.54,385.65c-2.26,1.71-328.89,1.04-332.54-.74,1.4-.28,2.8-.78,4.21-.8,6.81-.09,13.62-.06,20.43-.06,16.47,0,287.44,1.02,303.91,1.06,1.33,0,2.66.35,3.99.54Z"/>
          <path class="cls-7" d="m338.97,157.83c-1.61-1.88-3.22-3.75-4.83-5.62-3.16,2.92-7.15,15.14-6.99,21.19-2.36-.71-2.53-.74-2.13-3.04.5-2.78,1.12-5.58,2.04-8.24,1.37-3.96,3.31-7.74,4.48-11.74.54-1.83.21-4.14-.38-6.04-2.02-6.52-2.49-13.09-1.27-19.78.18-1.01.62-1.98.94-2.96.33.03.66.07.98.1.04.84.23,1.7.09,2.5-1.83,10.83-.12,20.89,6.38,29.95.66.92,1.07,2.03,1.59,3.05-.3.21-.61.42-.91.63Z"/>
          <path class="cls-7" d="m374.22,61.41c-9.82.04-18.8,2.28-25.87,9.2-6.52,6.38-13.88,12.35-14.75,22.66-2.22-2.63-1.56-5.49-.25-7.56,7.68-12.14,16.59-22.96,31.91-25.59,2.96-.51,6.07-.96,8.96,1.29Z"/>
          <path class="cls-7" d="m359.71,81.06c1.49.16,3.06.05,4.44.51,8.67,2.9,14.55,8.54,17.19,17.47.87,2.93,2.28,5.71,3.49,8.54,1.38,3.23,3.78,5.4,7.01,6.77.99.42,1.8,1.25,2.43,2.34-3.41.49-6.15-1.07-7.85-3.47-2.46-3.47-4.85-7.24-6.15-11.24-2.62-8.05-6.57-14.65-14.85-17.79-1.9-.72-3.91-1.16-5.87-1.74.05-.47.11-.93.16-1.4Z"/>
          <path class="cls-7" d="m387.03,118.35c.93,1.79,1.47,4.01,2.86,5.29,2.87,2.65,6.01,5.14,9.39,7.08,5.02,2.88,6.36,6.06,3.95,11.27-2.26,4.87-6.89,7.57-11.92,6.86-.21-2.07,1.34-1.86,2.61-2.09,4.46-.81,7.53-3.91,8.41-8.28.41-2.06-.06-3.62-1.93-4.73-2.54-1.51-5.06-3.06-7.56-4.63-2.87-1.81-5.47-3.91-6.4-7.37-.28-1.04-.18-2.19-.25-3.29.28-.04.56-.08.85-.12Z"/>
          <path class="cls-7" d="m334.49,103.54c-1.65-9.32,10.67-22.58,17.07-21.19-3.5,2.86-7.63,5.31-10.47,8.81-2.81,3.45-4.32,7.95-6.6,12.38Z"/>
          <path class="cls-7" d="m346.65,133.46c-2.67-3.79-2.61-4.99-.12-7.69,1.88-2.04,3.63-4.2,5.61-6.51,1.09,2.77-.31,5.04-2.13,6.35-2.45,1.77-3.53,3.58-2.79,6.49.07.26-.25.63-.57,1.37Z"/>
          <path class="cls-7" d="m370.06,66.99c-3.55,3.34-7.1,6.68-10.93,10.29-.29-4.25,5.8-10.1,10.93-10.29Z"/>
          <path class="cls-7" d="m367.47,109.93c4.76-1.28,10.1,1.25,10.73,4.5-3.63-1.52-7.18-3.01-10.73-4.5Z"/>
          <path class="cls-7" d="m340.67,103.35c2.88-2.88,7.23-2.33,10.13,1.05-3.7-.39-6.92-.72-10.13-1.05Z"/>
          <path class="cls-7" d="m344.73,145.47c-.46-.65-.78-1.34-.75-1.89.24-.23.63-.02.89.19.96.77,1.8,1.7,2.85,2.35.32.2.66.38,1.02.47.35.09.71.09,1.07.09,2.48.01,4.91-.08,7.36-.45.1-.01.21-.03.28.04.06.06.07.15.06.24-.06.63-.74.99-1.34,1.19-2.03.7-4.3,1.38-6.44,1-1.02-.19-2.02-.55-2.89-1.11-.6-.38-1.49-1.23-2.12-2.12Z"/>
          <path class="cls-7" d="m341.41,120.67c-.17-1.14-.64-2.36-.38-3.39.14-.54,1.56-.76,2.4-1.12.24.24.48.48.72.72-.43,1.25-.86,2.5-1.29,3.75-.48.01-.97.03-1.45.04Z"/>
          <path class="cls-7" d="m369.84,122.17c.6,1.62,1.26,2.5,1.09,3.17-.19.72-1.15,1.25-1.78,1.85-.5-.74-1.4-1.49-1.39-2.23,0-.7.97-1.38,2.09-2.79Z"/>
          <path class="cls-7" d="m395.07,138.59c.79.04,1.58.08,2.68.14-.34.65-.53,1.35-.74,1.36-.75.03-1.51-.18-2.27-.3.11-.4.23-.8.34-1.2Z"/>
          <g>
            <path class="cls-9" d="m544.4,437.29l-116.35-16.62,6.66-30.79c2.96-13.7,15.41-23.37,27.8-21.6l71.47,10.21c12.39,1.77,20.04,14.31,17.07,28.01l-6.66,30.79Z"/>
            <g>
              <ellipse class="cls-7" cx="456.98" cy="393.37" rx="12.85" ry="11.24" transform="translate(-98.24 628.53) rotate(-63.68)"/>
              <path class="cls-6" d="m460.29,378.02c-7.77-1.11-15.58,4.96-17.44,13.55s2.94,16.46,10.71,17.57,15.58-4.96,17.44-13.55-2.94-16.46-10.71-17.57Zm4.74,21.35c-1.16-1.6-3.51-4.11-7.27-4.87,4.04-1.13,7.34.13,8.99,1.01-.36,1.4-.96,2.7-1.72,3.86Zm-16.66,1.23c1.9-.77,5.07-2.49,7.42-6-1.06,4.16-3.62,6.97-5.2,8.37-.88-.64-1.63-1.45-2.23-2.37Zm.26-12.52c1.12,1.59,3.5,4.21,7.36,5-4.04,1.14-7.35-.14-9-1.02.32-1.44.89-2.79,1.63-3.98Zm8.65,6.15c-.07.02-.14.04-.2.06l.02.1c-.08-.01-.15-.02-.23-.03l-.02.09c-.06-.04-.11-.07-.17-.11l-.05.09c-.04-.07-.08-.14-.12-.21l-.07.05c-.01-.07-.02-.14-.04-.22l-.09.03c.02-.09.04-.17.06-.26h-.08c.04-.08.08-.14.12-.21l-.08-.05c.07-.05.14-.1.21-.16l-.04-.07c.07-.02.14-.04.2-.06l-.02-.1c.08.01.15.02.23.03l.02-.09c.06.04.11.07.17.11l.05-.09c.04.07.08.14.12.21l.07-.05c.01.07.02.14.04.22l.09-.03c-.02.09-.04.17-.06.26h.08c-.04.08-.08.14-.12.21l.08.05c-.07.05-.14.1-.2.16l.04.07Zm.35-1.47c-.65-4.44,1.02-8.3,2-10.11,1.31.24,2.49.75,3.5,1.47-1.58,1.36-4.35,4.26-5.51,8.64Zm-.43-.31c-2.03-3.68-1.71-7.71-1.36-9.7,1.11-.26,2.26-.32,3.41-.16-.99,1.86-2.54,5.57-2.05,9.86Zm-.41.11c-3.38-2.28-4.62-5.96-5.05-7.88,1.13-.84,2.38-1.47,3.69-1.83-.34,2.07-.61,6.04,1.36,9.71Zm-.54.14c-3.93-.74-6.31-3.45-7.37-4.99.71-1.06,1.56-1.99,2.52-2.76.46,1.95,1.69,5.44,4.85,7.75Zm-9.34-.2c.94.49,2.35,1.08,4.1,1.33,1.37.2,2.94.18,4.65-.24-3.47,2.49-7.01,2.68-8.89,2.54-.14-1.16-.1-2.38.14-3.63Zm8.81,1.53c-2.36,3.74-5.68,5.49-7.57,6.24-.66-1.1-1.11-2.36-1.32-3.71,1.95.12,5.44-.11,8.89-2.53Zm.4.8c.6,4.14-.81,7.77-1.8,9.72-1.26-.21-2.41-.68-3.41-1.34,1.61-1.45,4.11-4.26,5.21-8.37Zm.43.31c1.9,3.44,1.74,7.19,1.43,9.29-1.07.24-2.17.31-3.27.17.98-1.96,2.3-5.46,1.84-9.46Zm.41-.11c3.22,2.17,4.49,5.6,4.98,7.58-1.09.79-2.3,1.38-3.56,1.72.3-2.16.42-5.87-1.42-9.3Zm.54-.14c3.81.72,6.16,3.29,7.27,4.85-.71,1-1.55,1.88-2.49,2.61-.51-1.99-1.77-5.27-4.78-7.46Zm.58-.89c3.55-2.55,7.17-2.68,9.02-2.53.09,1.14.02,2.33-.24,3.54,0,.03-.01.06-.02.08-1.67-.88-4.86-2.05-8.76-1.09Zm-.06-.43c2.48-3.93,6.01-5.67,7.84-6.34.62,1.14,1.04,2.44,1.2,3.82-1.92-.14-5.5.04-9.04,2.52Zm7.64-6.69c-1.86.71-5.23,2.42-7.71,6.11,1.13-4.44,3.97-7.34,5.49-8.63.88.69,1.63,1.54,2.21,2.52Z"/>
              <ellipse class="cls-6" cx="456.93" cy="393.58" rx="3.43" ry="3" transform="translate(-98.46 628.6) rotate(-63.68)"/>
              <ellipse class="cls-8" cx="456.93" cy="393.58" rx="3" ry="2.62" transform="translate(-98.46 628.6) rotate(-63.68)"/>
            </g>
            <g>
              <ellipse class="cls-7" cx="493.01" cy="398.52" rx="12.85" ry="11.24" transform="translate(-82.8 663.69) rotate(-63.68)"/>
              <path class="cls-5" d="m496.32,383.17c-7.77-1.11-15.58,4.96-17.44,13.55s2.94,16.46,10.71,17.57,15.58-4.96,17.44-13.55c1.86-8.59-2.94-16.46-10.71-17.57Zm4.74,21.35c-1.16-1.6-3.51-4.11-7.27-4.87,4.04-1.13,7.34.13,8.99,1.01-.36,1.4-.96,2.7-1.72,3.86Zm-16.66,1.23c1.9-.77,5.07-2.49,7.42-6-1.06,4.16-3.62,6.97-5.2,8.37-.88-.64-1.63-1.45-2.23-2.37Zm.26-12.52c1.12,1.59,3.5,4.21,7.36,5-4.04,1.14-7.35-.14-9-1.02.32-1.44.89-2.79,1.63-3.98Zm8.65,6.15c-.07.02-.14.04-.2.06l.02.1c-.08-.01-.15-.02-.23-.03l-.02.09c-.06-.04-.11-.07-.17-.11l-.05.09c-.04-.07-.08-.14-.12-.21l-.07.05c-.01-.07-.02-.14-.04-.22l-.09.03c.02-.09.04-.17.06-.26h-.08c.04-.08.08-.14.12-.21l-.08-.05c.07-.05.14-.1.21-.16l-.04-.07c.07-.02.14-.04.2-.06l-.02-.1c.08.01.15.02.23.03l.02-.09c.06.04.11.07.17.11l.05-.09c.04.07.08.14.12.21l.07-.05c.01.07.02.14.04.22l.09-.03c-.02.09-.04.17-.06.26h.08c-.04.08-.08.14-.12.21l.08.05c-.07.05-.14.1-.2.16l.04.07Zm.35-1.47c-.65-4.44,1.02-8.3,2-10.11,1.31.24,2.49.75,3.5,1.47-1.58,1.36-4.35,4.26-5.51,8.64Zm-.43-.31c-2.03-3.68-1.71-7.71-1.36-9.7,1.11-.26,2.26-.32,3.41-.16-.99,1.86-2.54,5.57-2.05,9.86Zm-.41.11c-3.38-2.28-4.62-5.96-5.05-7.88,1.13-.84,2.38-1.47,3.69-1.83-.34,2.07-.61,6.04,1.36,9.71Zm-.54.14c-3.93-.74-6.31-3.45-7.37-4.99.71-1.06,1.56-1.99,2.52-2.76.46,1.95,1.69,5.44,4.85,7.75Zm-9.34-.2c.94.49,2.35,1.08,4.1,1.33,1.37.2,2.94.18,4.65-.24-3.47,2.49-7.01,2.68-8.89,2.54-.14-1.16-.1-2.38.14-3.63Zm8.81,1.53c-2.36,3.74-5.68,5.49-7.57,6.24-.66-1.1-1.11-2.36-1.32-3.71,1.95.12,5.44-.11,8.89-2.53Zm.4.8c.6,4.14-.81,7.77-1.8,9.72-1.26-.21-2.41-.68-3.41-1.34,1.61-1.45,4.11-4.26,5.21-8.37Zm.43.31c1.9,3.44,1.74,7.19,1.43,9.29-1.07.24-2.17.31-3.27.17.98-1.96,2.3-5.46,1.84-9.46Zm.41-.11c3.22,2.17,4.49,5.6,4.98,7.58-1.09.79-2.3,1.38-3.56,1.72.3-2.16.42-5.87-1.42-9.3Zm.54-.14c3.81.72,6.16,3.29,7.27,4.85-.71,1-1.55,1.88-2.49,2.61-.51-1.99-1.77-5.27-4.78-7.46Zm.58-.89c3.55-2.55,7.17-2.68,9.02-2.53.09,1.14.02,2.33-.24,3.54,0,.03-.01.06-.02.08-1.67-.88-4.86-2.05-8.76-1.09Zm-.06-.43c2.48-3.93,6.01-5.67,7.84-6.34.62,1.14,1.04,2.44,1.2,3.82-1.92-.14-5.5.04-9.04,2.52Zm7.64-6.69c-1.86.71-5.23,2.42-7.71,6.11,1.13-4.44,3.97-7.34,5.49-8.63.88.69,1.63,1.54,2.21,2.52Z"/>
              <ellipse class="cls-5" cx="492.96" cy="398.72" rx="3.43" ry="3" transform="translate(-83.02 663.76) rotate(-63.68)"/>
              <ellipse class="cls-8" cx="492.96" cy="398.72" rx="3" ry="2.62" transform="translate(-83.02 663.76) rotate(-63.68)"/>
            </g>
            <g>
              <ellipse class="cls-7" cx="529.04" cy="403.66" rx="12.85" ry="11.24" transform="translate(-67.36 698.84) rotate(-63.68)"/>
              <path class="cls-4" d="m532.35,388.31c-7.77-1.11-15.58,4.96-17.44,13.55s2.94,16.46,10.71,17.57c7.77,1.11,15.58-4.96,17.44-13.55s-2.94-16.46-10.71-17.57Zm4.74,21.35c-1.16-1.6-3.51-4.11-7.27-4.87,4.04-1.13,7.34.13,8.99,1.01-.36,1.4-.96,2.7-1.72,3.86Zm-16.66,1.23c1.9-.77,5.07-2.49,7.42-6-1.06,4.16-3.62,6.97-5.2,8.37-.88-.64-1.63-1.45-2.23-2.37Zm.26-12.52c1.12,1.59,3.5,4.21,7.36,5-4.04,1.14-7.35-.14-9-1.02.32-1.44.89-2.79,1.63-3.98Zm8.65,6.15c-.07.02-.14.04-.2.06l.02.1c-.08-.01-.15-.02-.23-.03l-.02.09c-.06-.04-.11-.07-.17-.11l-.05.09c-.04-.07-.08-.14-.12-.21l-.07.05c-.01-.07-.02-.14-.04-.22l-.09.03c.02-.09.04-.17.06-.26h-.08c.04-.08.08-.14.12-.21l-.08-.05c.07-.05.14-.1.21-.16l-.04-.07c.07-.02.14-.04.2-.06l-.02-.1c.08.01.15.02.23.03l.02-.09c.06.04.11.07.17.11l.05-.09c.04.07.08.14.12.21l.07-.05c.01.07.02.14.04.22l.09-.03c-.02.09-.04.17-.06.26h.08c-.04.08-.08.14-.12.21l.08.05c-.07.05-.14.1-.2.16l.04.07Zm.35-1.47c-.65-4.44,1.02-8.3,2-10.11,1.31.24,2.49.75,3.5,1.47-1.58,1.36-4.35,4.26-5.51,8.64Zm-.43-.31c-2.03-3.68-1.71-7.71-1.36-9.7,1.11-.26,2.26-.32,3.41-.16-.99,1.86-2.54,5.57-2.05,9.86Zm-.41.11c-3.38-2.28-4.62-5.96-5.05-7.88,1.13-.84,2.38-1.47,3.69-1.83-.34,2.07-.61,6.04,1.36,9.71Zm-.54.14c-3.93-.74-6.31-3.45-7.37-4.99.71-1.06,1.56-1.99,2.52-2.76.46,1.95,1.69,5.44,4.85,7.75Zm-9.34-.2c.94.49,2.35,1.08,4.1,1.33,1.37.2,2.94.18,4.65-.24-3.47,2.49-7.01,2.68-8.89,2.54-.14-1.16-.1-2.38.14-3.63Zm8.81,1.53c-2.36,3.74-5.68,5.49-7.57,6.24-.66-1.1-1.11-2.36-1.32-3.71,1.95.12,5.44-.11,8.89-2.53Zm.4.8c.6,4.14-.81,7.77-1.8,9.72-1.26-.21-2.41-.68-3.41-1.34,1.61-1.45,4.11-4.26,5.21-8.37Zm.43.31c1.9,3.44,1.74,7.19,1.43,9.29-1.07.24-2.17.31-3.27.17.98-1.96,2.3-5.46,1.84-9.46Zm.41-.11c3.22,2.17,4.49,5.6,4.98,7.58-1.09.79-2.3,1.38-3.56,1.72.3-2.16.42-5.87-1.42-9.3Zm.54-.14c3.81.72,6.16,3.29,7.27,4.85-.71,1-1.55,1.88-2.49,2.61-.51-1.99-1.77-5.27-4.78-7.46Zm.58-.89c3.55-2.55,7.17-2.68,9.02-2.53.09,1.14.02,2.33-.24,3.54,0,.03-.01.06-.02.08-1.67-.88-4.86-2.05-8.76-1.09Zm-.06-.43c2.48-3.93,6.01-5.67,7.84-6.34.62,1.14,1.04,2.44,1.2,3.82-1.92-.14-5.5.04-9.04,2.52Zm7.64-6.69c-1.86.71-5.23,2.42-7.71,6.11,1.13-4.44,3.97-7.34,5.49-8.63.88.69,1.63,1.54,2.21,2.52Z"/>
              <ellipse class="cls-4" cx="528.99" cy="403.87" rx="3.43" ry="3" transform="translate(-67.58 698.91) rotate(-63.68)"/>
              <ellipse class="cls-8" cx="528.99" cy="403.87" rx="3" ry="2.62" transform="translate(-67.58 698.91) rotate(-63.68)"/>
            </g>
          </g>
          <g>
            <path class="cls-7" d="m188.23,213.76l-4.52-16.76c-.31-.02-.63-.05-.94-.07-1.05,3.44-4.36,6.07-2.75,10.48.82,2.26.3,5.57,1.76,6.87,1.55,1.38,4.72.95,7.18,1.32,3.49.52,7.74.7,11.04,1.93,1.91.71,3.65,2.46,3.49,4.49-.12,1.5-1.25,2.77-2.59,3.46-1.33.69-2.86.91-4.35,1.13,1.43,1.49,1.2,4.07-.11,5.67s-3.41,2.35-5.47,2.59c5.22,5.74,3.41,12.96,2.91,20-.57,8.01-1.26,16.02-1.72,24.03-1.47,25.64-2.04,51.29.96,76.87.54,4.58,1.68,9.09,2.53,13.64.19,1,.29,2.02.43,3.03l-1.12.39c-.5-1.34-1.26-2.65-1.45-4.04-1.34-9.75-2.97-19.48-3.74-29.27-1.74-22.3-1.22-44.63.49-66.92.77-10.06,1.57-20.13,2.34-30.19.06-.8,0-1.6,0-2.95-4.08.83-7.88,1.52-11.62,2.44-.61.15-1.29,1.3-1.38,2.06-1.27,9.87-2.16,19.8-3.74,29.62-1.14,7.05.34,13.37,3.21,19.66,1.62,3.55,3.14,7.19,4.28,10.91.6,1.96,1.16,4.71.26,6.22-2.93,4.93-.97,9.66-.32,14.45,1.61,11.87,3.32,23.73,5.05,35.58.44,3.05,1.25,6.05,1.56,9.11.17,1.76-.34,3.58-1.33,5.34-2.76-18.6-5.53-37.2-8.3-55.88-4.57,2.92-8.31,5.86-12.5,7.86-7.69,3.67-15.58,6.94-23.52,10.04-2.46.96-3.71,2.24-4.08,4.71-1.59,10.8-3.2,21.6-4.87,32.39-.15.96-.84,1.84-1.29,2.75-.43-1.03-1.35-2.13-1.22-3.09,1.27-9.41,2.64-18.8,4.13-28.18,2.33-14.64,4.68-29.29,7.22-43.9.87-5.01,2.12-9.99,3.59-14.87,4.2-13.99,3.41-28.18,2.18-42.42-.15-1.75-.72-3.32-2.7-2.69-.64.21-.96,2.22-1,3.42-.2,5.88.21,11.82-.59,17.6-.33,2.38-2.68,5.32-4.91,6.47-20.43,10.61-40.95,21.05-61.66,31.11-4.25,2.06-9.36,2.43-14.12,3.3-2.04.37-3.27.82-3.28,3.2-.1,16.58-3.09,32.83-5.62,49.13-1.15,7.39.54,11.2,7.58,13.76,6.74,2.45,13.96,3.57,20.97,5.31,2.02.5,4.02,1.1,6.03,1.66-.06.42-.13.84-.19,1.26-.84.11-1.72.44-2.5.28-6.98-1.39-13.95-2.84-20.9-4.36-1.49-.33-2.94-.95-4.35-1.57-7.07-3.14-10.04-8.32-9.01-15.96,1.68-12.47,3.53-24.91,5.14-37.39.56-4.35.74-8.75.82-13.14.02-.83-1.09-2.13-1.96-2.45-9.12-3.29-12.95-10.04-13.52-19.37-1.17-18.96-2.85-37.89-3.79-56.85-.76-15.29-1.53-30.65-.82-45.92.6-12.97,2.94-25.9,5.17-38.73,1.48-8.5,6.97-14.5,15.03-17.69,8.04-3.19,16.26-5.92,24.34-9.03,1.34-.51,2.41-1.83,3.47-2.9.64-.66.86-1.8,1.56-2.32,4.23-3.12,8.54-6.13,12.82-9.17.36.39.72.78,1.08,1.18-.92.95-1.72,2.08-2.79,2.82-2.73,1.88-5.65,3.48-8.36,5.39-2.12,1.5-2.39,3.45-1.26,5.93,1.66,3.66,2.98,7.49,4.32,11.29.56,1.6,5.93,11.35,4.34,12.25,1.58-.89,3.17-1.78,4.75-2.67.66-.37,1.35-.75,2.1-.83.61-.06,1.22.07,1.82.21,3.34.76,6.9,1.64,9.23,4.15.85.92,1.46,2.45.58,3.34-1.51-1.23-3.03-2.46-4.54-3.69-1-.81-2.03-1.64-3.26-2.01-2.53-.75-5.22.64-7.18,2.41-1.96,1.77-3.55,3.98-5.77,5.41-.41-8.67-3.59-16.3-6.42-24.37-.39-1.12-.55-2.43-1.25-3.3-.57-.71-1.99-1.45-2.7-1.21-9.3,3.2-18.65,6.3-27.76,9.99-6.57,2.66-10.37,8.11-11.98,15-4.39,18.73-6.01,37.74-5.25,56.93.92,23.49,1.98,46.98,3.27,70.45.36,6.61,1.37,13.24,2.7,19.73,1.5,7.29,7.95,11.76,15.36,11.73,8.6-.04,16.32-3.31,23.74-6.94,17.15-8.38,33.99-17.4,51.06-25.96,4.7-2.36,7.07-5.73,6.9-10.94-.15-4.26-.17-8.54-.47-12.79-.22-3.01-.77-3.3-4.59-3.4-.27,6.06,1.75,12.43-2.06,18.2v-15.12c-.32-.13-.64-.26-.97-.39-2.06,3.05-4.29,6.01-6.07,9.22-.4.72.52,2.47,1.22,3.46,2.43,3.4,5.7,5.53,10.74,5.47-4.96,2.48-9.24,1.34-12.04-3.59-2.91-5.12-5.5-10.53-7.32-16.1-1.49-4.55-1.8-9.52-2.34-14.34-.36-3.24-1.16-4.03-3.93-2.32-8.28,5.11-16.5,10.34-24.64,15.66-9.54,6.24-18.96,12.65-28.46,18.95-.8.53-1.79.75-2.7,1.12-.2-.3-.4-.6-.6-.89.65-.65,1.22-1.42,1.97-1.92,6.09-4.12,12.25-8.13,18.27-12.35,1.01-.7,1.96-2.22,2.03-3.41.93-15.64,1.77-31.29,2.45-46.95.28-6.4.09-12.81.17-19.22.01-.94.32-1.87.49-2.8.36-.01.71-.02,1.07-.03.27,1.14.81,2.28.78,3.41-.33,12.21-.64,24.43-1.18,36.64-.38,8.54-1.11,17.07-1.65,25.6-.06.92.11,1.86.22,3.5,1.89-.99,3.45-1.65,4.85-2.57,7.43-4.9,14.67-10.11,22.29-14.7,2.99-1.8,6.78-2.26,10.18-3.42,1.31-.44,2.75-.88,3.75-1.75,3.39-2.97,6.56-6.19,9.9-9.21,4.11-3.73,8.89-6.01,14.32-7.51,6.82-1.88,13.39-4.69,20.07-7.1,2.37-.85,2.58-2.2,1.44-4.4-5.17-10.01-10.28-20.05-15.25-30.16-1.28-2.61-2.77-3.04-5.36-2.01-5.04,2.01-10.28,2.94-15.71,1.91-1.19-.23-2.32-.79-3.45-1.81,7.22.02,14.42.61,21.51-3.32-.19.11-8.27-17.23-8.19-19.64.02-.66.13-1.38.64-1.8.55-.44,1.35-.34,2.04-.19,2.29.5,4.52,1.28,6.62,2.33,1.45.73,2.99,1.79,3.22,3.39-.48.3-1.09-.06-1.55-.39-1.98-1.39-4.33-2.26-6.74-2.51-.76-.08-1.62-.06-2.17.47-1.32,1.28,10.81,22,12.23,24.83,4.84,9.63,9.57,19.31,14.49,28.9.43.84,1.89,1.51,2.93,1.59,1.47.1,2.99-.42,5.16-.78-8.28-26.22-19.8-50.67-35.03-74-3.73,4.82-3.76,10.38-5.77,15.65-.23-1.1-.92-2.34-.62-3.26,1.54-4.8,3.05-9.65,5.14-14.22,1.55-3.4,1.61-3.75-1.66-5.75-5.64-3.45-11.14-7.14-16.63-10.82-.97-.65-1.61-1.78-2.41-2.68.23-.28.47-.56.7-.84,1.18.8,2.49,1.46,3.51,2.42,6.44,6.11,14.23,9.97,22.56,12.4,5.82,1.71,10.78-1.39,14.35-5.9,6.9-8.71,11.47-18.31,9.65-29.9-.05-.34,0-.71.1-1.05.05-.19.29-.32.97-1.03.61,1.39,1.53,2.54,1.56,3.71.36,13.65-4.38,25.27-15.25,33.63-2.86,2.2-7.53,2.04-11.37,2.98-1.06.26-2.87.34-3.02.87-.33,1.19-.33,3.11.41,3.86,2.99,3,6.06,6.07,9.57,8.39,9.98,6.6,12.69,16.17,12.47,27.38-.06,2.82,1.21,5.73,2.14,8.51,5.12,15.27,10.34,30.51,15.45,45.79.42,1.25.3,2.69.43,4.04-.44.11-.87.22-1.31.34Zm-10.51,26.41c3.12-.45,6.97-.19,9.71-1.83.38-.23.75-.49.99-.86.49-.77.26-1.84-.35-2.51-.74-.81-6.46-3.13-7.51-2.38.97-.71,1.94-.83,2.91-.83,2.71,0,8.81,1.28,10.53-1.56.85-1.4.16-3.62-1.45-3.95,1.65-.46,3.28-.97,4.9-1.53.68-.24,1.41-.51,1.81-1.12.53-.8.27-1.94-.37-2.67s-1.56-1.12-2.47-1.46c-5.65-2.07-12.48-2.26-18.42-3.15-4.87-.73-9.76-1.33-15.34-2.09,1.13-1.66,1.62-2.97,2.57-3.66,3.25-2.35,6.6-4.57,10.02-6.66,2.76-1.69,4.38-3.99,5.49-8.11-2.75.86-4.6,1.36-6.41,2.02-7.56,2.75-14.96,6.09-22.7,8.16-5.82,1.56-10.94,3.7-15.2,7.92-1.94,1.92-3.68,4.17-5.94,5.61-7.18,4.55-8.87,10.76-6.38,18.52,1.41,4.41,2.82,8.82,4.5,14.1,2.2-3.34,3.75-5.55,5.16-7.86,2.71-4.43,6.45-6.05,11.69-5.43,7.65.9,15.35,1.38,23.05,1.8,3.05.17,6.18-.04,9.21-.48Zm-36.95,95.34c3.93-1.49,6.89-2.38,9.64-3.69,7.79-3.72,15.69-7.28,23.19-11.54,7.45-4.22,9.72-11.17,6.77-19.14-1.58-4.29-3.77-8.35-5.69-12.52-2.67,5.73,1.41,10.06,1.88,15.13-1.1-.67-2.01-1.43-2.5-2.39-2.42-4.77-3.53-9.8-2.65-15.16,1.51-9.12,3.18-18.22,4.51-27.37.74-5.07.94-10.21,1.36-14.95-7.72-.69-14.54-1.33-21.36-1.89-4.18-.34-4.23-.26-3.82,3.94,1.17,11.97,1.7,23.97-.61,35.82-2.01,10.34-4.96,20.5-7.1,30.82-1.5,7.27-2.34,14.68-3.62,22.94Zm28.1-182.95c1.03-10.33-4.13-20.71-12.69-22.81,4.14,7.45,8.2,14.74,12.69,22.81Zm-1.44,58.63c.16.44.32.89.48,1.33,1.81.15,3.64.18,5.43.47,5.14.82,5.5.52,4.64-4.6-.13-.78-.44-1.54-.88-3.02-3.42,2.06-6.54,3.94-9.66,5.81Z"/>
            <path class="cls-7" d="m106.16,104.1c3.05,1.87,39,93.54,38.77,99.4-.62-.85-1.45-1.61-1.81-2.56-4.24-11.06-8.32-22.19-12.61-33.23-7.52-19.32-15.18-38.59-22.74-57.9-.65-1.65-.97-3.42-1.6-5.72Z"/>
            <path class="cls-7" d="m150.47,95.89c1.06-.74,1.88-1.78,2.79-1.88,3.98-.41,7.98-.66,11.98-.65.71,0,2.2,1.92,2.01,2.31-1.5,3.11-2.81,6.58-5.18,8.93-2.93,2.89-5.86,2.16-8.19-1.36-1.33-2.02-2.08-4.42-3.41-7.35Zm13.74.67c-2.46,0-4.65-.05-6.85.02-1.09.04-2.18.3-3.27.45.52,1.6.81,3.34,1.66,4.75.56.92,2.31,2.15,2.86,1.88,2.69-1.34,5.64-2.74,5.6-7.1Z"/>
            <path class="cls-7" d="m67.36,136.01c5.36,1.63,15.85,18.92,15.07,24.78-4.99-8.21-10.01-16.47-15.07-24.78Z"/>
            <path class="cls-7" d="m162.66,70.13c1.1,3.53,2.44,7,3.22,10.6.56,2.58.02,5.13-3.91,5.76,2.9-4.19.51-7.73-.54-11.49-.43-1.53.06-3.32.14-4.99.36.04.73.08,1.09.11Z"/>
            <path class="cls-7" d="m116.79,104.11c-3.26-1.52-6.59-2.93-9.02-5.86-.24-.29-.1-1.1.13-1.51.16-.27.98-.51,1.19-.35,2.87,2.15,5.68,4.37,8.51,6.57-.27.38-.54.77-.81,1.15Z"/>
            <path class="cls-7" d="m149.58,71.02c-.45,1.93-.8,3.46-1.15,4.98-.86-.43-2.28-.69-2.49-1.34-.7-2.16.55-3.24,3.64-3.65Z"/>
            <path class="cls-7" d="m173.06,70.15c-1.07,1.2-1.78,2-2.49,2.79-.58-.7-1.68-1.47-1.61-2.1.1-.91,1.06-1.72,1.65-2.58.69.53,1.38,1.07,2.45,1.88Z"/>
            <g>
              <path class="cls-7" d="m99.38,30.94c.71-.64,1.25-1.29,1.92-1.69,1.23-.73,2.14-1.76,2.83-3.12,1.5-2.97,3.04-5.9,4.54-8.86,2.04-4,4.65-7.35,8.01-10.01,4.29-3.41,9.01-5.47,14.1-6.53,1.01-.21,2.13-.61,2.8.79-.16,1.23-.81,1.59-1.78,1.78-3.68.71-7.25,1.84-10.63,3.71-4.44,2.46-7.9,6.11-10.39,11-1.74,3.42-3.55,6.8-5.33,10.19-.74,1.4-1.69,2.53-3.06,3.15-.97.44-1.9.55-3.02-.41Z"/>
              <path class="cls-7" d="m138.61.3c.76-.44,1.53-.37,2.27.05,2.21,1.26,4.61,1.35,6.99,1.51,1.99.14,4-.02,5.99.11,1.58.1,3.18.29,4.72.72,2.46.69,4.42,2.45,6.16,4.47,1.07,1.24,1.96,2.69,2.92,4.05.54.77.67,1.61.34,2.51-1.12.47-1.65-.38-2.22-1.11-1.06-1.37-2.12-2.73-3.18-4.1-.04-.06-.1-.11-.14-.16-2-2.49-4.49-3.67-7.44-3.67-2,0-4,.02-5.99-.08-1.92-.09-3.84-.26-5.76-.49-1.34-.16-2.57-.77-3.64-1.74-.56-.51-1.2-1.02-1.03-2.08Z"/>
              <path class="cls-7" d="m106.49,70.35c-.31-3.83,2.28-8.45,6.33-9.24,1.98-.39,3.68.28,5.04,1.99.22.28.39.62.53.96.23.58.35,1.24-.17,1.66-.51.42-1.01.14-1.43-.31-.05-.05-.1-.1-.15-.15-1.07-1.32-2.32-2.02-3.93-1.45-1.77.63-2.96,1.98-3.67,3.9-.8,2.17-.5,4.37.2,6.45,1.11,3.33,2.76,6.26,5.45,8.23.54.4,1.14.73,1.74,1,.88.39,1.16.8.96,1.61-.22.89-.85,1.23-1.75.73-1.19-.67-2.44-1.33-3.43-2.3-3.49-3.42-5.33-7.86-5.71-13.08Z"/>
              <path class="cls-7" d="m134.71,52.34c.65-.03,1.3-.13,1.94-.08,4.94.39,8.71-2.12,11.79-6.26,1.26-1.7,2.65-3.21,4.35-4.27,1.91-1.18,3.93-1.85,6.1-.94.31.13.71.16.9.41.27.36.58.89.53,1.31-.06.66-.57.99-1.19.89-.2-.03-.38-.12-.58-.17-2.55-.7-4.72.09-6.55,2.18-.7.8-1.37,1.65-2.04,2.49-2.66,3.32-5.73,5.89-9.67,6.76-1.22.27-2.5.3-3.75.25-1.19-.04-1.66-.78-1.84-2.57Z"/>
              <path class="cls-7" d="m98.17,36.5c.66,1.39.44,2.64.24,3.9-.43,2.68-.98,5.32-1.08,8.07-.13,3.84.76,7.34,2.14,10.76.3.75.6,1.52.83,2.31.25.91.22.93-.68,2.28-.33-.33-.72-.6-.96-.99-1.7-2.87-2.58-6.13-3.22-9.47-.89-4.72-.21-9.34.81-13.93.26-1.16.53-2.36,1.92-2.93Z"/>
              <path class="cls-7" d="m182.38,33.45c-1.9.74-2.18.53-2.22-1.56-.02-1.22-.01-2.44-.1-3.65-.14-2.08-.88-3.79-2.5-4.92-1.41-.99-2.85-1.96-4.17-3.09-.78-.67-1.41-1.6-2.01-2.49-.25-.38-.37-.98-.34-1.47.06-1.05.81-1.37,1.57-.74.05.04.11.09.15.15,1.53,2.39,3.74,3.79,5.84,5.39,2.13,1.62,3.35,3.96,3.61,7.01.15,1.81.44,3.59.17,5.38Z"/>
              <path class="cls-7" d="m107.38,86.32c-1.17-.13-1.43-1.04-1.56-2.06-.46-3.5-1.64-6.72-2.98-9.86-.93-2.18-1.98-4.3-2.94-6.47-.29-.65-.72-1.32-.34-2.12,1.44-.26,1.58-.25,2.2,1.08,1.34,2.88,2.62,5.8,3.91,8.71,1.06,2.38,1.93,4.83,2.27,7.5.15,1.17,0,2.22-.55,3.21Z"/>
              <path class="cls-7" d="m168.46,43.68c-1.02-.26-1.26-1.06-1.55-1.83-.5-1.32-1.01-2.64-1.58-3.93-1.33-3.02-3.04-5.69-5.38-7.82-.71-.65-1.3-1.49-1.89-2.3-.12-.16-.11-.68.02-.8.21-.21.56-.33.85-.32.24,0,.47.25.69.41,3.68,2.69,6.47,6.26,8.22,10.87.37.97.75,1.95,1.08,2.94.32.97.32,1.91-.45,2.78Z"/>
              <path class="cls-7" d="m126.19,64.94c.22-1.28.61-1.75,1.41-1.82,1.19-.11,2.39-.21,3.56-.48,2.37-.54,4.55-1.65,6.53-3.25.54-.44,1.07-.91,1.65-1.26.24-.14.75-.16.88.02.22.29.39.85.29,1.17-.17.54-.5,1.09-.88,1.47-3.46,3.31-7.46,4.87-11.96,4.68-.48-.02-.95-.32-1.48-.52Z"/>
              <path class="cls-7" d="m183.34,34.86c1.49.26,1.83.57,1.95,1.86.24,2.63-.11,5.16-1.28,7.48-.4.79-.87,1.53-1.34,2.27-.92,1.44-1.04,1.47-3.01.91,1.07-1.96,2.2-3.82,3.12-5.8.96-2.08.35-4.47.56-6.72Z"/>
              <path class="cls-7" d="m124.74,73.65c-.32,0-.52.02-.72,0-.95-.12-1.59-.66-1.63-1.36-.04-.66.59-1.28,1.6-1.3,2.06-.04,3.91-.65,5.57-2.09.44-.39,1.09-.55,1.67-.63.81-.11,1.19.68.78,1.51-.13.26-.3.51-.5.7-2.01,1.88-4.27,3.03-6.77,3.18Z"/>
              <path class="cls-7" d="m112.45,71.52c1.11-1.09,1.43-1.22,2.42-.34.82.73,1.51,1.67,2.21,2.58.2.25.33.72.28,1.05-.06.4-.27.87-.55,1.09-.19.15-.6-.05-.91-.13-.12-.03-.22-.16-.31-.27-1.02-1.28-2.03-2.57-3.13-3.97Z"/>
              <path class="cls-10" d="m106.51,15.9c-.71.72-1.37,1.56-1.97,2.52-2.12,3.38-3.93,7.31-7.13,9.25-7.42,4.48-6.16,20.57-4.22,28.67,1.48,6.19,4.17,11.89,6.25,17.85,2.08,5.96,3.56,12.48,2.45,18.78.15-.84,3.41-3.44,4.03-4.57,1.23-2.25,1.6-4.55,1.91-7.12.62-5-1.16-9.96-.25-14.85.5-2.66,2.13-5.24,4.45-5.79,2.49-.59,5.01,1.32,6.36,3.8,1.35,2.48,1.82,5.43,2.39,8.28.23,1.16.54,2.42,1.38,3.12,1.2,1,2.88.43,4.2-.32,5.52-3.15,9.6-8.8,13.5-14.28,1.03-1.44,2.07-2.93,2.63-4.68.36-1.14.59-2.51,1.51-3.12.73-.48,1.63-.31,2.47-.36,4.97-.29,6.77-7.98,11.11-10.78,3.87-2.5,8.68-.53,12.76,1.47.22-1.76,2.09-2.72,3.61-2.36,3.04.73,8.98,10.27,6.46,13.69,1.84-2.49,3.5-5.25,4.3-8.4.8-3.14.63-6.73-.97-9.44-1.6-2.71-4.8-4.23-7.45-3.05-.74-7.54-1.68-12.29-6.67-17.51-8.1-8.5-20.68-12.19-31.47-10.65-4.43.63-8.74,2.44-13.1,3.49-6.4,1.54-13.63,1.34-18.54,6.36Z"/>
            </g>
            <path class="cls-7" d="m168.89,59.23c1.87-.32,3.73.51,5.41,1.39.51.27,1.03.56,1.35,1.04-.02-.59-.34-1.13-.71-1.58-1.1-1.37-2.82-2.21-4.58-2.26-1.76-.05-3.52.71-4.69,2.02-.28.32-.44.62-.32,1.01,1.22-.47,2.18-1.38,3.54-1.61Z"/>
            <path class="cls-7" d="m141.9,61.97c2.34-.98,5.02-.47,7.48.17.74.19,1.52.42,2.07.95-.21-.76-.78-1.37-1.4-1.85-1.85-1.45-4.35-2.03-6.65-1.56s-4.37,1.99-5.5,4.05c-.27.5-.38.94-.11,1.42,1.45-.98,2.42-2.46,4.12-3.18Z"/>
          </g>
          <path class="cls-1" d="m194.8,240.43c-.26-2.64-2.22-5.03-4.75-5.82,1.42-.53,2.88-1.07,4.03-2.06s1.94-2.55,1.6-4.03c-.08-.36-.22-.77-.02-1.08.15-.23.45-.32.72-.39,1.58-.44,3.12-1.15,4.25-2.33,1.13-1.18,1.8-2.88,1.46-4.48s-1.86-2.96-3.49-2.85"/>
          <g>
            <path class="cls-6" d="m205.4,165.73c10.67-14.18,7.25-23.75,3.66-28.64l-1.3-1.37s-12.34-10.13-26.97,8.89c0,0-14.9,19.67,1.46,29.79,5.95,2.46,14.58,2.73,23.15-8.67Z"/>
            <path class="cls-9" d="m196.67,160.11c7.72-9.28,6.3-15.9,4.42-19.35l-.71-.98s-6.95-7.31-17.5,5.12c0,0-10.77,12.87-1.31,20.31,3.53,1.88,8.9,2.36,15.1-5.1Z"/>
            <path class="cls-9" d="m196.35,207.11c.57-1.23,9.99-21.12,9.77-21.24,0,0,3.84,2.11,3.84,2.11,0,0,7.47,2.66,16.09-13.5,7.37-13.81-1.26-20.79-1.26-20.79l-15.73-16.59c3.59,4.89,7.01,14.46-3.66,28.64-8.57,11.4-17.2,11.13-23.15,8.67.23.14.46.28.71.42,0,0,7.07,3.73,7.07,3.73-2.71,5.92-5.42,11.83-8.14,17.75-1.36,2.96-2.71,5.92-4.07,8.87-.66,1.44-1.32,2.89-1.98,4.33-.64,1.39-1.67,2.46-1.49,4.1,5.08.75,9.73,3.44,14.83,4.04.62.07,1.25.11,1.84-.08,1.45-.47,1.97-3.14,2.55-4.4.93-2.01,1.85-4.03,2.78-6.04Z"/>
          </g>
          <path class="cls-11" d="m375.56,100.05c1.16,2.82,2.36,5.6,4.05,8.13,2.8,4.21,6.28,7.95,9.42,11.9,1.79,2.25,2.66,3.75,5.13,4.88,2.53,1.16,4.94,1.61,7.1,3.57,2.47,2.25,4,5.7,3.36,8.97-.72,3.65-3.85,6.31-7.01,8.29s-6.64,3.68-8.91,6.63c-2.91,3.79-3.27,8.91-3.24,13.69.04,7.21-1.39,14.29-1.63,21.54-.02.61-.03,1.24.18,1.81.52,1.39,2.14,1.98,3.58,2.36,8.14,2.11,16.68,2.67,25.02,1.63-.55-1.77-.51-4.11-1.29-5.75-.84-1.77-2.76-3.23-3.87-4.87-2.53-3.75-4.17-8.09-4.71-12.58-.36-3.02-.22-6.17.99-8.96,1.08-2.51,2.95-4.57,4.64-6.71,7.99-10.1,12.83-23.39,13.91-36.14.92-10.88-2.56-21.47-7.2-31.17-4.48-9.37-8.48-18.09-18.13-22.92-3.05-1.53-6.13-.95-9.61-.78-2.66.13-5.31.27-7.97.42-1.12.06-2.23.12-3.35.18-2.09.11-4.18.23-6.25.48-9.23,1.12-18.47,4.72-24.4,11.89-3.49,4.22-7.57,8.12-10.17,13-2.94,5.52-2.85,12.04-3.63,18.12,2.1-5,3.27-10.62,5.59-15.47,2.36-4.93,8.2-8.85,13-11.08,1.44-.67,3-1.25,4.57-1.07,1.58.18,3.15,1.33,3.31,2.9,5.88-.62,11.07,4.07,13.95,9.24,1.4,2.51,2.46,5.2,3.56,7.86Z"/>
          <path class="cls-11" d="m320.43,189.62c1.95-5.15,4.68-9.95,7.68-14.55,1.51-2.32,3.09-4.58,4.69-6.83,1.16-1.64,4.38-4.68,4.69-6.63.63-3.96-6.29-8.2-9.69-5.47-3.71,2.98-4.95,10.43-5.92,14.79-.69,3.12-1.16,6.28-1.4,9.47-.19,2.51.8,6.98-.05,9.23Z"/>
        </g>
      </g>
    </g>
  </g>
</svg>