<?xml version="1.0" encoding="UTF-8"?>
<svg xmlns="http://www.w3.org/2000/svg" viewBox="0 0 393.35 478.41">
  <defs>
    <style>
      .cls-1 {
        fill: none;
        isolation: isolate;
      }

      .cls-2 {
        fill: #939393;
      }

      .cls-3 {
        fill: #c6e2e6;
      }

      .cls-3, .cls-4 {
        mix-blend-mode: multiply;
      }

      .cls-4 {
        fill: #ffdbbe;
      }
    </style>
  </defs>
  <g class="cls-1">
    <g id="_レイヤー_2" data-name="レイヤー 2">
      <g id="_レイアウト" data-name="レイアウト">
        <g>
          <g>
            <path class="cls-2" d="m213.82,376.12c.58.92,1.36,2.1,2.09,3.31.76,1.27,1.82,2.19,3.18,2.71,1.89.73,3.46,1.86,4.91,3.26,3.33,3.23,7.41,4.74,12.04,4.84,1.47.03,3.06-.3,4.34,1.13-.35,1.58-1.38,2.25-3,2.26-2.48.01-4.91-.24-7.26-1.05-.8-.27-1.61-.5-2.59-.8-4.68,6.29-9.94,11.89-18.71,13.6,2.68,1.53,3.93,3.71,5.57,5.54,1.3,1.45,2.95,2.68,4.64,3.68,7.36,4.36,15.26,7.52,23.5,9.75,4.29,1.16,8.77,1.35,13.22,1.15,4.06-.19,8.16-.2,12.18-.77,6.68-.94,13.09-2.88,19.02-6.22,5.62-3.16,8.57-8.12,9.62-14.26.56-3.24.77-6.54.23-9.85-.24-1.44-.47-3.03,1.05-4.25,1.43.15,2.15,1,2.2,2.4.21,5.56.5,11.2-1.37,16.52-1.55,4.39-4.19,8.13-8.25,10.83-5.44,3.61-11.37,5.91-17.69,7.32-4.53,1.01-9.11,1.57-13.77,1.57-5.59,0-11.2.28-16.64-1.25-4.27-1.2-8.56-2.4-12.67-4.03-5.09-2.02-10-4.5-14.47-7.74-2.4-1.74-4.5-3.74-5.72-6.51-.15-.34-.42-.63-.67-.91-.12-.13-.31-.19-.48-.29-.14.1-.35.17-.4.3-1.3,3.5-3.66,6.12-6.82,8.06-.95.58-1.42,1.38-1.66,2.48-.3,1.36-.83,2.68-1.31,4-.97,2.67-3.14,4.03-5.72,4.58-5.76,1.25-11.62,1.61-17.5,1.02-1.55-.15-2.72.16-3.92,1.08-7.8,5.97-15.63,11.9-23.45,17.85-5.44,4.14-9.26,9.4-10.97,16.04-.49,1.9-.63,3.89-.84,5.85-.13,1.21.06,2.47-1.07,3.55-1.44-.46-1.9-1.52-1.9-2.97,0-5.6,1.4-10.84,4.38-15.58,2.37-3.78,5.33-7.06,8.97-9.74,6.31-4.65,12.54-9.41,18.79-14.15,1.8-1.37,3.54-2.81,5.49-4.35-2.87-3.51-5.92-6.69-9.27-9.6-3.89-3.38-8.45-5.71-12.93-8.15-4.9-2.66-9.9-5.13-14.8-7.79-4-2.17-8.15-3.46-12.75-3.13-4.15.3-8.3.5-12.46.76-.36.02-.71.21-1.15.34-.13.34-.38.69-.37,1.02.11,3.57.15,7.16.42,10.72.33,4.32.77,8.63,1.32,12.92.76,5.97,1.72,11.92,2.51,17.89.75,5.69,1.52,11.38,2.05,17.09.48,5.25.66,10.53.96,15.79.04.75.07,1.51.05,2.26-.05,1.41-.61,2.12-1.69,2.19-1.05.07-1.6-.61-1.62-2.12-.03-2.64.15-5.3-.07-7.92-.57-6.74-1.25-13.48-2-20.21-.51-4.58-1.22-9.14-1.84-13.7-.91-6.71-1.98-13.39-2.69-20.12-.46-4.3-.44-8.64-.55-12.97-.04-1.51-.41-2.12-1.93-1.96-3.18.34-6.41.57-9.51,1.31-3.71.88-7.42,1.27-11.2,1.55-4.65.34-9.26.14-13.89-.15-3.43-.22-6.71-.98-9.92-2.12-.5-.18-.94-.55-1.58-.93.78-1.2,1.48-2.27,2.2-3.37-1.38-3.18-3.22-6.01-5.14-8.82-1.7-2.48-3.43-5-4.69-7.71-.97-2.09-1.33-4.48-1.75-6.78-.14-.74.36-1.59.55-2.3,1.67-.73,2.66.52,3.92.94.48-.51,1-.93,1.37-1.45,4.94-7.05,11.7-11.96,19.07-16.18,4.26-2.43,8.81-2.55,13.49-2,1.76.2,3.54.31,5.79.5-.55-.95-.73-1.58-1.15-1.95-6.54-5.95-14.21-8.19-22.81-6.12-6.79,1.63-12.37,5.46-16.95,10.76-2.92,3.38-5.24,7.15-7.4,11.01-4.23,7.56-3.57,15.01.88,22.21,2.08,3.36,4.37,6.6,6.73,9.77,3.34,4.49,6.18,9.24,8.4,14.37,1.39,3.22,3.16,6.18,5.69,8.71,3.4,3.4,7.47,5.39,12.13,6.3,1.48.29,2.98.55,4.48.56,1.95.01,3.08-1.03,3.01-2.97-.21-6.4,2.45-11.68,6.21-16.58,1.03-1.35,1.94-2.8,3.03-4.09.77-.91,1.75-1.63,2.73-2.52.66.59,1.12,1.01,1.81,1.62-1.07,1.42-2.02,2.81-3.1,4.09-2.65,3.12-5.03,6.42-6.25,10.35-.71,2.31-.95,4.78-1.41,7.17-.2,1.01-.27,2.07-.66,3.01-1.11,2.67-2.44,3.28-5.37,2.82-1.58-.25-3.18-.34-4.76-.53-4.95-.61-9.2-2.74-12.94-5.95-.86-.74-1.76-1.5-2.38-2.42-1.86-2.75-4.45-4.57-7.29-6.15-.9-.5-1.74-1.12-2.76-1.77-.26,2.51-.58,4.88-.74,7.26-.42,5.95-1.76,11.71-3.44,17.4-1.73,5.87-3.57,11.7-5.09,17.63-1.66,6.46-3.47,12.91-4.1,19.59-.02.19-.02.38-.06.56-.31,1.48-.89,2.05-1.97,1.93-1.05-.12-1.55-.75-1.33-2.37.39-2.88.93-5.75,1.49-8.6,2-10.16,5.41-19.95,8.14-29.92,1.69-6.17,3.1-12.4,3.5-18.82.1-1.59.2-3.19.4-4.77.2-1.56-.61-2.49-1.8-3.23-2.57-1.6-5.13-3.2-7.7-4.79-5.14-3.19-10.16-6.58-14.73-10.54-3.78-3.27-6.56-7.34-8.44-11.92-1.39-3.39-2.52-6.9-3.53-10.42-2.45-8.59-4.78-17.21-7.11-25.83-.29-1.07-.41-2.22-.42-3.33,0-.44.47-1.16.84-1.24.4-.09,1.06.31,1.37.69.4.49.66,1.14.83,1.76,1.29,4.52,2.55,9.05,3.81,13.58.78,2.81,1.5,5.64,2.32,8.43,1.54,5.23,2.66,10.58,4.94,15.59,2.03,4.47,4.83,8.27,8.65,11.37,4.78,3.89,9.94,7.19,15.2,10.37,3.88,2.34,7.64,4.88,11.46,7.31.46.29.97.5,1.9.98-.32-.88-.45-1.37-.67-1.81-3.18-6.26-7.53-11.73-11.54-17.45-2.77-3.96-4.87-8.28-6.08-12.99-.84-3.28-.8-6.54.32-9.73.62-1.77,1.26-3.57,2.15-5.22,3.87-7.2,8.48-13.85,15.18-18.76,4.32-3.16,9.05-5.47,14.5-5.96,2.61-.24,5.23-.45,8.03-.68-1.26-1.84-2.65-3.43-4.26-4.86-2.62-2.32-5.26-4.6-7.76-7.04-.99-.96-1.71-2.25-2.35-3.49-.22-.43-.02-1.42.34-1.71.34-.27,1.19-.06,1.75.15.4.15.74.59,1.01.97,2.09,2.97,4.87,5.24,7.59,7.59,1.77,1.53,3.37,3.27,5.31,5.17.12-.89.22-1.47.28-2.06.62-6.96-.95-13.65-2.51-20.35-1.32-5.67-2.75-11.32-3.93-17.02-.7-3.4-1.15-6.87-1.45-10.33-.54-6.19-.91-12.4-1.28-18.6-.55-9.02-1.42-18.01-2.98-26.91-1.45-8.29-4.21-16.2-7.88-23.78-.61-1.27-1.34-2.5-.93-3.98,1.94-.5,2.07-.54,2.87,1.12,1.56,3.22,3.13,6.45,4.44,9.77,3.13,7.92,4.94,16.21,6.02,24.62.72,5.59.89,11.25,1.33,16.88.31,3.94.65,7.88.98,11.81.21,2.53.43,5.06.63,7.6.74,9.22,2.45,18.25,5.04,27.13,2.21,7.57,2.98,15.32,2.42,23.19-.07,1-.47,1.99-.79,2.96-.5,1.5-.43,1.96.9,2.86.78.52,1.65.92,2.5,1.3,4.15,1.86,7.34,4.92,10.46,8.11.71.73,1.55,1.4,2.46,1.85,1.37.68,2.46-.08,2.47-1.59,0-.37-.18-.73-.22-1.1-.94-7.67-1.78-15.34-1.79-23.08,0-1.52.03-3.02,1.55-3.95,1.41.34,1.81,1.3,1.8,2.54,0,1.32,0,2.64-.01,3.96-.04,5.28.26,10.54,1,15.78.28,1.96.46,3.92.65,5.89.13,1.29.87,1.83,2.09,1.78,1.23-.05,2.45-.16,3.68-.24,1.89-.12,3.84-.56,5.65-.24,2.01.35,3.69-.07,5.44-.82,6.58-2.82,13.51-4.14,20.58-4.97,6.83-.8,13.58-.23,20.37.52,7.61.84,15.18,2.12,22.88,1.86.93-.03,1.87,0,3.13,0,0-1.05.12-1.87-.02-2.64-.68-3.89-1.49-7.76-2.13-11.65-.55-3.34-.93-6.71-1.39-10.07-.66-4.85-1.34-9.69-1.97-14.54-.69-5.31-1.31-10.64-1.99-15.95-.5-3.92-1.06-7.83-1.57-11.74-.53-4.01-1.02-8.03-1.55-12.04-.83-6.29-2.87-12.26-4.91-18.23-3.34-9.8-6.21-19.72-8.24-29.9-1.21-6.1-3.52-11.91-6.16-17.55-3.36-7.17-6.58-14.4-8.61-22.08-.55-2.07-.68-4.26-.93-6.4-.12-1.06.32-1.83,1.85-1.91.3.64.82,1.34.95,2.11,1.43,8.54,4.94,16.36,8.33,24.24,2.26,5.27,4.5,10.59,6.26,16.04,1.49,4.64,2.33,9.5,3.35,14.28,1.5,7.01,3.98,13.72,6.31,20.48,2.62,7.59,4.52,15.31,5.49,23.29.93,7.65,2.16,15.25,3.17,22.89.54,4.1.84,8.24,1.33,12.35.51,4.3,1.08,8.59,1.71,12.87.87,5.86,1.81,11.72,2.76,17.56.33,2.04.74,4.07,1.21,6.09.39,1.62,1.02,1.92,2.68,1.4.79-.25,1.55-.59,2.52-.97-.37-.78-.55-1.4-.92-1.9-2.1-2.83-2.84-6.07-3.22-9.5-.43-3.79-.13-7.51.55-11.22.31-1.71.37-1.69,2.85-2.43.06,1.07.18,2.08.17,3.08-.02,2.74-.03,5.47-.14,8.21-.19,4.71,1.39,8.82,4.19,12.76.72-.42,1.39-.94,2.15-1.21,1.58-.57,3.17-1.23,4.81-1.43,1.66-.2,2.35.47,2.79,2.15.81,3.1,1.68,6.24-.21,9.28-.54.87-1.15,1.7-1.82,2.47-.91,1.04-1.9,2-2.93,3.06,1.32.95,2.11.18,2.79-.32.66-.49,1.07-1.29,1.64-1.91.76-.82,1.42-1.68,2.73-1.82,3.23-.34,4.25.11,5.58,3.07,1.24,2.75,1.44,5.67.82,8.57-.57,2.64-1.49,5.2-2.41,8.34Zm-30.37,4.64c.85-1.66,2.18-1.66,3.36-1.77,3.19-.3,6.4-.43,9.6-.73,2.91-.27,5.82-.62,8.71-1.06,2.56-.39,4.74-1.78,6.06-3.85,2.46-3.86,2.44-8.26,1.56-12.58-.42-2.04-1.93-2.23-3.16-.51-1.41,1.96-3.34,3.09-5.56,3.66-1.35.35-2.83.41-4.23.3-7.35-.58-14.69-1.24-22.03-1.92-.61-.06-1.32-.36-1.76-.78-.42-.4-.85-1.19-.71-1.63.14-.43,1-.87,1.54-.87,1.79,0,3.59.12,5.38.31,3.75.4,7.5.91,11.25,1.31.53.06,1.14-.11,1.64-.33,2.51-1.09,4.94-2.29,7.14-4,2.68-2.08,3.72-4.64,3.34-7.9-.21-1.83-1.01-2.32-2.68-1.58-1.38.61-2.7,1.39-4.11,1.9-2.21.8-4.67,1.1-6.67,2.24-2,1.13-3.84,1.32-5.93.87-.36-.08-.76-.02-1.13-.02-3.2,0-6.41.11-9.61-.04-3.3-.16-6.59-.56-9.88-.87-5.17-.49-10.33-1.21-15.51-1.41-4.14-.17-8.32.13-12.45.5-5.57.5-10.96,1.89-16.22,3.81-1.95.71-3.85,1.6-6.03.85-.38-.13-.91.12-1.36.22-.92.21-1.82.5-2.75.67-5.18.91-10.37.34-15.56,0-4.9-.31-9.8-.65-14.69-1.08-3.75-.33-7.03.81-10.28,2.54-7.7,4.1-13.77,9.88-18.6,17.06-2.02,3-2.03,3.86.11,6.83.11.15.25.28.36.44,3.25,4.83,7.2,9.28,8.12,15.33.12.8.62,1.37,1.49,1.49,2.81.37,5.61.85,8.42,1.09,8.29.72,16.41-.4,24.44-2.41.73-.18,1.47-.29,2.22-.38,2.34-.29,4.69-.47,7.02-.84,6.27-.99,12.56-1.67,18.91-1.47,3.14.1,6.19.71,9,2.21,6.66,3.56,13.34,7.09,19.98,10.69,2.41,1.3,4.78,2.69,7.07,4.18,4.32,2.8,7.9,6.46,11.08,10.43,2.29,2.86,4.94,3.98,8.54,3.74,4.05-.26,8.1-.08,12.13-1,3.38-.77,4.81-2.94,5.55-6.1-.46-.16-.79-.38-1.13-.39-2.84-.07-5.68-.17-8.52-.1-.78.02-1.58.49-2.32.86-.82.4-1.52,1.14-2.61.66-.06-.28-.2-.56-.17-.81.24-1.78-.71-2.8-2.18-3.56-1.68-.87-3.34-1.78-4.98-2.71-.74-.42-1.47-.88-2.11-1.42-.65-.55-1.34-1.25-.74-2.17.51-.78,1.4-.55,2.08-.27,1.04.44,1.99,1.07,3,1.59,3.17,1.63,6.05,3.93,9.75,4.36,4.15.48,8.31.8,12.3-.89,2.78-1.18,4.9-3.04,6.2-6.15-.82-.16-1.42-.38-2.02-.39-5.65-.07-11.05-1.31-16.23-3.51-1.82-.78-3.6-1.68-5.32-2.66-1.11-.63-2.24-1.4-1.89-3,2.5-.34,2.52-.37,4.41.77,2.85,1.72,5.84,3.1,9.12,3.79,3.51.74,6.96,1.71,10.63,1.41,3.1-.25,5.89-1.31,7.58-3.85,1.86-2.8,3.3-5.92,4.66-9.01.8-1.83.89-3.98-.18-5.75-1.44-2.39-3.19-4.6-4.7-6.73-2.76.95-5.22,1.8-7.91,2.72,1.16,2.74,2.3,5.44,3.58,8.46-.95,0-1.52.09-2.05-.01-2.5-.48-4.97-1.14-7.49-1.48-3.05-.4-5.57-1.78-7.79-3.75-1.37-1.22-2.81-2.19-4.61-2.64-.5-.12-.92-.57-1.48-.95Zm33.24,18.28c2.73-3.23,6.35-4.99,7.78-8.78-1.16-1.61-2.51-2.74-4.47-3.48-.44,2.19-.77,4.19-1.27,6.15-.48,1.9-2.22,3.39-2.04,6.11Zm-14.99-13.15c-.27-.9-.35-1.27-.48-1.6-1.11-2.74-1.62-3.02-4.7-2.73-1.03.1-2.08.05-3.12.15-.49.05-.97.28-1.9.57,3.12,2.52,6.41,2.97,10.2,3.61Z"/>
            <path class="cls-2" d="m178.38,174.66c.43-1.45,1.32-2.04,2.78-1.86,5.89.75,11.84.75,17.7,2.05,5.81,1.29,11.26,3.34,16.2,6.52,9.29,5.98,18.44,12.18,27.6,18.36,4.39,2.95,8.62,6.14,13.04,9.05,3.88,2.56,8.04,4.63,12.67,5.46,2.03.36,4.14.5,6.2.41,4.89-.21,9.58.57,14.21,2.09,4.03,1.33,8.04,2.76,12.3,3.26.47.05.93.18,1.4.19,6.71.21,13.43.41,20.14.59,1.86.05,3.68-.55,5.61.02,2.23.65,4.29,1.4,5.88,3.17.76.84,1.63,1.57,2.41,2.3,1.85-1.33,3.57-2.77,5.48-3.92,7.78-4.68,17.45-3.67,22.67,4.99,2.73,4.53,5.72,8.85,9.08,12.95,5.6,6.83,7.66,14.78,6.9,23.51-.06.74-.28,1.48-.46,2.21-.22.87-.62,1.68-1.66,1.55-1-.13-1.36-.92-1.3-1.88.07-1.04.07-2.08.23-3.1.99-6.37-.84-12.11-4.02-17.5-.95-1.61-2.18-3.08-3.37-4.54-2.82-3.44-5.28-7.11-7.65-10.86-1.09-1.72-2.56-3.26-4.05-4.67-1.4-1.33-3.22-1.83-5.19-1.98-6.02-.47-10.99,1.64-14.9,6.08-2.3,2.61-4.43,5.4-6.38,8.28-3.45,5.07-6.68,10.3-11.4,14.37-.84.72-1.5,1.65-2.36,2.61.59.59.95,1.24,1.49,1.45,2.81,1.1,5.69,1.41,8.54.12,2.89-1.32,5.21-3.39,7.33-5.7,1.66-1.81,3.31-3.63,5.06-5.35,2.34-2.3,5.17-3.76,8.39-4.49.84-.19,1.49-.14,1.9.71.47.98.02,1.72-.78,2.14-.99.52-2.17.71-3.14,1.25-1.55.87-3.16,1.75-4.45,2.93-2.34,2.14-4.47,4.5-6.74,6.84,1.15,1.05,2.23.69,3.18.52,6-1.1,11.36-3.49,15.63-7.98.59-.62,1.18-1.22,1.77-1.84.65-.69,1.4-1.05,2.25-.45.86.61.43,1.48,0,2.01-1.29,1.61-2.55,3.31-4.13,4.61-5.59,4.64-12.09,6.89-19.39,6.61-1.94-.07-3.73.27-5.52.96-1.49.57-3.07.93-4.63,1.27-1.07.23-1.77.78-1.83,1.84-.05,1,.71,1.35,1.56,1.71,1.21.52,2.29,1.31,3.47,1.91,2.64,1.34,5.49,2.03,8.41,2.37,6.55.75,12.78-.49,18.8-3.05,4.04-1.71,7.74-3.93,11-6.87.56-.5,1.2-.92,1.84-1.32.73-.46,1.51-.41,2.05.25.62.75.55,1.64-.21,2.27-1.38,1.14-2.84,2.19-4.24,3.31-.72.57-1.4,1.19-2.35,2.01,1.91,1.08,2.01,2.64,1.85,4.3q-.38,3.94,1.14,7.19c-.46,1.13-1.49.94-2.41,1-5.09.34-9.98-.53-14.63-2.59-2.57-1.14-5.19-.82-7.82-.6-.54.04-1.08.35-1.58.62-1,.54-2.17,1.07-2.27,2.33-.1,1.29,1.2,1.54,2.06,2.06,4.06,2.42,8.18,4.7,12.77,6.05,3.91,1.15,7.89,1.01,11.83.5,2.69-.35,5.3-1.31,7.94-2.01.54-.15,1.09-.32,1.59-.58,3.52-1.8,3.8-2.52,3.68-6.45-.07-2.32-.74-4.65.03-6.88,1.16-.57,1.74.11,2.27.77,1.42,1.75,2.99,3.42,4.18,5.32,2.43,3.87,3.44,8.16,2.72,12.69-.39,2.44-1.82,4.41-4.13,5.43-4.49,1.97-9.04,3.81-13.59,5.64-.67.27-1.5.41-2.21.3-4.57-.68-9.15-1.32-13.66-2.25-1.8-.37-3.54-1.28-4.26-3.35-.55-1.57-.52-2.93.63-4.2.37-.41.69-.86,1.14-1.43-.39-.37-.66-.77-1.04-.96-3.18-1.65-6.42-3.21-9.57-4.9-1.45-.78-2.62-1.19-4.11.06-.97.81-2.37,1.12-3.61,1.57-.41.15-.98.2-1.36.02-.47-.22-1.05-.66-1.15-1.09-.09-.41.27-1.17.65-1.38.98-.54,2.08-.86,3.13-1.26.86-.33,1.57-.78,1.32-1.85-.69-2.96.46-4.94,3.2-6.11.16-.07.28-.24.56-.48-.71-.98-1.71-1.06-2.73-1.09-3.89-.12-7.38-1.49-10.66-3.46-.63-.37-1.1-.99-1.67-1.47-.4-.34-.84-.64-1.58-1.19-.1.84-.39,1.51-.18,1.78,2.61,3.26,2.85,7.3,3.64,11.13.53,2.57.77,5.2,1.08,7.81.12,1.03.1,2.07.13,3.11.03,1.14-.41,2.01-1.66,2.51-1.39-.62-1.54-2.06-1.58-3.28-.16-5.59-1.47-10.99-2.45-16.45-.13-.72-.41-1.41-.7-2.36-1.69,1.52-3.23,2.83-4.69,4.22-3.21,3.08-7.09,4.98-11.25,6.38-1.79.6-3.63,1.05-5.43,1.61-.99.31-1.86.25-2.71-.56.07-1.91,1.43-2.59,3.03-3.07,2.52-.76,5.15-1.3,7.53-2.38,5.26-2.37,9.84-5.63,12.39-11.06.55-1.17.84-2.47,1.32-3.93-.78-.46-1.55-.79-2.16-1.31-.92-.77-1.88-1.57-2.51-2.56-.38-.6-.45-1.67-.19-2.36.76-2.03,1.7-4.04,3.55-5.35,2.69-1.9,4.44-4.61,6.32-7.18,2.45-3.34,4.71-6.83,7.05-10.25,1.5-2.19,1.41-2.43-.27-4.37-1.94-2.24-4.32-3.16-7.27-3.1-4.92.11-9.85-.05-14.78.05-7.56.16-14.88-1.06-21.95-3.67-4.06-1.49-8.21-2.1-12.52-1.98-4.09.12-8.16-.27-11.99-1.78-4.32-1.7-8.41-3.88-12.21-6.57-12.42-8.78-24.9-17.49-37.87-25.45-6.25-3.84-13.06-6.35-20.47-6.99-4.14-.35-8.26-.8-12.4-1.14-1.14-.09-1.98-.46-2.47-1.48Zm203.03,101.9c-.38,1.1-.87,2.19-1.11,3.32-.48,2.32-1.86,3.88-3.92,4.87-3.75,1.82-7.69,3.11-11.85,3.58-2.25.25-4.51.35-6.77.5-2.03.13-3.98.53-5.36,2.14-1.25,1.46-.8,2.64,1.11,3,3.89.75,7.77,1.55,11.68,2.08,1.53.21,3.28.11,4.71-.44,3.78-1.45,7.43-3.25,11.16-4.84,1.49-.63,2.23-1.81,2.43-3.23.55-3.79-.47-7.37-2.1-10.99Zm-18.86-11.7c-2.46,1.07-4.34,1.89-6.23,2.71-.26.11-.56.19-.76.37-.34.3-.78.62-.89,1.01-.57,2.04,1.18,4.43,3.34,4.62.56.05,1.13.04,1.7.05,1.24.01,2.03-.68,2.18-1.81.3-2.11.42-4.25.66-6.95Z"/>
            <path class="cls-2" d="m74.57,147.21c-.89,1.07-1.88,2.07-2.65,3.21-2.46,3.66-5.58,6.62-9.27,9.03-2.13,1.4-4.18,2.93-6.23,4.45-2.05,1.52-2.27,2.16-.99,4.5,1.81,3.3,3.67,6.6,5.79,9.7,2.35,3.45,4.35,7.06,6.1,10.83.55,1.2,1.09,2.42,1.76,3.54.51.85,1.25,1.58,2.08,2.6.98-.78,1.89-1.3,2.53-2.04,2.32-2.73,4.55-5.54,6.83-8.31,2.18-2.64,4.55-5.05,7.88-6.28,2.51-.93,4.84-.21,7.12.73.63.26,1.16,1,1.48,1.64.25.49.28,1.27.05,1.76-.12.26-1.03.34-1.51.22-.91-.24-1.78-.64-2.63-1.05-1.3-.63-2.53-.52-3.82.05-2.12.94-3.9,2.35-5.39,4.07-2.03,2.36-3.9,4.86-5.92,7.22-1.16,1.36-2.37,2.72-3.77,3.81-2.19,1.69-4.29,1.54-5.99-.59-1.39-1.74-2.55-3.75-3.43-5.8-1.95-4.54-4.66-8.62-7.28-12.77-1.16-1.83-2.26-3.7-3.43-5.53-.29-.45-.71-.82-1.1-1.27-3.1,1.43-6.06,2.89-9.1,4.16-5.49,2.29-11.04,4.43-16.55,6.68-7.61,3.12-13.25,8.21-16.22,16.03-2.84,7.5-4.92,15.17-6.1,23.13-1.26,8.52-1.67,17.06-1.58,25.64.08,7.35.4,14.7.46,22.05.1,11.89-.08,23.78.17,35.66.13,6.3.91,12.58,1.4,18.87.03.38.09.75.11,1.13.21,4.23.41,8.47.61,12.71.03.57.07,1.14.02,1.7-.1,1.14-.83,1.85-1.79,1.72-.93-.12-1.58-.6-1.57-1.66,0-.57.02-1.13-.01-1.7-.2-4.14-.3-8.29-.63-12.41-.87-10.8-1.66-21.6-1.6-32.43.02-3.77.41-7.53.34-11.3-.16-8.38-.58-16.76-.73-25.14-.09-4.99.12-9.98.2-14.97.03-1.51.12-3.02.13-4.53.06-6.7.92-13.29,2.04-19.9.96-5.61,2.46-11,4.32-16.33,2.11-6.05,5.18-11.49,10.16-15.74,3.52-3,7.69-4.74,11.88-6.49,6.62-2.76,13.22-5.59,19.85-8.34,1.74-.72,3.02-1.59,3.42-3.67.38-1.97,1.65-3.5,3.4-4.69,2.74-1.85,5.32-3.92,8-5.86,2.17-1.57,3.98-3.46,5.51-5.65,1.03-1.47,2.04-2.97,3.26-4.26,1.93-2.02,4.2-3.07,7.13-2.01,1.87.68,2.25.4,2.92-1.46,1.66-4.62,2.56-9.42,3.42-14.24.77-4.35,1.44-8.71,2.21-13.06.3-1.69.38-1.67,2.64-1.57.64,1.11.37,2.36.19,3.52-.79,5.02-1.51,10.05-2.58,15.01-.93,4.31-2.3,8.53-3.45,12.8-.68,2.51-1.8,4.75-3.83,6.47-.27.23-.41.62-.73,1.11.94,2.2,2.35,4.19,4.02,5.97,2.71,2.89,5.56,5.65,8.31,8.5,2.63,2.72,5.29,5.4,7.79,8.24,3.15,3.58,4.78,7.88,5.31,12.57.44,3.93.87,7.86,1.06,11.8.33,6.68.5,13.38.64,20.07.03,1.39.41,2.28,1.67,2.94,5.96,3.14,12.13,5.64,18.75,7.06,7,1.51,13.88,1.33,20.65-1.09,3.15-1.13,5.96-2.84,8.45-5.07,1.08-.96,2.12-1.9,3.9-1.2.06,1.58-.76,2.69-1.85,3.58-4.85,3.98-10.35,6.57-16.61,7.41-10.48,1.41-20.26-1.03-29.63-5.54-1.67-.8-3.37-1.56-5.37-2.49-.04.93-.06,1.44-.09,1.95-.19,4.61-.33,9.23-.6,13.84-.24,3.95-.59,7.89-.98,11.82-.48,4.87-1.04,9.73-1.56,14.59-.64,5.9-1.3,11.79-1.89,17.69-.55,5.52-1.19,11.05-1.46,16.59-.28,5.74-.17,11.51-.22,17.26,0,.57.18,1.18,0,1.68-.19.55-.68,1.38-1.05,1.39-.63,0-1.46-.39-1.86-.88-.36-.43-.34-1.24-.34-1.89-.02-5.19-.19-10.39.06-15.56.27-5.44.97-10.87,1.48-16.3.17-1.78.33-3.56.51-5.33.43-4.11.85-8.23,1.32-12.34.61-5.32,1.27-10.64,1.91-15.96.06-.47.18-.93.21-1.39,1.25-15.33,1.61-30.69,1.13-46.06-.19-5.93-.57-11.86-1.2-17.75-.49-4.57-2.26-8.77-5.5-12.17-4.1-4.31-8.36-8.48-12.39-12.86-2.42-2.63-4.53-5.54-6.76-8.34-1.15-1.44-1.62-3.16-1.95-4.94-.15-.81-.46-1.58-.69-2.37-.24-.05-.49-.1-.73-.15Z"/>
            <path class="cls-2" d="m111.59,131.99c2-1.02,2.77.04,3.6.94,1.97,2.15,3.8,4.46,5.93,6.44,4.12,3.85,8.96,6.6,14.26,8.5,3.1,1.11,6.27,2.09,9.47,2.86,7.68,1.86,14.4-.34,20.31-5.26,4.76-3.97,8.62-8.72,11.58-14.17,3.48-6.4,6.58-12.95,7.58-20.26.28-2.04.3-4.13.32-6.2.01-1.69.4-3.15,1.89-4.39,1.18.85,1.49,2.03,1.43,3.37-.29,5.93-.93,11.78-3,17.44-2.88,7.88-6.98,15.05-12.33,21.47-5.09,6.12-11.53,10.26-19.47,11.8-1.46.28-3,.17-4.76.55.23.1.45.2.68.29,2.87,1.08,5.33,2.75,7.56,4.85,2.93,2.75,6.67,3.79,10.49,4.59,1.11.23,2.24.37,3.31.71,2.27.73,3.92,2.16,4.79,4.46,1.29,3.43,2.78,6.8,3.99,10.26.55,1.57.78,3.29.89,4.96.11,1.6-.44,2.25-1.99,2.64-2.46.63-4.87.5-7.11-.91-1.01-.64-2.07-1.19-3.33-1.91-1.41,3.53-2.78,6.7-2.97,10.23-.08,1.6-.11,3.2-.16,4.81-.04,1.24-.12,2.45-1.35,3.28-1.62-.66-1.99-2.04-1.85-3.47.35-3.54.71-7.1,1.36-10.6.72-3.85,2.78-7.18,4.83-10.46.9-1.45,2.18-2.65,4.02-2.89.6-.08,1.23.13,2.02.24-.64,2.7-3.67,3.21-4.44,5.79,1.69,1.52,3.86,2.37,6.05,3.11,1.06.36,1.91-.74,1.53-1.94-.51-1.61-1.18-3.17-1.74-4.77-.69-1.95-1.27-3.94-2-5.87-.89-2.37-2.53-3.79-5.15-4.29-3.89-.74-7.82-1.57-11.15-3.91-1.61-1.14-3.04-2.53-4.57-3.8-1.1-.91-2.31-1.57-3.91-1.78-1.36,2.8.06,5.86-1.02,8.55-2.44-.02-2.94-.34-2.9-2.35.06-2.82.33-5.64.52-8.46.17-2.52.14-2.4-2.19-2.99-9.68-2.45-18.57-6.42-25.63-13.73-1.51-1.56-2.9-3.24-4.21-4.97-.58-.77-.81-1.8-1.23-2.79Z"/>
            <path class="cls-2" d="m300.89,388.48c-1.7,0-3.41.02-5.11-.01-.66-.01-1.4.02-1.94-.27-.5-.26-.99-.88-1.11-1.42-.19-.84.39-1.45,1.24-1.6,1.3-.22,2.64-.56,3.93-.46,6.3.47,12.64.8,18.89,1.71,6.89,1.01,13.71,2.56,20.54,3.95,3.87.79,7.72,1.72,11.56,2.65,3.79.92,7.32,2.49,10.67,4.47.64.38,1.17.94,1.76,1.4,6.61,5.18,11.07,11.97,14.85,19.34,4.66,9.07,8.73,18.39,12.15,27.97,2.12,5.93,3.68,12.04,4.44,18.33.16,1.3.43,2.59.57,3.9.07.66-.03,1.37-.87,1.56-.81.18-1.55,0-1.92-.8-.28-.59-.5-1.24-.57-1.88-.59-5.83-2.22-11.4-3.87-17.01-2.37-8.08-5.75-15.73-9.32-23.31-2.81-5.96-5.82-11.83-9.51-17.34-5.49-8.2-13.39-12.49-22.83-14.42-7.11-1.45-14.21-2.95-21.35-4.26-4.45-.82-8.95-1.39-13.44-1.96-2.9-.36-5.83-.5-8.75-.74v.18Z"/>
            <path class="cls-2" d="m292.97,401.77c-1.85-.01-2.58-1.37-3.26-2.71-1.35-2.64-1.89-5.52-2.12-8.43-.34-4.35-.16-8.66,1.51-12.79.1-.24.01-.55.01-1.11-1.59-.36-3.21-.81-4.85-1.1-5.35-.95-10.35-2.94-15.22-5.25-1.17-.56-2.26-1.39-3.21-2.27-.36-.33-.24-1.18-.33-1.8.6-.09,1.28-.41,1.79-.23,1.24.43,2.42,1.06,3.59,1.68,5.66,2.98,11.72,4.61,18.04,5.57,3.82.58,7.52.53,11.23-.4,6.73-1.68,11.57-5.89,15.14-11.59,5.43-8.68,8.33-18.27,9.89-28.34.76-4.89.11-9.55-1.36-14.19q-.62-1.94,1.33-3.43c1.08.25,1.31,1.2,1.63,2.07,1.05,2.85,1.58,5.79,1.73,8.83.3,5.8-.49,11.46-2.1,17.02-1.44,4.98-.91,9.9.44,14.76,1.04,3.76,3.55,6.37,7.1,7.98.52.23,1.02.49,1.55.71,1.02.42,1.04,1.22.81,2.22-1.91.77-3.67.13-5.29-.86-4.08-2.49-6.42-6.25-7.7-10.76-.2-.7-.46-1.38-.86-2.53-.79,1.23-1.45,2.02-1.85,2.93-1.73,3.93-4.42,7.16-7.13,10.46-3.14,3.83-7.33,5.84-11.67,7.64-1.44.6-3.12.63-4.7.84-1.57.21-3.16.34-4.7.49-1,3.89-1.76,7.54-1.67,11.34.07,3.25.61,6.35,2,9.32.57,1.22,1.46,2.53.23,3.93Z"/>
            <path class="cls-2" d="m278.76,223.92c-1.59,1.39-3.21,1.54-5.27,1.25-3.23-.46-6.5-1.34-9.83-.38-.79.23-1.7.08-2.55.11-8.31.21-15.93,2.68-23,6.95-5.04,3.05-9.72,6.55-13.7,10.88-5.66,6.15-10.15,13.08-13.57,20.71-4.72,10.54-7.04,21.77-9.77,32.89-1.25,5.09-2.8,10.12-4.43,15.11-.6,1.84-1.76,3.52-2.8,5.18-.71,1.13-1.77,1.94-3.11,2.26-1.29-1.65-1.29-1.97-.19-3.38.92-1.18,2.1-2.28,2.66-3.62,1.12-2.68,2.1-5.45,2.78-8.27,2.41-10.05,4.21-20.25,7.49-30.09,3.08-9.25,7.09-18.07,12.82-26.03,4.85-6.73,10.76-12.4,17.75-16.91,4.87-3.14,10.03-5.7,15.63-7.25,6.96-1.93,14.02-3.12,21.29-2,.93.14,1.9.05,2.83.17,1.9.24,3.68.8,4.98,2.38Z"/>
            <path class="cls-2" d="m293.62,281.29c.17,1.14-.44,1.6-1.12,1.95-1,.53-2.03,1-3.06,1.47-7.72,3.54-12.95,9.41-15.81,17.29-1.37,3.77-1.27,7.81-.6,11.73.79,4.64,1.93,9.21,2.72,13.85.97,5.69.56,11.21-2.22,16.49-3.52,6.7-8.32,12.09-14.95,15.84-2.04,1.15-2.23,1.18-4.76.36.33-.56.51-1.23.95-1.55,1.37-1,2.81-1.91,4.27-2.77,5.4-3.17,9.27-7.67,11.76-13.36,1.95-4.44,2.19-9.1,1.7-13.84-.45-4.3-1.72-8.45-2.5-12.69-1.31-7.06-.66-13.84,3.14-20.13,2.3-3.82,4.77-7.52,8.5-10.1,2.39-1.66,4.95-3.1,7.49-4.52,1.18-.66,1.96-.54,4.5-.01Z"/>
            <path class="cls-2" d="m319.83,244.14c-.48.73-.93,1.43-1.43,2.2-1.1-.26-1.59-1.07-2.02-1.89-1.22-2.33-3.07-4.04-5.27-5.4-5.29-3.27-10.57-6.56-15.9-9.78-2.96-1.79-6.23-2.61-9.68-2.74-.93-.04-1.87-.16-2.79-.33-.8-.15-1.39-.65-1.47-1.51-.08-.92.58-1.3,1.33-1.59,1.65-.66,3.32-.59,5-.14,5.15,1.39,9.97,3.49,14.43,6.43,2.91,1.92,5.96,3.64,8.9,5.53,1.64,1.06,3.17,2.28,4.92,3.55.29-.64.52-1.04.66-1.46,1.11-3.33,3.19-5.97,5.92-8.11,1.53-1.19,3.34-1.74,5.29-1.73.91,0,1.76.28,1.85,1.35.08.97-.7,1.27-1.46,1.42-1.5.31-2.89.77-4.15,1.71-1.72,1.29-2.79,3.04-3.85,4.83-.38.65-.69,1.34-1.07,2-.87,1.5-1.25,2.94.2,4.35.31.3.39.83.61,1.32Z"/>
            <path class="cls-2" d="m74.83,38.29c1.01-.79,1.78-1.6,2.73-2.09,1.75-.9,3.04-2.18,4.02-3.86,2.13-3.67,4.32-7.3,6.47-10.97,2.9-4.96,6.62-9.09,11.4-12.39,6.11-4.21,12.82-6.77,20.07-8.08,1.43-.26,3.03-.75,3.99.98-.23,1.52-1.15,1.97-2.54,2.2-5.23.88-10.32,2.27-15.12,4.59-6.32,3.04-11.24,7.56-14.78,13.61-2.47,4.23-5.05,8.41-7.58,12.61-1.05,1.74-2.41,3.13-4.35,3.9-1.38.54-2.71.68-4.3-.5Z"/>
            <path class="cls-2" d="m252.35,342.58c1.28.74,1.76,1.71,1.63,2.94-.25,2.23-.4,4.49-.87,6.67-.62,2.93-1.55,5.78-2.26,8.69-1.04,4.26-1.23,8.59-.01,12.82,1.4,4.87,4.88,8.14,9.04,10.79,1.03.66,2.12,1.25,3.02,2.05.38.34.6,1.24.43,1.73-.3.9-1.23.85-1.92.47-2.93-1.63-6.07-2.94-8.34-5.57-2.3-2.66-4.21-5.54-5.32-8.89-1.33-4.02-1.25-8.11-.4-12.19.52-2.47,1.34-4.87,1.88-7.34.68-3.1,1.24-6.24,1.78-9.37.18-1.03.29-2.03,1.34-2.8Z"/>
            <path class="cls-2" d="m130.66.37c1.08-.54,2.17-.46,3.23.07,3.14,1.56,6.57,1.67,9.95,1.87,2.83.17,5.69-.03,8.52.14,2.25.13,4.53.36,6.71.89,3.5.85,6.29,3.03,8.76,5.53,1.52,1.54,2.78,3.33,4.16,5.01.78.95.95,1.99.49,3.1-1.59.58-2.34-.47-3.15-1.38-1.51-1.69-3.01-3.38-4.52-5.07-.06-.07-.14-.13-.2-.2-2.85-3.09-6.4-4.54-10.58-4.54-2.84,0-5.69.02-8.52-.1-2.74-.11-5.47-.32-8.19-.61-1.91-.2-3.66-.96-5.18-2.15-.8-.63-1.71-1.26-1.46-2.58Z"/>
            <path class="cls-2" d="m84.94,87.06c-.45-4.74,3.24-10.45,9.01-11.43,2.82-.48,5.23.35,7.17,2.46.31.34.56.76.75,1.19.33.72.49,1.53-.25,2.06-.72.51-1.44.17-2.04-.38-.07-.06-.15-.12-.21-.19-1.53-1.63-3.3-2.5-5.59-1.79-2.52.78-4.22,2.46-5.22,4.83-1.14,2.69-.71,5.4.28,7.99,1.59,4.12,3.92,7.74,7.75,10.19.77.5,1.62.91,2.48,1.24,1.26.49,1.66.99,1.37,2-.32,1.1-1.21,1.52-2.49.9-1.69-.83-3.47-1.64-4.88-2.85-4.97-4.24-7.59-9.72-8.13-16.19Z"/>
            <path class="cls-2" d="m206.62,248.6c-1.28-.93-1.51-2.13-1.48-3.37.11-5-.61-9.93-1.23-14.87-.3-2.41-.79-4.81-1.4-7.17-1.18-4.59-1.66-9.24-1.36-13.96.08-1.21.37-2.41.68-3.58.22-.82.9-1.18,1.76-1.06.86.12.99.77,1,1.46,0,.94.01,1.89-.07,2.82-.45,4.83.22,9.57,1.24,14.26,1.21,5.51,2.23,11.03,2.25,16.71,0,2.06.37,4.11.44,6.18.05,1.43-.05,1.43-1.83,2.58Z"/>
            <path class="cls-2" d="m125.11,64.77c.93-.04,1.85-.16,2.75-.1,7.03.48,12.4-2.63,16.78-7.75,1.8-2.1,3.76-3.98,6.2-5.28,2.72-1.47,5.59-2.29,8.69-1.16.44.16,1.01.2,1.28.5.39.44.82,1.1.76,1.62-.09.81-.81,1.22-1.69,1.1-.28-.04-.55-.14-.82-.21-3.62-.86-6.72.11-9.33,2.7-1,1-1.95,2.05-2.9,3.08-3.78,4.11-8.15,7.29-13.76,8.37-1.74.33-3.56.37-5.34.31-1.69-.05-2.37-.96-2.62-3.18Z"/>
            <path class="cls-2" d="m73.11,45.17c.94,1.73.63,3.27.34,4.82-.62,3.31-1.4,6.58-1.53,9.99-.19,4.75,1.08,9.09,3.04,13.31.43.93.86,1.88,1.17,2.86.36,1.13.31,1.15-.97,2.83-.47-.41-1.03-.74-1.36-1.23-2.42-3.55-3.68-7.58-4.58-11.72-1.27-5.84-.3-11.56,1.15-17.23.37-1.43.75-2.92,2.74-3.63Z"/>
            <path class="cls-2" d="m192.94,41.39c-2.7.91-3.1.65-3.16-1.93-.03-1.51-.02-3.02-.14-4.52-.2-2.58-1.25-4.68-3.55-6.09-2.01-1.22-4.05-2.42-5.93-3.83-1.11-.83-2.01-1.97-2.86-3.08-.36-.47-.52-1.22-.48-1.82.08-1.3,1.15-1.7,2.23-.92.08.06.16.11.21.18,2.18,2.96,5.32,4.69,8.31,6.67,3.03,2,4.77,4.91,5.14,8.68.22,2.24.62,4.44.24,6.65Z"/>
            <path class="cls-2" d="m86.22,106.82c-1.67-.16-2.03-1.29-2.22-2.54-.66-4.33-2.33-8.31-4.24-12.2-1.32-2.7-2.81-5.32-4.18-8-.41-.81-1.02-1.63-.49-2.63,2.05-.32,2.25-.31,3.13,1.34,1.91,3.57,3.73,7.18,5.57,10.78,1.51,2.94,2.75,5.98,3.22,9.29.21,1.45,0,2.75-.79,3.97Z"/>
            <path class="cls-2" d="m304.15,246.35c-1.87.06-3.11-1.22-4.39-2.24-4.8-3.81-9.71-7.41-15.52-9.59-.34-.13-.7-.31-.96-.56-.63-.6-1.17-1.27-.6-2.21.48-.8,1.26-.88,1.98-.58,2,.81,4.07,1.54,5.92,2.63,3.48,2.04,6.86,4.26,10.2,6.53,1.15.78,2.14,1.85,3.02,2.93.7.85,1.32,1.89.35,3.09Z"/>
            <path class="cls-2" d="m173.14,54.05c-1.44-.33-1.79-1.31-2.2-2.27-.71-1.64-1.44-3.27-2.25-4.87-1.89-3.74-4.32-7.05-7.65-9.67-1.02-.8-1.85-1.85-2.69-2.84-.17-.2-.15-.84.02-.99.3-.26.8-.41,1.21-.39.33.01.67.31.99.51,5.23,3.33,9.21,7.75,11.7,13.45.53,1.21,1.06,2.41,1.53,3.64.46,1.2.46,2.36-.65,3.44Z"/>
            <path class="cls-2" d="m361.02,443.66c2.87-.32,3.51.13,3.11,2.16-1.05,5.29-1.12,10.64-.98,16,.03,1.13.05,2.26.03,3.39-.01.7-.24,1.46-1.05,1.38-.54-.05-1.15-.52-1.49-.98-.3-.41-.36-1.05-.39-1.6-.17-2.53-.48-5.07-.38-7.59.13-3.46.57-6.91.89-10.36.07-.74.17-1.48.27-2.4Z"/>
            <path class="cls-2" d="m184.18,54.79c1.42.09,1.98,1.06,2.52,2.07,1.74,3.28,2.58,6.81,3.09,10.47.38,2.73-.01,5.42-.1,8.12-.07,2.27-.51,2.49-3.22,1.8-.03-.41-.17-.89-.07-1.31,1.41-6.15.03-11.91-2.4-17.54-.53-1.24-.91-2.48.18-3.62Z"/>
            <path class="cls-2" d="m312.9,333.94c.32-1.13.53-2.01.82-2.86.3-.89.67-1.75,1.1-2.88-1.24-1.24-2.51-2.47-3.74-3.75-2.04-2.14-3.19-4.68-3.03-7.66.05-1.07.47-2.13.71-3.17,2.34.34,2.38.35,2.48,1.78.05.75.05,1.51.02,2.26-.06,1.61.55,2.94,1.63,4.09.58.62,1.18,1.22,1.8,1.81,3.16,2.98,3.58,5.21,1.7,9.07-.64,1.31-.89,1.43-3.48,1.31Z"/>
            <path class="cls-2" d="m252.54,391.39c-6.83.12-12.54-1.67-16.73-7.04-1.08-1.38-.98-1.99.39-3.61,2.49,1.79,4.81,3.94,7.53,5.28,2.73,1.35,5.87,1.88,9.04,2.84-.07.81-.14,1.6-.23,2.54Z"/>
            <path class="cls-2" d="m112.99,80.36c.31-1.58.87-2.17,2-2.26,1.69-.13,3.4-.26,5.06-.59,3.37-.67,6.47-2.04,9.29-4.02.77-.54,1.53-1.13,2.35-1.56.34-.18,1.06-.2,1.25.02.31.36.55,1.05.41,1.45-.24.67-.71,1.35-1.26,1.81-4.92,4.1-10.61,6.03-17.02,5.79-.68-.03-1.35-.4-2.1-.64Z"/>
            <path class="cls-2" d="m170.44,115.48c.56-.81,1.1-1.79,1.81-2.61,2.13-2.48,2.29-3.09.5-5.62-1.78-2.52-2.09-5.37-2.24-8.28-.03-.54.09-1.13.29-1.64.37-.92,1.22-1.3,2.07-.96.45.18.75.95.94,1.51.14.42.02.93-.03,1.4-.24,2.24.36,4.23,1.59,6.12.96,1.48,1.74,3.01,1.45,4.99-.35,2.45-1.84,4.09-3.51,5.57-.73.64-1.89.98-2.86-.48Z"/>
            <path class="cls-2" d="m168.32,124.32c.41,1.73-.79,2.33-1.84,2.89-3.33,1.75-6.91,1.98-10.45,1.01-1.43-.39-3.23-1.91-4.76-1.69-2.12.31-.9,3.02.17,4.17,2.03,2.18,5.33,2.29,8.04,2.59.5.06,1.07.17,1.3.61.24.46-.06,1.05-.51,1.32s-.99.29-1.51.3c-1.44.04-2.89.09-4.31-.18-3.88-.73-6.61-4.5-6.93-8.33-.14-1.72.17-4.88,2.57-4.57.71.09,1.39.5,2.06.84,1.94.97,3.88,1.87,6.1,2.11,2.21.24,4.31.07,6.35-.79,1.15-.48,2.28-.9,3.72-.29Z"/>
            <path class="cls-2" d="m312.98,348.19c-.91,2.39-2.75,3.64-4.89,4.51-4.06,1.65-8.14.85-12.19-.09-.26-.06-.52-.24-.74-.41-.73-.58-1.71-1.16-1.25-2.25.43-1.02,1.47-.62,2.26-.47,1.48.27,2.92.72,4.41.95,3,.48,5.82.05,8.25-1.97.57-.48,1.22-.9,1.91-1.17.84-.33,1.68-.26,2.26.9Z"/>
            <path class="cls-2" d="m275.05,303.22c1.27-2.65,3.7-3.73,6.16-4.53,2.52-.82,5.17-.84,7.78-.14,1.12.3,2.2.72,2.71,1.82.2.43.17,1.17-.08,1.53-.25.35-.92.43-1.42.57-.15.04-.37-.07-.53-.15-3.63-1.9-7.1-.95-10.53.6-1.27.57-2.53,1.27-4.07.31Z"/>
            <path class="cls-2" d="m312.18,371.19c1.34-.64,2.72-.33,4.07-.05,3.22.69,6.32.37,9.32-.96,1.56-.69,2.55-.65,3.07.14.5.75-.18,2.08-1.74,2.78-3.4,1.54-6.91,2.13-10.69,1.42-1.86-.35-3.13-1.1-3.98-2.7-.08-.15-.04-.36-.06-.64Z"/>
            <path class="cls-2" d="m151.7,80.8c1.48.25,2.99.4,4.42.8.65.18,1.28.76,1.71,1.32.27.35.36,1.15.14,1.48-.24.37-.95.61-1.44.58-.74-.03-1.46-.33-2.18-.54-3.06-.89-5.96-.35-8.81.88-.26.11-.52.24-.78.34-1.63.68-2.31.59-2.65-.31-.32-.85.11-1.83,1.4-2.46,2.56-1.24,5.23-2.18,8.19-2.1Z"/>
            <path class="cls-2" d="m194.31,43.14c2.11.32,2.61.7,2.77,2.3.34,3.26-.16,6.39-1.82,9.26-.56.98-1.24,1.89-1.91,2.81-1.31,1.78-1.48,1.82-4.29,1.13,1.52-2.42,3.13-4.72,4.44-7.18,1.37-2.57.5-5.53.8-8.31Z"/>
            <path class="cls-2" d="m110.92,91.14c-.45,0-.74.03-1.02,0-1.35-.14-2.27-.82-2.32-1.69-.05-.82.84-1.59,2.28-1.61,2.93-.05,5.56-.8,7.93-2.59.63-.48,1.56-.68,2.37-.78,1.15-.14,1.7.84,1.11,1.87-.18.32-.43.63-.72.87-2.85,2.32-6.08,3.75-9.64,3.94Z"/>
            <path class="cls-2" d="m186.7,86.54c-.7-.24-1.24-.4-1.77-.6-2.09-.81-4.17-.87-6.33-.16-1.03.34-2.15.37-3.37.56-.46-1.87.45-2.85,1.68-3.34,3.2-1.28,6.44-1.29,9.54.39,1.23.67,1.26,1.25.25,3.14Z"/>
            <path class="cls-2" d="m325.94,299.14c-1.04-.16-1.88-.24-2.7-.43-1.9-.43-3.71-.41-5.51.51-1.29.66-1.35.55-3.31.03.12-1.43.86-2.37,2.17-2.96,2.53-1.14,5.15-1.03,7.76-.5,1.34.27,1.71,1.16,1.59,3.35Z"/>
            <path class="cls-2" d="m283.57,318.64c.01-1.57,1.33-2.99,2.79-3,1.42-.02,2.84,1.73,2.75,3.4-.08,1.63-1.35,3.13-2.69,3.18-1.54.06-2.86-1.6-2.85-3.58Z"/>
            <path class="cls-2" d="m93.43,88.51c1.58-1.34,2.04-1.51,3.44-.43,1.17.91,2.16,2.07,3.15,3.19.28.32.46.89.39,1.3-.09.5-.39,1.07-.79,1.35-.26.19-.86-.06-1.3-.16-.17-.04-.32-.2-.44-.34-1.45-1.59-2.89-3.18-4.46-4.91Z"/>
            <path class="cls-2" d="m317.61,313.47c0-1.83.87-2.94,2.31-2.92,1.39.02,2.66,1.35,2.64,2.77-.02,1.65-1.27,3.12-2.65,3.11-1.39-.01-2.3-1.19-2.3-2.97Z"/>
            <path class="cls-2" d="m147.72,100.45c.33-.36.43-.55.58-.62,1.52-.64,2.75-.43,3.21.54.61,1.26,0,3.35-1.16,3.99-1.27.7-2.49.09-2.62-1.36-.08-.92-.02-1.86-.02-2.55Z"/>
            <path class="cls-2" d="m182.78,98.66c-.02,1.15-1.18,2.56-2.15,2.59-1.28.04-2.35-1.21-2.28-2.65.07-1.36,1.3-2.7,2.43-2.63,1.01.06,2.02,1.41,2,2.69Z"/>
          </g>
          <path class="cls-4" d="m197.74,327.31c-.46,5.91-.32,11.99,1.65,17.58,2.28,6.44,6.8,11.78,10.58,17.47,7.09,10.68,12.28,19.26,24.46,24.87,10.73,4.94,23.26,6.15,34.63,2.74-4.79,1.43-11.42-16.16-11.95-19.2-1.72-9.86,2.89-18.1,8.83-25.65,5.8-7.38,12.47-15.25,12.4-24.64-.04-5.41-2.39-10.75-1.59-16.1.81-5.4,4.75-9.87,9.28-12.93,4.53-3.05,9.7-4.98,14.57-7.45,8.04-4.08,17.46-10.1,21.26-18.68,3.36-7.6,1.31-20.25-4.78-25.96-8.07-7.58-19.75-9.56-30.71-11.2-5.51-.82-13.43,1.98-19.05,2.7-9.28,1.18-19.34,1.37-28.35,3.97-11.86,3.42-22.78,11.56-27.41,23-4.56,11.27-2.77,23.67-5.13,35.36-2.4,11.87-7.71,21.54-8.7,34.11Z"/>
          <path class="cls-4" d="m318.83,367.54c-1.79,3.33-3.97,6.8-7.47,8.23-.22,1.49,1.71,2.25,3.21,2.43,10.51,1.23,18.56-.86,26.9-7.66-3.12-2.4-6.24-4.89-8.58-8.06-3.22-4.37-2.8-9.57-5.2-14.19-5.09,4.96-5.57,13.14-8.85,19.25Z"/>
          <path class="cls-3" d="m84.98,19.67c-1.01.9-1.95,1.92-2.8,3.11-3.01,4.18-5.59,9.05-10.15,11.45-10.56,5.54-8.77,25.45-6,35.48,2.11,7.66,5.94,14.72,8.89,22.09,2.96,7.38,5.06,15.45,3.48,23.24.21-1.05,4.85-4.25,5.73-5.65,1.76-2.78,2.27-5.63,2.72-8.81.88-6.18-1.65-12.32-.35-18.37.71-3.3,3.03-6.48,6.33-7.16,3.54-.73,7.13,1.63,9.05,4.7s2.59,6.72,3.4,10.25c.33,1.44.77,2.99,1.97,3.86,1.7,1.24,4.09.53,5.98-.4,7.86-3.9,13.66-10.89,19.22-17.68,1.46-1.79,2.95-3.62,3.74-5.79.52-1.42.84-3.11,2.14-3.86,1.03-.6,2.32-.38,3.51-.44,7.07-.36,9.63-9.88,15.8-13.34,5.51-3.09,12.35-.65,18.16,1.81.31-2.18,2.97-3.36,5.13-2.91,4.33.9,12.78,12.71,9.19,16.94,2.62-3.09,4.99-6.5,6.12-10.39,1.13-3.89.9-8.33-1.38-11.68-2.28-3.35-6.83-5.24-10.6-3.78-1.06-9.33-2.4-15.21-9.49-21.67-11.53-10.51-29.43-15.09-44.78-13.18-6.3.78-12.44,3.02-18.64,4.31-9.11,1.9-19.39,1.66-26.38,7.87Z"/>
        </g>
      </g>
    </g>
  </g>
</svg>