<?xml version="1.0" encoding="UTF-8"?>
<svg id="_レイヤー_2" data-name="レイヤー 2" xmlns="http://www.w3.org/2000/svg" viewBox="0 0 476.82 420.16">
  <defs>
    <style>
      .cls-1 {
        fill: #f8eacb;
      }

      .cls-2 {
        fill: #fff;
      }

      .cls-3 {
        fill: #939393;
      }

      .cls-4 {
        fill: #c5c5c5;
      }
    </style>
  </defs>
  <g id="_レイアウト" data-name="レイアウト">
    <g>
      <path class="cls-4" d="m371.37,331.65c-1.29,1.69-1.7,3.5.35,5.39,2.51,2.11,5.2,4.02,8.03,5.68,1.32.78,2.77,1.53,4.3,1.44,1.26-.08,2.4-.71,3.48-1.35,5.04-2.99,10.17-6.45,14.65-10.21,3.76-3.15,1.7-7.14-2.23-9.66-3.91-2.51-9.51-7.71-14.13-4.9-3.51,2.14-6.26,5.21-8.94,8.28-1.39,1.6-4.03,3.39-5.51,5.33Z"/>
      <path class="cls-4" d="m433.09,302.08c-3.12-.7-6.21-1.53-9.26-2.29-12.92-3.24-25.61-7.93-35.59-17.06-.91-.83-1.82-1.73-2.24-2.88-.39-1.06-.34-2.24-.27-3.37.49-7.76,1.35-15.58,3.83-22.95,2.62-7.81,7.78-14.85,13.09-21.04,6-7,13.42-3.98,20.92-1.12,5.73,2.18,12.08,2.97,17.89,5.09,7.65,2.78,15.01,6.35,21.94,10.63,6.3,3.89,12.61,7.72,13.36,15.83.31,3.32-.77,6.6-1.87,9.74-2.46,7.01-4.81,16.6-9.5,22.48-1.73,2.16-4.13,3.95-6,6.06-4.74,5.33-10.54,2.92-16.58,2.45-3.24-.25-6.49-.85-9.72-1.57Z"/>
      <g>
        <path class="cls-1" d="m98.96,209.16c7.46,19.03,1.67,42.07.13,61.74-12.25-12.99-23.51-26.42-26.65-44.72-1.65-9.59-6.24-16.94-10.44-25.83-12.65-26.81-9.65-63.94,15.47-82.69,3.85-2.87,8.06-5.23,12.29-7.49,18.61-9.95,37.66-16.82,54.33-29.88,10.35-8.11,19.87-17.28,28.37-27.31,7.11-8.39,14.03-17.84,23.17-24.17,8.86-6.13,17.96-11.98,27.27-17.41,8.18-4.77,17.26-6.98,26.79-7.07,5.2-.05,10.38.29,14.93,2.98,2.56,1.52,6.73,5.28,4.91,8.6-.9,1.63-2.59,2.64-4.17,3.63-3.91,2.43-7.63,5.15-11.14,8.13-1.63,1.39-3.24,2.86-4.31,4.72-3.36,5.81-.59,13.59-3.54,19.62-1.09,2.22-2.88,4.03-4.13,6.17-4.72,8.13-1.27,18.99-2.12,27.84-2.11.46-4.46.61-6.63.27-2.02-.32-3.94-1.28-5.9-1.97.73-1.59,0-2.5-1.36-3.31-8.03-4.82-5.51,11.39-3.95,15.34,1.23,3.13,3.12,5.95,4.73,8.9,5.98,10.93,8.16,23.89,6.09,36.18-.46,2.75-1.15,5.51-2.56,7.92-4.43,7.55-13.45,10.4-20.97,13.72-10.2,4.49-20.34,9.71-29.49,16.1-8.16,5.71-15.74,12.67-25.2,15.79-12.44,4.1-15.63,16.3-26.67,21.53-2.26-7.08-2-14.67-1.92-22.1.16-14.79-.47-29.58-1.9-44.3-1.07-10.97-.58-29.13-16.15-29.06-5.24.02-10.15,2.36-14.86,4.64-7.9,3.83-16.53,8.46-19.34,16.77-1.51,4.45-1.07,9.31-.23,13.93,1.84,10.17,5.53,19.99,10.83,28.86,4.79,8,10.9,15.29,14.31,23.97Z"/>
        <path class="cls-3" d="m387.26,222.82c-3.47-3.1-6.35-9.2-8.98-13.23l-.05-.23-.23-.02c-8.71-7.7-18.06-14.48-28.5-19.67-5.33-2.65-10.76-5.09-16.14-7.62-1.06-.65-2.15-1.39-1.93.85-.72,4.74-1.35,9.5-2.25,14.2-.22,1.13-1.36,2.07-2.08,3.1-1.59-.77-1.37-2.03-1.14-3.48.76-4.87,1.6-9.74,2.03-14.64.72-8.39-1.43-15.98-6.87-22.59-5.1-6.19-10.5-12.28-9.99-21.8-4.35,4.82-6.34,9.82-7.59,15.19-.11.46.14,1,.19,1.51.73,7.18,3.88,13.51,7.4,19.59,6.52,11.24,9.13,23.13,6.89,35.99-1.5,4.13-2.99,8.27-4.49,12.4-.13.16-.26.32-.39.49-1.27-.35-2.54-.69-4.2-1.14-.54,2.94-1.11,6.04-1.68,9.15-.03.29-.06.59-.09.88-.24,1.17-.48,2.35-.73,3.52-.06.44-.13.88-.19,1.32-.91,5.89-1.81,11.77-2.72,17.66-.03.2-.06.4-.08.6.02,3.34-.29,6.71.12,10,2.57,20.87.97,41.57-2.17,62.23-.38,2.48-.73,4.97-1.1,7.45-.04.06-.1.12-.1.18-.01.13,0,.27,0,.4-1.55,8.15-3.09,16.3-4.64,24.45-.05.19-.1.39-.14.58-4.76,18.04-9.51,36.08-14.29,54.11-.29,1.11-.66,2.22-1.08,3.29-.47,1.18-.53,3.14-2.46,2.53-2.17-.68-.95-2.41-.57-3.7,1.27-4.33,2.82-8.58,3.88-12.95,5.02-20.67,9.91-41.38,14.84-62.07.19-.81.2-1.66.3-2.49l.18-.16-.1-.23c.49-2.98.99-5.97,1.48-8.95.06-.08.17-.16.17-.23-.01-.18-.08-.36-.13-.54.27-1.64.54-3.28.81-4.91.03-.2.06-.4.09-.6.57-4.71,1.15-9.42,1.72-14.13.01-.33.02-.66.03-.99.38-6.43.76-12.86,1.13-19.29v-1.03c-.14-4.79.03-9.62-.49-14.37-1.04-9.39-1.34-18.73.21-28.08.17-.16.21-.35.12-.56.98-2.65.29-5.07-.82-7.55-3.56-8-9.03-14.61-15.04-20.82-4.01-4.15-8.39-7.97-12.15-12.32-5.34-6.17-10.66-12.43-15.28-19.14-6.35-9.21-13.26-17.84-21.55-25.36-.81-.73-1.13-2-1.67-3.01,1.01-.31,2.02-.62,3.03-.93,0,0,.22-.04.22-.04l-.16-.21s0-.14,0-.14c-.11-.19-.23-.38-.34-.57-1.72.49-3.77.53-5.08,1.54-3.72,2.87-7.08,6.18-10.67,9.22-7.59,6.45-7.77,10.18-.18,16.65,17.82,15.18,34.1,31.92,50.03,49.01,8.43,9.04,16.74,18.22,23.3,28.78,1.26,2.03,2.13,4.3,3.18,6.47l.13.85c-1.02,1.63-2.44,2.15-3.27.16-3.9-9.4-10.41-17.01-17.17-24.27-13.99-15.03-28.44-29.63-42.71-44.4-.21-.22-.5-.37-.76-.55-.04-.23-.18-.36-.41-.39-1.75-1.66-3.5-3.33-5.25-4.99l-.04-.21-.19.03c-2.42-2.16-4.93-4.22-7.25-6.49-2.96-2.9-5.77-5.96-8.64-8.95.06-.39.12-.79.19-1.18-1.21.74-2.36,1.63-3.65,2.2-12.46,5.53-24.82,11.31-37.45,16.42-15.94,6.45-26.16,18.39-33.66,33.22-1.43,2.83.55,5.22,1.2,7.77.09.29.18.59.27.88,2.68,6.82,5.28,13.67,8.13,20.42.42.99,2.01,1.92,3.18,2.09,8.52,1.21,12.64,6.96,14.8,14.44,2.06,7.14,5.63,13.18,10.81,18.5,4.91,5.04,7.51,11.58,10.13,17.99,2.34,5.72,4.44,11.54,6.65,17.31-.45.94-.9,1.88-1.35,2.82-.79-1-1.86-1.89-2.33-3.03-3.2-7.74-5.96-15.67-9.52-23.24-2.02-4.28-4.96-8.26-8.09-11.85-3.87-4.44-6.84-9.19-8.55-14.82-.85-2.79-1.92-5.56-3.28-8.14-2.02-3.82-5.11-6.33-9.71-6.4-.1.32-.21.63-.31.95.49,1.61.42,3.45,2.57,4.24.61.22,1.07,1.76,1.04,2.67-.16,6-.48,11.99-.75,17.99-.18.16-.22.36-.13.58-3.06,13.98-7.45,27.52-13.4,40.55-1.47,3.23-2.29,6.76-3.66,10.05-3.43,8.17-9.82,10.1-17.26,5.3-3.69-2.38-6.7-5.45-8.43-9.52-.43-1.01-.39-3.13.19-3.49,1.73-1.04,2.08.81,2.75,1.96,1.01,1.73,2.18,3.37,3.68,4.72-3.28-11.68-6.57-23.37-9.89-35.18-.28.32-.78.76-1.12,1.3-2.66,4.14-5.51,8.19-7.88,12.49-2.97,5.4-3.58,10.92-.62,16.82,4.47,8.91,8.48,18.04,12.59,27.13.52,1.15.47,2.56.69,3.85-1.64.85-2.54.04-3.19-1.39-4.81-10.45-9.68-20.87-14.4-31.36-1.71-3.8-1.58-7.91.04-11.63,2.03-4.66,4.66-9.07,7.03-13.58.22-.29.44-.57.66-.86,3.9-4.97,6.07-10.28,4.47-16.82-1.03-4.24-1.33-8.65-2.02-12.98-.14-.86-.56-1.68-.86-2.52-.25-.17-.51-.34-.76-.51-6.42-8.39-10.15-17.98-12.67-28.12.53-.89,1.06-1.77,1.58-2.66.66.81,1.59,1.51,1.93,2.43,2.27,6.05,4.39,12.17,6.65,18.22.39,1.04,1.23,1.91,1.86,2.86.28.49.56.99.84,1.48.13-.07.26-.15.39-.22l-.38-1.72c-1.91-17.95-3.82-35.91-5.74-53.86-.16-1.54-.74-3.16,1.13-4.12,1.97.34,1.94,1.94,2.11,3.38.92,7.6,1.92,15.19,2.71,22.8,2.3,22.21,4.2,44.47,8.37,66.44,2.69,14.15,5.71,28.18,12.41,41.11,1.63,3.14,4.42,3.9,6.98,1.39,1.58-1.55,2.76-3.68,3.65-5.75,1.74-4.04,3.02-8.27,4.71-12.33,4.95-11.94,9.26-24.07,11.54-36.84.02-.33.04-.65.05-.98,1.19-4.64,1.62-9.28-.11-13.9-3.24-8.64-6.79-17.17-9.66-25.93-3.49-10.65-6.33-21.52-9.61-32.24-1.9-6.2-2.04-12.37-.6-18.63.17-.16.22-.36.14-.58.25-1.5.5-3,.75-4.49.04-.42.07-.84.11-1.26,1.4-9.19,1.3-18.35-.4-27.5-.04-.49-.08-.98-.12-1.46.08-2.39.15-4.78.23-7.17.16-.16.2-.35.1-.55.19-1.03.72-2.13.5-3.06-.42-1.83-.79-4.05-2.02-5.23-1.66-1.58-3.98-.67-5.85.45-4.16,2.5-4.42,2.56-5.09-2.35-.42-3.03-.03-6.21.37-9.27.1-.79,1.65-1.38,2.53-2.06.26,0,.52,0,.78,0-.12-.37-.23-.73-.35-1.1-.56-1-1.13-2-1.69-3-.13-.2-.31-.27-.54-.23-1.42-.45-2.85-.89-4.27-1.34-.21.04-.43.08-.64.12-5.8,1.64-8.55,5.51-8.37,11.5,0,.31.05.7-.1.93-.53.77-1.15,1.48-1.73,2.21-.51-.87-1.43-1.72-1.46-2.6-.05-2.01.33-4.04.54-6.06-.26-.34-.52-.68-.77-1.02-2.23,1.35-4.37,2.93-6.73,3.99-2.13.96-2.94,2.32-3.06,4.55-.07,1.37.81,3.74-1.6,3.74-2.61,0-1.38-2.51-1.79-3.95-.29-.13-.58-.25-.88-.38-2.33,1.37-4.7,2.68-6.97,4.14-.58.37-1.03,1.19-1.21,1.89-.41,1.59-.77,3.22-.88,4.85-.16,2.44-.39,4.93-.04,7.33.39,2.67,1.39,5.24,2.12,7.86.46,1.65.35,2.96-1.8,3.08-.68-1.49-1.52-2.93-2-4.49-1.02-3.3-1.86-6.66-2.77-10.02-3.3.32-4.32-.68-2.68-3.71,1.76-3.24,3.88-6.67,6.75-8.82,4.57-3.43,9.82-6.01,14.91-8.7,6.21-3.28,12.74-6.01,18.79-9.56,3.73-2.19,6.79-5.53,10.23-8.25.77-.61,1.88-.8,2.83-1.18-.1,1.09.2,2.53-.39,3.22-1.95,2.3-4.21,4.33-6.7,6.8,6.15,1.02,6,6.53,8.14,11.16,2.49-1.03,4.91-2.15,7.42-3.02.92-.32,2.05-.05,3.09-.06-.51.97-.8,2.5-1.57,2.81-4.63,1.82-9.38,3.36-14.08,4.99-.2-.22-.4-.43-.6-.65.07,1.06.15,2.13.25,3.54,1.26-.4,2.2-.73,3.16-.99,5.36-1.46,9.77,1.67,10.16,7.2.01.21.06.43.01.63-2.01,8.49.57,16.91.34,25.35-.21,7.73-.88,15.48-1.93,23.15-.71,5.17-1.18,10.15.37,15.23,1.09,3.57,1.81,7.25,2.7,10.9,3.63-5.01,6.85-10.01,10.64-14.55,6.54-7.84,14.49-13.73,24.12-17.63,13.13-5.31,25.95-11.37,38.9-17.1,1.98-.87,3.17-2.24,4.29-4.2,1.57-2.75,3.92-5.11,6.23-7.35,3.15-3.06,6.63-5.78,9.84-8.77,2.39-2.23,5.11-3.2,8.58-2.77,1.72-9.26,2.61-18.33,0-27.44-.2-.71-.55-1.41-.58-2.12-.03-.87.21-1.75.33-2.63.91.28,1.82.56,2.73.84,2.98,9.51,2.92,19.18,1.52,28.92-.01.36-.03.71-.04,1.07-.42,2.69-.93,5.36-1.19,8.07-.07.77.41,1.84.99,2.39,8.54,8.07,14.86,17.86,21.76,27.25,5.56,7.56,12.22,14.36,18.77,21.13,7.32,7.56,14.55,15.13,19.72,24.4.22.35.44.69.66,1.04.1-.24.19-.48.29-.72,1.66-9.46,3.32-18.91,4.98-28.37.06-.06.17-.13.17-.19,0-.16-.06-.32-.1-.48.54-8.11,1.1-16.21,1.59-24.32.05-.78-.26-1.65-.62-2.37-2.48-5.05-5.01-10.08-7.43-14.9-.86.08-2.18.56-2.63.13-.53-.51-.36-1.8-.4-2.76-.03-.62.11-1.24.18-1.86l.16-.13-.09-.21c1.37-4.8,2.48-9.7,4.18-14.38,2.28-6.25,6.98-10.24,13.18-12.56,2.93-1.1,5.97-2.07,8.67-3.59,2.29-1.29,4.18-3.31,6.25-5,.1-.18.2-.35.3-.53,1.66-2.46,1.63-5.15.89-7.85-.77-2.83-1.84-5.58-2.51-8.42-.28-1.2.11-2.56.2-3.85,1.52-.26,2.3.37,2.71,1.88.83,3.04,1.91,6,2.71,9.04,1.86,7-.13,12.5-6.38,16.18-3.68,2.16-7.77,3.66-11.75,5.25-1.76.7-2.59,1.64-2.89,3.55-.69,4.35.66,8.14,2.97,11.61,2.15,3.22,4.61,6.25,7,9.3,3.8,4.84,6.08,10.29,6.54,16.42.13,1.69.71,2.7,2.26,3.34,2.13.88,4.2,1.9,6.3,2.85,0,0,.23.21.23.21l.31.03c10.54,4.91,20.9,10.14,30.14,17.32.3.23.6.46.9.69,4.98,3.82,9.48,7.1,13.16,12.33,2.07,2.93,7.19,7.88,2.82,11Zm-73.83-35.23l-.05-.08.07.09c-.08.87-.15,1.75-.23,2.62-1.25,10.39-2.49,20.77-3.77,31.43,5.31-6.06,7.48-20.55,4.83-31.08-.28-.99-.57-1.99-.85-2.98Zm-192.12-52.8c.33.05.66.1.99.15-.02-.6-.03-1.2-.05-1.8-.2,0-.4-.02-.6-.02-.11.56-.23,1.12-.34,1.68Z"/>
        <path class="cls-3" d="m282.75,13.21c-1.43.08-2.02-.61-2.76-1.91-1.07-1.89-2.62-3.83-4.46-4.92-4.55-2.69-9.73-3.03-14.93-2.98-9.54.09-18.62,2.3-26.79,7.07-9.31,5.43-18.41,11.27-27.27,17.41-8.69,6.01-14.76,14.44-19.96,23.56-5.41,9.46-12.82,17.33-20.52,24.93-.6.6-1.62.78-2.44,1.15-1.57-1.16-.81-2.34-.03-3.52l.59-.52c8.2-7.89,15.61-16.43,21.19-26.41,5.48-9.81,13.08-17.64,22.11-24.19,9.11-6.61,18.5-12.76,28.8-17.35,11.41-5.09,23.3-7.18,35.58-4.05,3.3.84,6.45,2.94,9.22,5.04,1.95,1.48,3.25,3.94,1.66,6.69Z"/>
        <path class="cls-3" d="m196.13,290.65c-.77-6.63-1.16-13.34-2.44-19.87-.7-3.55-2.94-6.79-4.36-10.23-.37-.89-.28-1.97-.4-2.97.97.29,2.48.28,2.82.91,1.87,3.45,3.94,6.91,5,10.64,1.21,4.28,1.43,8.84,2.08,13.27.05.49.11.97.16,1.46.88,8.7,1.77,17.41,2.63,26.11.2,2.07.26,4.16.39,6.24.03.26.06.53.09.79-.89,15.15-1.53,30.32-2.77,45.44-.61,7.48-2.32,14.87-3.54,22.31-.16.61-.32,1.22-.48,1.83-.38,1.14-.81,2.28-1.14,3.44-.41,1.4-1.19,2.07-2.68,1.59-.25-.25-.5-.5-.76-.76,1.21-5.77,2.42-11.53,3.63-17.3.04-.2.08-.39.12-.59.25-1.74.5-3.49.75-5.23,0,0,.18-.2.18-.2l-.1-.26c.19-1.29.38-2.58.56-3.87.17-.17.2-.36.09-.58,2.98-23.55,4.1-47.11.31-70.69-.05-.49-.1-.99-.15-1.48Z"/>
        <path class="cls-3" d="m127.87,103.53c4.31-2.76,8.63-5.52,12.94-8.28.62-.4,1.15-1.06,1.81-1.21.69-.15,1.8-.07,2.15.36.33.4.11,1.56-.26,2.13-.42.66-1.26,1.07-1.94,1.56-13.33,9.69-27.85,17.09-43.36,22.63-8.27,2.95-16.08,6.67-21.72,13.83-4.76,6.05-7.76,12.94-9.63,20.31-1.18,4.66-1.89,9.44-2.81,14.17-.32,2.01-.47,4.06-1.05,6-.28.95-1.36,1.66-2.07,2.48-.13-.16-.3-.23-.5-.21-.24-.76-.77-1.56-.67-2.27,1.52-10.98,2.84-22.07,7.9-32.11,2.42-4.79,5.88-9.06,8.86-13.57.34-.34.69-.68,1.03-1.03,5.73-5.07,12.52-8.22,19.63-10.81,10.32-3.76,20.44-7.96,29.68-13.99Z"/>
        <path class="cls-3" d="m162.88,79.68c11.97-1.96,23.8.48,35.69,1.15,6.77.38,13.38-.29,19.65-3.21.8-.37,1.99.09,3.01.17-.58.94-.93,2.32-1.77,2.76-5.32,2.77-11.12,3.85-17.04,3.62-7.01-.28-14-.9-20.99-1.56-18.01-1.71-34.01,3.08-48.05,14.48-.82.66-2.01.85-3.03,1.26-1.63-1.73-.37-2.75.9-3.81,8.59-7.13,18.34-11.84,29.23-14.22.81-.18,1.6-.42,2.4-.64Z"/>
        <path class="cls-3" d="m67.05,170.18c.79-2.82,1.56-5.65,2.39-8.46.36-1.22.85-2.72,2.46-2,.54.25.87,2.03.59,2.88-4.27,13.1-3.59,25.99,1.31,38.76-1.88,2.14-2.7,2.03-3.74-.71-3.27-8.64-4.31-17.57-3.38-26.74.13-1.24.25-2.49.38-3.73Z"/>
        <path class="cls-3" d="m76.28,202.53c.39-1.45-.9-3.98,1.61-4.07,2.52-.1,1.46,2.47,1.87,3.91.92,3.22,1.64,6.5,2.78,9.64,2.33,6.41,2.97,12.81.73,19.36-.75,1.46-1.39,2.98-2.27,4.36-1.33,2.07-2.3,1.91-3.53-.44.17-.13.21-.29.1-.48,3.82-5.42,4.7-11.38,3-17.68-1.23-4.55-2.75-9.02-4.15-13.53-.07-.32-.14-.64-.22-.96l.08-.1Z"/>
        <path class="cls-3" d="m308.81,36.97c-.97-.65-2.25-1.09-2.88-1.98-5.26-7.56-12.1-12.8-21.12-15.11-.95-.24-1.69-1.28-2.53-1.95.64-.56,1.29-1.12,1.93-1.68,10.36,2.42,18.48,8.07,24.44,16.88.87,1.29,1.69,2.49.16,3.83Z"/>
        <path class="cls-3" d="m85.11,233.36c.27-.56.55-1.11.8-1.67.56-1.24,1.14-2.83,2.8-1.97.53.28.53,2.12.34,3.17-.69,3.74-1.57,7.45-2.36,11.17-.04.19.03.41.05.61.34,3.1.76,6.19.96,9.3.06.96-.24,2.57-.82,2.81-1.64.68-2.03-.84-2.38-2.08-2.01-7.18-1.32-14.29.62-21.35Z"/>
        <path class="cls-3" d="m328.15,76.53c-1.69-.46-1.89-1.54-1.55-3.12,1.06-5,.56-5.35-4.13-7.27-2.79-1.14-5.32-3.08-7.73-4.97-1.34-1.05-1.38-2.56.6-3.36,1.51,1.24,2.9,2.68,4.57,3.66,1.68.99,3.61,1.57,5.47,2.23,5.49,1.95,6.93,8.56,2.77,12.84Z"/>
        <path class="cls-3" d="m329.36,95.3c-5.11,2.83-10.54,3.9-16.33,2.98-.82-.13-1.77-.17-2.41-.61-.91-.63-2.34-1.74-2.22-2.39.39-1.98,1.96-1.13,3.27-.78,5.61,1.49,10.95.98,15.88-2.3,2.73.29,2.93.63,1.8,3.1Z"/>
        <path class="cls-3" d="m314.79,47.93c-.4-.11-.8-.18-1.18-.33-.86-.34-1.71-.73-2.57-1.09.6-.82,1.2-1.64,1.8-2.45.61.11,1.31.06,1.81.36.73.44,1.31,1.13,1.95,1.71-.6.6-1.21,1.21-1.81,1.81Z"/>
        <path class="cls-1" d="m371.28,199.49c-.3-.23-.6-.46-.9-.69.3.23.6.46.9.69Z"/>
        <path class="cls-1" d="m78.56,128.33c-.34.34-.69.68-1.03,1.03.34-.34.69-.68,1.03-1.03Z"/>
        <path class="cls-1" d="m76.2,202.63c.07.32.14.64.22.96-.07-.32-.14-.64-.22-.96Z"/>
        <path class="cls-1" d="m101.33,273.28c.25.17.51.34.76.51-.25-.17-.51-.34-.76-.51Z"/>
        <path class="cls-1" d="m340.23,181.47l-.31-.03-.23-.21c.18.08.36.16.54.24Z"/>
        <path class="cls-1" d="m164.19,73.48l-.59.52.59-.52Z"/>
        <path class="cls-1" d="m61.44,177.31c.21-.03.37.04.5.21-.17-.07-.33-.14-.5-.21Z"/>
        <path class="cls-1" d="m100.5,306.12c-.22.29-.44.57-.66.86.22-.29.44-.57.66-.86Z"/>
        <path class="cls-1" d="m77.57,234.81c.1.19.07.35-.1.48l-.09-.27.19-.21Z"/>
        <path class="cls-1" d="m318.03,209.96c2.24-12.87-.37-24.75-6.89-35.99-3.53-6.08-6.67-12.4-7.4-19.59-.05-.51-.3-1.04-.19-1.51,1.24-5.37,3.24-10.38,7.59-15.19-.51,9.53,4.89,15.62,9.99,21.8,5.44,6.61,7.6,14.2,6.87,22.59-.42,4.9-1.26,9.77-2.03,14.64-.23,1.45-.45,2.71,1.14,3.48-1.79,2.39-3.48,4.88-5.43,7.14-.95,1.1-2.41,1.76-3.65,2.63Z"/>
        <path class="cls-1" d="m191.78,330c.45-.94.9-1.88,1.35-2.82.72,1.5.6,2.6-1.35,2.82Z"/>
        <path class="cls-1" d="m331.43,182.89c-.22-2.24.87-1.5,1.93-.85-.64.28-1.29.57-1.93.85Z"/>
        <path class="cls-1" d="m306.25,236.57c.06-.44.13-.88.19-1.32-.06.44-.13.88-.19,1.32Z"/>
        <path class="cls-1" d="m198.98,283.86c-.05-.49-.11-.97-.16-1.46.05.49.11.97.16,1.46Z"/>
        <path class="cls-1" d="m196.13,290.65c.05.49.1.99.15,1.48-.05-.49-.1-.99-.15-1.48Z"/>
        <path class="cls-1" d="m300.21,335.09c0-.13-.02-.27,0-.4,0-.06.07-.12.1-.18.05.15.11.31.13.46,0,.03-.14.08-.22.12Z"/>
        <path class="cls-1" d="m139.43,236.44c-.09-.29-.18-.59-.27-.88.09.29.18.59.27.88Z"/>
        <path class="cls-1" d="m301.43,287.78v1.03c0-.34,0-.69,0-1.03Z"/>
        <path class="cls-1" d="m152.73,288.95c-.09-.22-.05-.41.13-.58.04.16.09.31.1.47,0,.03-.15.07-.23.11Z"/>
        <path class="cls-1" d="m296.12,338.44l.1.23-.18.16c-.05-.15-.03-.28.07-.4Z"/>
        <path class="cls-1" d="m298.21,267.19l-.13-.85.13.85Z"/>
        <path class="cls-1" d="m202.08,317c-.03-.26-.06-.53-.09-.79.03.26.06.53.09.79Z"/>
        <path class="cls-1" d="m297.64,328.72c.05.18.11.36.13.54,0,.07-.11.15-.17.23.01-.26.03-.51.04-.77Z"/>
        <path class="cls-1" d="m295.42,360.12c.05-.19.1-.39.14-.58.03.16.08.31.09.47,0,.03-.15.07-.23.11Z"/>
        <path class="cls-1" d="m378,209.33l.23.02.05.23c-.15-.03-.24-.11-.28-.25Z"/>
        <path class="cls-1" d="m303.45,254.83c.03-.2.06-.4.08-.6.05.16.12.31.15.47,0,.03-.15.08-.24.12Z"/>
        <polygon class="cls-1" points="237.84 155.38 237.99 155.59 237.77 155.63 237.84 155.38"/>
        <path class="cls-1" d="m301.26,244.77c.1.22.06.4-.12.56-.04-.15-.09-.3-.11-.45,0-.03.15-.07.22-.11Z"/>
        <path class="cls-1" d="m298.54,323.21c-.03.2-.06.4-.09.6-.05-.16-.11-.31-.13-.47,0-.03.14-.09.22-.13Z"/>
        <path class="cls-1" d="m150,263.48c.1-.32.21-.63.31-.95-.1.32-.21.63-.31.95Z"/>
        <path class="cls-1" d="m237.5,154.67c.11.19.23.38.34.57-.11-.19-.23-.38-.34-.57Z"/>
        <path class="cls-1" d="m195.96,362.81c.11.22.08.41-.09.58-.05-.15-.1-.3-.12-.46,0-.03.14-.08.22-.12Z"/>
        <path class="cls-1" d="m195.31,367.26l.1.26-.18.2c-.06-.17-.03-.32.08-.46Z"/>
        <path class="cls-1" d="m307.17,231.73c.03-.29.06-.59.09-.88-.03.29-.06.59-.09.88Z"/>
        <path class="cls-1" d="m194.48,372.95c-.04.2-.08.39-.12.59-.04-.16-.09-.31-.11-.47,0-.03.15-.08.23-.12Z"/>
        <path class="cls-1" d="m233.89,197.73c.23.03.37.16.41.39-.14-.13-.28-.26-.41-.39Z"/>
        <path class="cls-1" d="m300.29,308.1c-.01.33-.02.66-.03.99.01-.33.02-.66.03-.99Z"/>
        <path class="cls-1" d="m313.14,222.84c.13-.16.26-.32.39-.49-.03.16-.05.33-.12.47-.02.04-.18.01-.28.02Z"/>
        <polygon class="cls-1" points="228.41 192.56 228.6 192.54 228.64 192.74 228.41 192.56"/>
        <path class="cls-3" d="m238.5,83.39c-1.06-.18-2.23-.15-3.17-.58-5.61-2.57-10.33-.05-10.75,6.09-.15,2.22.15,4.74,1.08,6.72,3.53,7.47,9.77,11.53,17.79,12.92,2.32.4,4.58.17,6.21-2.05.33-.45,1.41-.35,2.14-.5.14.83.69,2.02.34,2.43-.98,1.14-2.21,2.42-3.58,2.79-2.17.59-4.53.48-6.81.66-5.85-1.68-11.13-4.36-15.3-8.91-4.05-4.41-6.06-9.55-5.12-15.57,1.21-7.72,9.15-11.32,15.83-7.3,1.36.82,2.08,1.72,1.35,3.31Z"/>
        <path class="cls-3" d="m254.41,68.07c.35,2.15.7,4.3,1.05,6.45.53,3.31.12,6.51-1.75,9.3-.54.8-1.93,1.02-2.93,1.51.04-1.07-.24-2.29.18-3.17,1.44-2.99,1.53-5.95.88-9.16-.58-2.89-.6-5.89-.87-8.94-.4.35-1.06,1.11-1.88,1.62-3.35,2.09-6.7,4.2-10.17,6.08-.6.33-1.77-.38-2.67-.61.48-.8.78-2.07,1.46-2.32,8.02-2.91,13.1-9.18,17.92-15.67.96-1.29,1.23-3.25,1.37-4.94.12-1.44.28-2.47,1.9-2.67,2.07,2.14,2.1,5.82-.17,9.05-1.85,2.64-3.94,5.11-5.93,7.65l-.81,1.11c.41.12.82.24,1.23.36,2.03.86.87,2.67,1.2,4.03l-.14.13.13.17Z"/>
        <path class="cls-3" d="m261.33,25.21c-.69,2.91-1.38,5.82-2.08,8.73-.29,1.22-.59,2.43-.89,3.64-.06.2-.13.41-.19.61-.13.39-.27.77-.4,1.16-4.08,10.11-13.04,14.26-22.21,18.13-1.92.81-3.94,1.51-5.98,1.91-.86.17-1.89-.58-2.85-.9.68-.75,1.23-1.79,2.07-2.19,5.75-2.74,11.66-5.13,17.31-8.05,4.36-2.25,7.06-6.15,8.55-10.83,1.14-3.59,2.27-7.19,3.38-10.8.55-1.78,1.56-2.41,3.28-1.42Z"/>
        <path class="cls-3" d="m78.9,168.74c-.53,1.11-1.05,2.23-1.58,3.34-.25-.03-.5-.05-.75-.08.88,1.98,1.66,4.02,2.65,5.94,4.55,8.86,9.39,17.54,16.92,24.33,1.45,1.31.99,2.31-.2,3.36-1.51-1.08-3.23-1.95-4.49-3.27-6.93-7.18-11.67-15.81-16.09-24.66-.58-1.16-1.68-2.15-2.74-2.96-1.99-1.52-.83-3.06-.08-4.43,1-1.82,4.1-2.46,6.36-1.58Z"/>
        <path class="cls-3" d="m271.43,15.47c-.97.2-1.94.41-2.9.61-3.89-1.97-7.69-1.53-11.43.45-6.29,3.34-12.57,6.69-18.88,10.01-1.02.53-2.09,1.07-3.2,1.26-.65.11-1.43-.44-2.15-.69.27-.72.5-1.46.84-2.14.11-.22.54-.28.82-.43,6.78-3.54,13.57-7.04,20.32-10.63,4.69-2.5,9.5-3.35,14.46-1.05.91.42,1.42,1.72,2.12,2.62Z"/>
        <path class="cls-3" d="m285.62,52.45c-.47.05-.95.09-1.42.14-.26-.22-.53-.45-.79-.67.53-1.24.74-2.84,1.65-3.66,3.9-3.54,8.77-4.13,13.78-3.81.65.04,1.23,1.07,1.85,1.65-.66.52-1.27,1.37-2.01,1.5-1.63.3-3.34.13-4.98.36-3.08.43-5.86,1.51-7.71,4.23-.21-.03-.34.06-.36.27Z"/>
        <path class="cls-3" d="m293.04,67.85c-.25-.4-.79-1.26-1.33-2.11.93-.3,1.94-1,2.79-.84,2.24.44,4.08-.04,5.92-1.31.59-.4,1.64-.13,2.48-.17-.19.92-.05,2.19-.61,2.71-2.39,2.26-5.32,2.73-9.24,1.72Z"/>
        <path class="cls-3" d="m233.25,96.16c-.1-2.12,1.35-2.88,3-2.77,2.1.14,4.35.42,6.17,1.35,1.04.53.48,2.31-1.05,2.33-2.56.04-5.13-.28-7.69-.44-.14-.16-.29-.31-.43-.47Z"/>
        <path class="cls-1" d="m253.22,63.73c-.41-.12-.82-.24-1.23-.36l.81-1.11c.14.49.28.98.42,1.47Z"/>
        <path class="cls-1" d="m303.24,233.42c-.1.24-.19.48-.29.72-.22-.35-.44-.69-.66-1.04.31.11.63.21.94.32Z"/>
        <path class="cls-1" d="m283.41,51.92c.26.22.53.45.79.67-.26-.22-.53-.45-.79-.67Z"/>
        <path class="cls-1" d="m299.05,157.97l.09.21-.16.13c0-.12.02-.23.07-.34Z"/>
        <path class="cls-1" d="m233.25,96.16l.43.47-.43-.47Z"/>
        <path class="cls-1" d="m242.25,149.85c.01-.36.03-.71.04-1.07-.01.36-.03.71-.04,1.07Z"/>
        <path class="cls-1" d="m331.64,121.91c-.1.18-.2.35-.3.53,0-.16,0-.32.03-.47,0-.04.17-.04.27-.05Z"/>
        <polygon class="cls-1" points="254.41 68.07 254.27 67.9 254.42 67.77 254.41 68.07"/>
        <path class="cls-1" d="m308.29,204.38c.04.16.09.32.1.48,0,.06-.11.12-.17.19.02-.22.04-.45.06-.67Z"/>
        <path class="cls-1" d="m285.62,52.45c.03-.21.15-.3.36-.27-.11.11-.23.2-.36.27Z"/>
        <path class="cls-1" d="m258.16,38.21c.06-.2.13-.41.19-.61-.06.2-.13.41-.19.61Z"/>
        <path class="cls-1" d="m121.31,134.79c.11-.56.23-1.12.34-1.68.2,0,.4.02.6.02.02.6.03,1.2.05,1.8-.33-.05-.66-.1-.99-.15Z"/>
        <path class="cls-1" d="m314.29,190.57c-.35-.12-.71-.23-1.06-.35.08-.87.15-1.75.23-2.62h-.02c.28.98.57,1.97.85,2.97Z"/>
        <path class="cls-1" d="m101.54,265.57l.38,1.72c-.13.07-.26.15-.39.22-.28-.49-.56-.99-.84-1.48.28-.15.57-.31.85-.46Z"/>
        <path class="cls-1" d="m88.96,139.3c-.29-.13-.58-.25-.88-.38.29.13.58.25.88.38Z"/>
        <path class="cls-1" d="m130.08,162.27c-.04-.49-.08-.98-.12-1.46.04.49.08.98.12,1.46Z"/>
        <path class="cls-1" d="m130.38,191.03c.04-.42.07-.84.11-1.26-.04.42-.07.84-.11,1.26Z"/>
        <path class="cls-1" d="m120.74,131.55c.14-.37.29-.74.43-1.11.12.37.23.73.35,1.1-.26,0-.52,0-.78,0Z"/>
        <path class="cls-1" d="m149.42,287.78c.02-.33.04-.65.05-.98-.02.33-.04.65-.05.98Z"/>
        <path class="cls-1" d="m114.68,125.87c-.21.04-.43.08-.64.12.21-.04.43-.08.64-.12Z"/>
        <path class="cls-1" d="m119.49,127.45c-.18-.08-.36-.16-.54-.23.23-.04.41.04.54.23Z"/>
        <path class="cls-1" d="m129.48,196.1c-.03-.16-.08-.31-.09-.47,0-.03.15-.08.24-.11.07.22.02.42-.14.58Z"/>
        <path class="cls-1" d="m130.2,153.63c-.03-.14-.08-.28-.09-.43,0-.04.13-.08.19-.13.09.21.06.39-.1.55Z"/>
        <polygon class="cls-1" points="313.46 187.6 313.39 187.51 313.44 187.59 313.46 187.6"/>
      </g>
      <g>
        <path class="cls-3" d="m384.8,243.8c1.31-2.97,2.83-5.87,4.66-8.71,2.89-4.49,5.83-9.04,9.86-12.54,1.37-1.2,2.89-2.28,4.63-2.82,1.52-.47,3.15-.51,4.74-.47,5.44.13,10.81,1.11,16.08,2.41,4.69,1.15,9.65,2.16,14,4.23,6.96,3.32,13.46,6.16,19.65,10.98,9.55,7.45,7.15,2.09,14.76,11.47,1.92,2.36,2.48,4.9,1.86,7.92-1.88,9.27-9.87,29.83-15,37.71-1.88,2.89-4.37,5.06-7.74,6.09-.2.03-.4.07-.6.1-7.52.71-.02,1.44-7.37.1l-.53.13c.11.25.22.5.34.75.67,4.66-.29,8.76-4.12,11.85l-.61.65c-.46,4.48-1.78,8.61-4.91,11.99-.14.32-.29.64-.43.95.91,4.38,1.83,8.77,2.74,13.15.12.46.24.93.37,1.39,1.75,9.77,3.53,19.53,5.24,29.3.54,3.09,1.01,6.19,1.31,9.31.09.9-.53,1.87-.83,2.81-1.37-.04-2.17-.39-2.45-2.09-2-12.3-4.12-24.58-6.29-36.85-.83-4.69-1.92-9.32-3.01-14.55-5.74,5.84-11.43,4.7-17.28,1.29-2.79-1.63-5.73-3-8.29-4.34-4.72,4.24-9.17,8.36-13.77,12.3-1.22,1.05-2.85,1.88-4.41,2.2-1.71.35-1.99,1.21-1.91,2.6-.06.29-.12.59-.18.88-.21,13.2-.44,26.4-.6,39.59-.02,1.55.55,3.2-1.42,4.01-2.15-.64-2.03-2.5-2.03-4.12.05-14.41.17-28.82.28-43.72-4.54-1.89-6.98-4.71-9.76-8.55-3.32-4.58,2.6-11.5,5.62-14.46,2.74-2.69,5.8-5.06,8.29-7.98.42-.49.85-1.06.86-1.71.01-.71-.48-1.32-.89-1.91-2.06-2.94-2.56-6.92-1.3-10.28.27-.72.62-1.42.72-2.18.16-1.23-.33-2.44-.53-3.66-.48-2.86.64-5.72,1.74-8.41.33-.81.7-1.67,1.44-2.14,1.54-.98,3.27,1.34,4.26,2.23.7.63,1.53,1.12,2.2,1.78,3.4,3.35,6.86,6.5,12.64,3.49.4-2.2.89-5.16,1.48-8.1,3.35-16.7,9.84-32.01,20.31-45.54.26-.33.51-.67.79-.98.87-.98,1.71-2.65,3.25-1.47,1.76,1.34.19,2.6-.67,3.69-11.67,14.76-18.27,31.66-21.25,50.09-.13.82-.08,1.67-.12,2.5-.08.26-.16.52-.24.78.12.44.1,1.13.39,1.3,4.95,2.81,10,5.22,15.9,5.42,3.97.14,8.12.2,11.84,1.38,7.58,2.41.44,1.6,8.32,1.93,2.12.09,4.26-.22,6.41-.73-2.63-1.65-2.95-3.9-2.29-6.26,2.22-7.84,9.81-27.3,14.68-33.82,1.22-1.63,3.66-2.35,5.96-3.74-.05-.11-.29-1.01-.82-1.66-9.21-11.4-8.49-7.98-21.04-15.77-10.74-6.67-24.67-9.76-36.98-11.95-2.38-.42-4.87-.78-7.17-.03-2.47.81-4.35,2.78-6.03,4.76-9.45,11.14-15.81,24.87-18.18,39.28-.17,1.01-.38,2.13-1.22,2.7-1.15-2.07-1.42-4.54-1.2-6.9.22-2.38.89-4.68,1.58-6.97,1.26-4.21,2.62-8.22,4.33-12.1Zm5.89,66.41c-.06,0-.11-.01-.17-.02.07,0,.14-.02.21-.03.43.86.85,1.72,1.28,2.59,2.12,1.83,4.04,4.02,6.42,5.43,5.5,3.25,11.2,6.15,16.86,9.11,1.65.86,3.44,1.47,5.16,2.19l1,.32c2.03-.64,4.36-.84,6.01-2.01,2.17-1.55,3.92-3.77,5.64-5.88,2.12-2.61,3.13-5.6,2.5-9.09-.13-.69.63-2.12,1.22-2.27,2.76-.7,3.54-2.8,4-5.11.37-1.88.6-3.82.62-5.73,0-.47-.97-1.3-1.57-1.37-4.14-.52-8.29-1.02-12.46-1.26-5.66-.32-10.98-1.58-15.85-4.56-1.24-.76-2.61-1.53-4.01-1.78-1.63-.29-4.26-.67-4.85.16-1.39,1.92.97,3.09,2.24,4.11,7.96,6.42,16.32,11.94,27.31,10.85.61-.06,1.33.92,2,1.42-.61.58-1.18,1.58-1.85,1.65-2.07.23-4.2.31-6.28.1-10.27-1.03-18.03-6.91-25.44-13.4-.67-.59-1.25-1.53-1.43-2.4-1.01-4.81-5.54-6.01-8.39-9.01-3.76,4.95-2.3,8.13,1.53,11.63,9.32,8.51,20.28,14.06,32.84,16.25.84.15,1.51,1.27,2.26,1.94-.84.42-1.76,1.3-2.5,1.17-3.39-.62-6.82-1.26-10.07-2.36-10.11-3.43-19.07-8.86-27.36-16.83l.26,4.34c.1.25.21.5.31.75,1.47,4.04,4.3,7,8.07,8.79,7.36,3.5,14.86,6.71,22.32,10.01,1.34.59,2.81.93,4.06,1.65.53.31,1.02,1.46.83,1.97-.19.5-1.24.83-1.96.92-.56.06-1.19-.33-1.76-.59-8.98-3.97-17.96-7.95-26.94-11.92-.68-.58-1.36-1.16-2.04-1.74Zm-3.96,2.03c-3.48,3.84-7.16,7.68-10.59,11.73-2.89,3.41-2.66,5.48.36,8.73,2.31,2.48,5.19,3.87,8.48,4.37.99.15,2.28.24,3.04-.25,5.27-3.4,9.73-7.7,13.88-12.54-2.91-1.84-5.62-3.26-7.97-5.13-2.43-1.93-4.51-4.3-7.2-6.92Zm84.82-55.62c-5.89,1.62-18.63,32.5-16.4,38.33,5.95-7.86,14.11-28.46,16.4-38.33Z"/>
        <path class="cls-1" d="m437.18,341.14c-.12-.46-.24-.93-.37-1.39.12.46.24.93.37,1.39Z"/>
        <path class="cls-1" d="m434.07,326.6c.14-.32.29-.64.43-.95-.14.32-.29.64-.43.95Z"/>
        <path class="cls-1" d="m444.14,301.15c-.11-.25-.22-.5-.34-.75.18-.04.35-.09.53-.13-.07.29-.13.59-.2.88Z"/>
        <path class="cls-1" d="m451.71,300.16c.2-.03.4-.07.6-.1-.2.03-.4.07-.6.1Z"/>
        <path class="cls-1" d="m439.42,313.66l.61-.65-.61.65Z"/>
        <path class="cls-1" d="m433.48,223.82c-.33-.14-.65-.28-.98-.43.33.14.65.28.98.43Z"/>
        <polygon class="cls-1" points="422.29 220.63 422.3 220.74 422.19 220.61 422.29 220.63"/>
        <path class="cls-1" d="m433.74,227.13c.12-.19.3-.28.52-.28-.17.09-.35.19-.52.28Z"/>
        <path class="cls-1" d="m410.34,286.96l.24-.78-.24.78Z"/>
        <path class="cls-1" d="m392.73,311.95c-.24.27-.48.54-.72.8-.43-.86-.85-1.72-1.28-2.58l-.04.04c.68.58,1.36,1.16,2.04,1.74Z"/>
        <path class="cls-1" d="m374.74,319.43c.24-.01.47-.02.71-.03-.16.15-.31.3-.47.45-.08-.14-.16-.28-.24-.42Z"/>
        <path class="cls-1" d="m387.81,300.37c.1.25.21.5.31.75-.1-.25-.21-.5-.31-.75Z"/>
        <path class="cls-1" d="m385.03,303c-.13-.29-.25-.57-.38-.86.13.29.25.57.38.86Z"/>
        <path class="cls-1" d="m390.73,310.17c-.07,0-.14.02-.21.03.06,0,.11.01.17.02l.04-.04Z"/>
        <path class="cls-1" d="m420.45,329.49c.33.11.67.22,1,.32-.33-.11-.67-.22-1-.32Z"/>
        <path class="cls-1" d="m377.7,338.17l-.23.03s-.23,0-.23,0c.06-.13.13-.26.19-.39l.28.36Z"/>
        <path class="cls-1" d="m385.47,343.11c-.06.29-.12.59-.18.88.06-.29.12-.59.18-.88Z"/>
      </g>
      <path class="cls-1" d="m120.86,45.6c-7.27,2.01-8.9,3.63-10.9,10.9-2.01-7.27-3.63-8.9-10.9-10.9,7.27-2.01,8.9-3.63,10.9-10.9,2.01,7.27,3.63,8.9,10.9,10.9Z"/>
      <path class="cls-1" d="m368.02,161.91c-7.27,2.01-8.9,3.63-10.9,10.9-2.01-7.27-3.63-8.9-10.9-10.9,7.27-2.01,8.9-3.63,10.9-10.9,2.01,7.27,3.63,8.9,10.9,10.9Z"/>
      <path class="cls-2" d="m186.28,142.83c-7.27,2.01-8.9,3.63-10.9,10.9-2.01-7.27-3.63-8.9-10.9-10.9,7.27-2.01,8.9-3.63,10.9-10.9,2.01,7.27,3.63,8.9,10.9,10.9Z"/>
      <path class="cls-1" d="m10.9,162.82c-3.63,1-4.45,1.82-5.45,5.45-1-3.63-1.82-4.45-5.45-5.45,3.63-1,4.45-1.82,5.45-5.45,1,3.63,1.82,4.45,5.45,5.45Z"/>
      <path class="cls-1" d="m126.31,67.4c-3.63,1-4.45,1.82-5.45,5.45-1-3.63-1.82-4.45-5.45-5.45,3.63-1,4.45-1.82,5.45-5.45,1,3.63,1.82,4.45,5.45,5.45Z"/>
      <path class="cls-1" d="m56.57,88.76c-13.18,3.64-16.13,6.59-19.76,19.76-3.64-13.18-6.59-16.13-19.76-19.76,13.18-3.64,16.13-6.59,19.76-19.76,3.64,13.18,6.59,16.13,19.76,19.76Z"/>
    </g>
  </g>
</svg>