<?xml version="1.0" encoding="UTF-8"?>
<svg id="_レイヤー_2" data-name="レイヤー 2" xmlns="http://www.w3.org/2000/svg" viewBox="0 0 268.32 22.04">
  <defs>
    <style>
      .cls-1 {
        fill: #fff;
      }
    </style>
  </defs>
  <g id="_ボタン" data-name="ボタン">
    <g>
      <polygon class="cls-1" points="0 .05 42.31 .05 42.31 4.39 4.64 4.39 4.64 8.73 42.31 8.73 42.31 13.56 4.64 13.56 4.64 17.61 42.31 17.61 42.31 22.04 0 22.04 0 .05"/>
      <path class="cls-1" d="m129.4,0h-34.96c-1.87,0-3.4,1.53-3.4,3.4v15.19c0,1.87,1.53,3.4,3.4,3.4h34.96c1.87,0,3.4-1.53,3.4-3.4V3.4c0-1.87-1.53-3.4-3.4-3.4Zm-1.48,15.63c0,.94-.79,1.73-1.73,1.73h-28.55c-.94,0-1.73-.79-1.73-1.73V6.41c0-.94.79-1.73,1.73-1.73h28.5c.94,0,1.73.79,1.73,1.73v9.22h.05Z"/>
      <path class="cls-1" d="m84.48.05h-35.85c-1.63,0-2.96,1.33-2.96,2.96v16.08c0,1.63,1.33,2.96,2.96,2.96h38.81v-4.64h-34.96c-1.18,0-2.12-.79-2.12-1.73V6.46c0-.94.99-1.73,2.12-1.73h34.96V.05h-2.96Z"/>
      <polygon class="cls-1" points="186.11 17.41 186.11 0 181.33 0 181.33 22.04 182.32 22.04 186.11 22.04 223.3 22.04 223.3 17.41 186.11 17.41"/>
      <path class="cls-1" d="m264.92,0h-34.96c-1.87,0-3.4,1.53-3.4,3.4v18.59h4.88v-4.64h32.01v4.64h4.88V3.4c0-1.87-1.53-3.4-3.4-3.4Zm-1.48,11.05v2.22h-32.01v-6.85c0-.94.79-1.73,1.73-1.73h28.5c.94,0,1.73.79,1.73,1.73v4.64h.05Z"/>
      <path class="cls-1" d="m174.52,0h-34.96c-1.87,0-3.4,1.53-3.4,3.4v18.59h4.88v-4.64h32.01v4.64h4.88V3.4c0-1.87-1.53-3.4-3.4-3.4Zm-1.48,11.05v2.22h-32.01v-6.85c0-.94.79-1.73,1.73-1.73h28.5c.94,0,1.73.79,1.73,1.73v4.64h.05Z"/>
    </g>
  </g>
</svg>