<?xml version="1.0" encoding="UTF-8"?>
<svg id="_レイヤー_2" data-name="レイヤー 2" xmlns="http://www.w3.org/2000/svg" viewBox="0 0 39.16 32.46">
  <defs>
    <style>
      .cls-1 {
        fill: #aaa;
      }
    </style>
  </defs>
  <g id="_ボタン" data-name="ボタン">
    <path class="cls-1" d="m0,29.16c4.14-.12,7.9-1.17,11.17-3.79-1.64-.21-3.08-.79-4.35-1.76-1.28-.97-2.25-2.17-2.84-3.72,1.06-.07,2.07-.13,3.09-.2.05-.1.1-.2.14-.29-3.7-1.39-5.96-3.89-6.33-7.93,1.13.32,2.19.63,3.25.93.05-.08.11-.15.16-.23-1.39-1.41-2.58-2.95-3.02-4.9-.44-1.96-.15-3.83.91-5.84,4.48,5.07,10.04,7.85,16.67,8.6.07-1.05.08-2.06.21-3.05.77-5.99,7.83-9.02,12.67-5.42.92.69,1.78,1.03,2.89.55,1.16-.5,2.34-.93,3.72-1.29-.43.73-.79,1.51-1.32,2.16-.53.64-1.23,1.15-1.85,1.71.03.09.06.17.09.26,1.24-.31,2.49-.61,3.73-.92.06.07.11.13.17.2-1.05,1.04-2.12,2.04-3.12,3.12-.34.37-.67.91-.68,1.38-.08,4.09-1.08,7.96-2.89,11.58-1.66,3.33-4.18,5.93-7.28,8.02-4.1,2.76-8.56,4.23-13.51,4.11-3.88-.09-7.54-1.1-10.98-2.89-.24-.12-.47-.27-.7-.41Z"/>
  </g>
</svg>