<?xml version="1.0" encoding="UTF-8"?>
<svg id="_レイヤー_2" data-name="レイヤー 2" xmlns="http://www.w3.org/2000/svg" viewBox="0 0 40.19 40">
  <defs>
    <style>
      .cls-1 {
        fill: #aaa;
      }
    </style>
  </defs>
  <g id="_ボタン" data-name="ボタン">
    <g>
      <path class="cls-1" d="m40.19,20.02c-.26,3.27-.31,6.94-.88,10.53-.81,5.19-4.61,8.49-9.86,9-6.24.6-12.5.59-18.74.01-6.21-.57-10.2-4.6-10.5-10.83C-.04,23.29-.03,17.83.06,12.38c.03-1.88.35-3.88,1.08-5.58C2.47,3.74,4.95,1.65,8.25.93,10.63.42,13.11.18,15.56.09c3.76-.14,7.53-.11,11.3-.01,3.27.08,6.43.64,9.08,2.86,2.1,1.76,3.2,4.09,3.52,6.67.42,3.31.48,6.67.72,10.41Zm-20.21,16.48s0-.06,0-.09c.22,0,.44,0,.66,0,3.04-.15,6.1-.08,9.1-.51,3.86-.55,6.33-3.33,6.5-7.18.22-4.86.24-9.74.26-14.61,0-1.34-.19-2.71-.46-4.03-.39-1.91-1.08-3.79-2.93-4.7-1.49-.72-3.16-1.38-4.78-1.45-5.47-.23-10.96-.37-16.43-.19-4.99.16-7.78,2.37-8.22,7.66-.46,5.55-.18,11.16-.13,16.75.02,1.72.42,3.43,1.43,4.88.49.7,1.12,1.49,1.87,1.79,1.47.6,3.04,1.12,4.61,1.28,2.83.29,5.69.29,8.54.41Z"/>
      <path class="cls-1" d="m30.11,20.11c-.01,5.62-4.57,10.12-10.08,10.21-5.26.09-10.35-4.37-10.34-10.26,0-6.37,5.34-10.27,10.2-10.19,5.36.09,10.22,3.63,10.23,10.23Zm-10.13,6.56c3.58-.03,6.57-3.05,6.55-6.59-.03-3.52-3.1-6.59-6.6-6.58-3.55,0-6.66,3.16-6.59,6.67.07,3.59,3.09,6.54,6.64,6.5Z"/>
      <path class="cls-1" d="m32.86,9.36c-.02,1.33-1.26,2.46-2.64,2.41-1.25-.04-2.17-1.01-2.15-2.25.02-1.35,1.15-2.54,2.36-2.49,1.36.05,2.45,1.09,2.43,2.33Z"/>
    </g>
  </g>
</svg>