<?xml version="1.0" encoding="UTF-8"?>
<svg id="_レイヤー_2" data-name="レイヤー 2" xmlns="http://www.w3.org/2000/svg" viewBox="0 0 176.05 148.33">
  <defs>
    <style>
      .cls-1 {
        fill: #6a4e41;
      }

      .cls-2 {
        fill: #b33639;
      }

      .cls-3 {
        fill: #e38785;
      }
    </style>
  </defs>
  <g id="_レイアウト" data-name="レイアウト">
    <g id="_グループ_200" data-name="グループ 200">
      <g id="_グループ_197" data-name="グループ 197">
        <path id="_パス_181" data-name="パス 181" class="cls-1" d="m2.02,126.77c1.5,1.29,3.3,2.17,5.23,2.58,1.96.54,3.87,1.23,5.86,1.68,4.56,1.05,9.16,1.9,13.71,3.01,4.45,1.09,8.83,2.47,13.37,3.12,2.45.3,4.93.23,7.35-.21,2.32-.35,4.63-.69,6.95-1.02,2.61-.37,5.22-.7,7.82-1.15,1.24-.21,2.5-.37,3.72-.63.46-.12.9-.27,1.34-.44.24-.08.48-.16.72-.22.22-.06.45-.1.69-.11.97.02,1.77-.74,1.79-1.71.02-.97-.74-1.77-1.71-1.79-.03,0-.05,0-.08,0-1.05.08-2.09.33-3.07.72-.92.26-1.86.44-2.81.54-2.27.39-4.54.74-6.83,1.06-2.33.33-4.66.67-6.99,1-2.11.4-4.25.64-6.39.7-2.15-.12-4.27-.47-6.35-1.03-2.19-.51-4.36-1.12-6.53-1.69-4.43-1.15-8.92-2.08-13.4-3.02-1.23-.26-2.45-.51-3.66-.83-1.12-.29-2.19-.71-3.3-1.02-.95-.27-1.93-.5-2.87-.83l-.25-.09s-.43-.17-.27-.1c.17.07-.15-.07-.18-.09-.13-.06-.25-.12-.38-.19-.2-.11-.39-.23-.57-.35-.28-.18-.11-.08-.05-.03-.13-.11-.25-.22-.37-.34-.68-.68-1.79-.68-2.47,0-.68.68-.68,1.79,0,2.47"/>
        <path id="_パス_182" data-name="パス 182" class="cls-1" d="m4.08,124.46c-.18.49.08-.09.16-.22.23-.37-.25.24.08-.09.07-.07.14-.15.21-.22.41-.43.86-.82,1.32-1.19.04-.04.27-.2.03-.02.1-.08.21-.15.31-.23.17-.13.34-.25.52-.36.5-.35,1.03-.65,1.58-.9-.19.08.1-.04.11-.05.18-.07.36-.13.54-.19.31-.1.62-.19.93-.26.29-.07.57-.13.86-.18.16-.03.32-.06.48-.08-.25.03.26-.03.31-.03,1.41-.14,2.82-.05,4.23-.1,2.77-.08,5.51-.57,8.28-.56,3.02,0,5.99.75,9.02,1.14,3.02.45,6.09.54,9.13.28,2.93-.29,5.77-1.21,8.3-2.71,1.25-.72,2.45-1.51,3.6-2.38,1.07-.88,2.09-1.81,3.07-2.79.84-.86,1.79-1.59,2.83-2.18.14-.07.28-.14.41-.21.3-.15-.32.13.08-.04.22-.09.44-.18.66-.26.5-.19,1-.37,1.51-.54,4.9-1.53,9.88-2.77,14.93-3.69.93-.25,1.49-1.2,1.25-2.14s-1.2-1.49-2.14-1.25c-.01,0-.03,0-.04.01-4.57.93-9.15,1.9-13.61,3.27-1.05.32-2.08.67-3.1,1.07-1.32.51-2.55,1.21-3.66,2.08-.99.81-1.93,1.67-2.82,2.58-.96.94-2.03,1.77-3.17,2.48-2.24,1.58-4.79,2.64-7.49,3.12-3.02.36-6.08.32-9.09-.12-2.97-.36-6.03-1.13-9.07-1.22-2.91-.08-5.79.44-8.69.55-1.55.06-3.1-.05-4.64.12-1.66.16-3.28.58-4.8,1.25-1.18.58-2.27,1.31-3.27,2.16-1.12.81-1.99,1.9-2.54,3.16-.25.93.29,1.89,1.22,2.15.93.23,1.87-.31,2.15-1.22"/>
        <path id="_パス_183" data-name="パス 183" class="cls-1" d="m73.13,136.1c4.85-.7,9.75-1.03,14.64-.99,2.84.04,5.66.08,8.5-.1,2.89-.18,5.78-.51,8.65-.92,2.78-.4,5.56-.88,8.34-1.29,2.53-.47,5.12-.65,7.69-.54,2.43.27,4.82.88,7.08,1.81,1.11.45,2.19.96,3.24,1.53,1.1.59,2.18,1.21,3.25,1.84,4.96,2.94,9.58,6.41,13.81,10.33.67.7,1.77.73,2.47.06.7-.67.73-1.77.06-2.47-.02-.02-.04-.04-.06-.06-3.93-3.65-8.2-6.93-12.74-9.79-4.45-2.81-9.2-5.4-14.43-6.37-1.35-.26-2.72-.41-4.1-.44-1.35,0-2.7.11-4.03.3-2.95.36-5.88.85-8.81,1.31-5.59.95-11.25,1.4-16.92,1.34-2.87-.07-5.75-.08-8.62.1-3,.18-5.98.55-8.95.97-.93.26-1.47,1.22-1.22,2.15.28.91,1.22,1.45,2.15,1.22"/>
        <path id="_パス_184" data-name="パス 184" class="cls-1" d="m8.08,116.9s-.59-.08-.26-.02c-.18-.03-.35-.08-.53-.13,0,0-.55-.19-.26-.07-.17-.07-.33-.15-.48-.24-.62-.33-1.17-.76-1.63-1.28-.39-.4-.74-.84-1.09-1.27-.08-.1-.16-.2-.24-.29.27.33,0,0-.05-.07-.06-.09-.12-.21-.19-.29-.2-.41-.17-.08.09.98-.13.27-.15.33-.05.16-.11.32-.11.14.06-.01.04-.04.41-.33.1-.1.23-.17.48-.33.72-.49.16-.1.32-.19.48-.29.15-.08.29-.16.45-.23.06-.03.64-.28.38-.18,1.45-.55,2.97-.93,4.51-1.13.59-.09-.33.03.25-.03.17-.02.35-.04.52-.06.37-.04.73-.07,1.1-.08.86-.03,1.71.04,2.55.21,1.72.32,3.39.85,5.07,1.32,1.73.49,3.45.98,5.14,1.59,1.58.57,3.06,1.32,4.61,2.03,1.96.89,3.93,1.77,5.95,2.51,1.95.72,4.05.81,6.05,1.36.93.25,1.89-.31,2.14-1.25.24-.92-.29-1.86-1.21-2.13-1.92-.53-3.95-.62-5.84-1.28-1.86-.65-3.64-1.46-5.43-2.29-1.87-.86-3.71-1.75-5.65-2.44-1.87-.66-3.78-1.18-5.68-1.72-1.95-.61-3.95-1.06-5.98-1.34-1.83-.14-3.66-.01-5.45.37-1.75.28-3.45.83-5.03,1.62-1.18.62-2.81,1.57-3.13,2.96-.26,1.1.41,1.94,1.05,2.74.43.53.86,1.07,1.34,1.56,1.46,1.6,3.47,2.59,5.63,2.77.97,0,1.75-.78,1.76-1.74-.02-.96-.79-1.73-1.75-1.75"/>
        <path id="_パス_185" data-name="パス 185" class="cls-1" d="m21.34,109.99c.21-.21-.12.1-.14.09s.2-.11.21-.13c.15-.13-.33.06-.13.06.09-.02.18-.04.27-.07.08-.02.15-.03.23-.04-.06.01-.41.03-.1.02.22,0,.44-.02.67-.01.19,0,.38.02.56.04.12.01.24.03.36.04.26.02-.29-.06-.02,0,.46.1.93.16,1.38.26,1.88.4,3.77.79,5.65,1.17,1.25.24,2.49.54,3.71.91,1.2.38,2.33.92,3.5,1.36,2.43.74,4.98,1,7.51.76,1.37-.05,2.74-.06,4.11-.17.68-.06,1.36-.13,2.04-.12.56-.03,1.13.06,1.65.27.84.45,1.88.18,2.39-.63.48-.83.2-1.9-.63-2.39-1.36-.59-2.85-.84-4.33-.72-1.29.08-2.58.17-3.88.21-1.3.05-2.59.11-3.89.1-1.17.03-2.34-.13-3.46-.48-1.25-.41-2.43-1-3.68-1.43-1.31-.43-2.65-.77-4.01-1.03-1.99-.4-3.98-.82-5.97-1.23-2.04-.42-4.84-.95-6.49.7-.68.68-.68,1.79,0,2.47.68.68,1.79.68,2.47,0"/>
        <path id="_パス_186" data-name="パス 186" class="cls-1" d="m36.99,111.76c.18-.18.37-.35.55-.52.16-.13.19-.15.07-.06.09-.07.19-.14.29-.2.37-.25.77-.47,1.18-.65-.32.13.29-.1.35-.11.21-.07.42-.12.63-.17.16-.04.32-.07.48-.1.11-.02.22-.04.32-.05-.19.03-.18.03.03,0,1.89-.07,3.77-.02,5.65.16,2.32.13,4.64.1,6.95-.06,2.18-.15,4.1-.75,6.29-.47.97,0,1.75-.78,1.75-1.75-.03-.95-.79-1.72-1.75-1.75-.83-.09-1.67-.08-2.5.03-.5.06-1,.12-1.5.19s-.68.1-1.14.15c-1.83.18-3.67.26-5.51.24-3.26-.02-6.61-.7-9.84,0-1.81.41-3.47,1.33-4.77,2.65-.68.68-.68,1.79,0,2.47.68.68,1.79.68,2.47,0h0"/>
        <path id="_パス_187" data-name="パス 187" class="cls-1" d="m117.67,82.57c4.22,1,8.32,2.49,12.21,4.42,1.89.94,3.7,2.05,5.38,3.32.16.12.64.51.94.75.45.37.89.75,1.34,1.13.78.68,1.54,1.38,2.3,2.09,1.53,1.43,3.04,2.9,4.62,4.29,1.73,1.53,3.56,2.94,5.42,4.31,3.8,2.79,7.74,5.37,11.81,7.74,1.11.65,2.21,1.29,3.28,2,.99.66,1.91,1.4,2.88,2.08,1.9,1.16,3.66,2.54,5.25,4.1.7.67,1.81.64,2.47-.06.64-.68.64-1.74,0-2.41-1.52-1.52-3.2-2.86-5.02-3.99-1.81-1.26-3.55-2.61-5.44-3.75-4.06-2.45-8.11-4.88-11.98-7.64-1.86-1.32-3.6-2.63-5.33-4.09-1.6-1.36-3.12-2.81-4.64-4.24-3.06-3.11-6.53-5.8-10.29-8.01-4.5-2.4-9.29-4.21-14.25-5.4-.93-.25-1.89.31-2.14,1.25-.24.92.29,1.86,1.21,2.13"/>
        <path id="_パス_188" data-name="パス 188" class="cls-1" d="m54.04,101.19c-1.38.03-2.76.18-4.14.17-.36,0-.72,0-1.07-.03-.2-.01-.4-.03-.6-.05-.09,0-.17-.02-.26-.03-.15-.01.35.06-.05-.01-.35-.06-.7-.14-1.04-.24-.15-.05-.3-.11-.45-.16.46.15-.07-.04-.21-.12-.06-.04-.12-.08-.19-.12-.32-.16.19.2.04.04-.11-.11-.24-.23-.35-.34s-.03-.18.07.1c-.02-.06-.09-.12-.12-.19s-.07-.14-.11-.2c-.18-.3.12.37-.05-.13-.17-.48-.31-.98-.41-1.47-.02-.12-.04-.23-.06-.35-.06-.33.03.41-.02-.14-.02-.26-.04-.52-.05-.78s0-.51.01-.76c0-.12.09-.69.03-.36.09-.5.22-.99.39-1.47.1-.26-.11.23,0-.01.05-.1.09-.19.14-.28.11-.2.23-.39.36-.59.04-.06.21-.25,0,0,.06-.08.13-.15.2-.23.17-.19.36-.36.55-.52-.27.21.14-.08.21-.12.11-.07.22-.13.33-.19.14-.07.27-.14.41-.21s.67-.26.19-.09c.69-.24,1.36-.5,2.06-.7,1.68-.46,3.38-.82,5.1-1.08.44-.07.87-.13,1.31-.19.1-.01.44-.06.08-.01l.31-.04c.26-.03.51-.06.77-.1.87-.1,1.75-.19,2.62-.27,1.51-.13,3.03-.24,4.55-.28,5.55-.15,11.09.22,16.64-.09.97-.02,1.73-.82,1.71-1.79-.02-.93-.77-1.68-1.71-1.71-5.41.3-10.81-.02-16.23.08-3.6.09-7.18.42-10.74.99-1.82.26-3.62.64-5.39,1.13-1.64.4-3.19,1.11-4.56,2.1-1.75,1.52-2.77,3.71-2.82,6.03-.13,2.12.32,4.87,1.83,6.47,1.42,1.5,3.67,1.88,5.64,1.97,1.7.08,3.39-.12,5.08-.15.97.02,1.77-.74,1.79-1.71.02-.97-.74-1.77-1.71-1.79-.03,0-.05,0-.08,0"/>
        <path id="_パス_189" data-name="パス 189" class="cls-1" d="m57.93,104.29c2.33-.01,4.63-.4,6.95-.61,2.22-.18,4.45-.08,6.64.31,2.25.36,4.48.87,6.66,1.53,2.02.64,3.96,1.49,5.96,2.16,2.33.86,4.8,1.23,7.28,1.1.97.02,1.77-.74,1.79-1.71.02-.97-.74-1.77-1.71-1.79-.03,0-.05,0-.08,0-2.03.15-4.08-.14-5.99-.85-1.98-.64-3.9-1.48-5.87-2.14-2.15-.68-4.35-1.21-6.57-1.58-2.4-.49-4.85-.69-7.29-.6-2.6.16-5.16.66-7.77.67-.97-.02-1.77.74-1.79,1.71-.02.97.74,1.77,1.71,1.79.03,0,.05,0,.08,0"/>
        <path id="_パス_190" data-name="パス 190" class="cls-1" d="m86.51,88.72c.23-.15.47-.28.71-.39-.07.03-.27.1.07-.03.11-.04.23-.09.34-.13.57-.21,1.15-.38,1.73-.56,1.2-.39,2.38-.83,3.6-1.18,2.58-.74,5.21-1.33,7.86-1.78,1.85-.32,3.7-.67,5.55-1.02.98-.19,1.96-.37,2.95-.54.5-.09,1-.17,1.51-.25.28-.04.55-.08.83-.12.06,0,.35-.05.03,0l.49-.06c1.07-.14,2.15-.22,3.23-.25.45,0,.9,0,1.35.03.11,0,.55-.02.61.06-.06-.08-.38-.07-.06,0,.13.03.25.05.38.08.93.27,1.9-.27,2.16-1.2.27-.93-.27-1.9-1.2-2.16-.01,0-.03,0-.04-.01-1.83-.34-3.7-.39-5.55-.13-2.23.23-4.45.6-6.65,1.02-4.52.85-9.1,1.52-13.53,2.74-1.45.4-2.85.9-4.28,1.37-1.34.34-2.63.85-3.85,1.52-.83.49-1.11,1.56-.63,2.39.49.83,1.56,1.11,2.39.63"/>
        <path id="_パス_191" data-name="パス 191" class="cls-1" d="m45.74,138.4c4.48,1.6,9.24,2.8,14.03,2.56,2.33-.14,4.65-.43,6.94-.88,2.25-.39,4.46-.97,6.61-1.72,1.18-.42,2.42-1.07,3.49-1.5,1.23-.47,2.49-.85,3.78-1.12.93-.25,1.49-1.2,1.25-2.14-.25-.93-1.2-1.49-2.14-1.25-.01,0-.03,0-.04.01-1.11.24-2.21.55-3.28.93-1.01.37-2.11.93-3,1.31-2.06.81-4.2,1.43-6.37,1.85-4.19,1.02-8.53,1.24-12.8.65-2.57-.48-5.09-1.18-7.54-2.09-.93-.25-1.89.29-2.15,1.22-.23.93.31,1.87,1.22,2.15"/>
        <path id="_パス_192" data-name="パス 192" class="cls-2" d="m101.52,23.54c-7.24-8.06-19.65-8.72-27.71-1.48-2.19,1.97-3.91,4.4-5.03,7.12-4.12-10.02-15.59-14.81-25.62-10.68-9.37,3.85-14.26,14.2-11.3,23.88,2.19,7.22,8.44,12.63,15.36,15.64,6.63,2.88,21.55,13.31,21.55,13.31,0,0,14.92-10.43,21.55-13.31,6.92-3,13.17-8.42,15.36-15.64,1.92-6.58.35-13.69-4.18-18.84"/>
        <path id="_パス_193" data-name="パス 193" class="cls-3" d="m60.25,10.8c-.17-.02-.33-.11-.43-.24-1.14-1.34-1.98-2.35-2.81-3.37-.28-.37-.26-.88.03-1.23.22-.29.63-.34.91-.13.05.03.09.08.12.12.82,1.01,1.66,2.01,2.79,3.35.28.36.27.87-.02,1.23-.14.18-.37.28-.6.27"/>
        <path id="_パス_194" data-name="パス 194" class="cls-3" d="m68.71,6.56c-.4-.08-.68-.45-.64-.86.04-1.94.08-3.39.13-4.84-.02-.45.32-.83.76-.87.43.04.74.42.7.85,0,0,0,.02,0,.02-.05,1.44-.09,2.88-.13,4.8.02.45-.31.83-.75.88-.02,0-.05,0-.07,0"/>
        <path id="_パス_195" data-name="パス 195" class="cls-3" d="m76.96,10.66c-.17-.02-.33-.11-.44-.25-.28-.37-.26-.88.03-1.23,1.19-1.38,2.08-2.4,2.98-3.41.22-.28.63-.33.91-.11.05.04.09.08.12.12.27.37.25.88-.05,1.23-.9,1.01-1.78,2.02-2.96,3.39-.14.18-.36.27-.59.26"/>
      </g>
    </g>
  </g>
</svg>