<?xml version="1.0" encoding="UTF-8"?>
<svg id="_レイヤー_2" data-name="レイヤー 2" xmlns="http://www.w3.org/2000/svg" viewBox="0 0 219.08 127">
  <defs>
    <style>
      .cls-1 {
        letter-spacing: .05em;
      }

      .cls-2, .cls-3 {
        fill: #fff;
      }

      .cls-4 {
        letter-spacing: .03em;
      }

      .cls-3 {
        font-family: Avenir-Heavy, Avenir;
        font-size: 26.82px;
        font-weight: 800;
      }
    </style>
  </defs>
  <g id="_追従ボタン" data-name="追従ボタン">
    <g>
      <g>
        <path class="cls-2" d="m12.84,6.35c.03,3.58-2.55,6.33-6.56,6.33C2.55,12.68-.03,9.94,0,6.35-.03,2.67,2.64,0,6.42,0s6.39,2.65,6.42,6.35ZM.49,63.41V18.63h11.92v44.78H.49Z"/>
        <path class="cls-2" d="m27.24,2.42c4.43-.8,10.2-1.29,16.31-1.29,10.4,0,17.43,2.15,22.63,6.44,5.88,4.78,9.44,12.43,9.44,23.57,0,11.87-3.78,20.18-9.4,25.21-5.68,5.1-14.4,7.62-25.29,7.62-5.88,0-10.49-.37-13.69-.8V2.42Zm11.9,51.82c1.22.23,3.05.25,4.68.25,11.58.06,19.28-7,19.28-23.13.03-13.36-6.48-20.92-18.17-20.92-2.61,0-4.52.22-5.79.52v43.28Z"/>
        <path class="cls-2" d="m81.5,32.71c0-5.65-.15-10.14-.37-14.08h10.3l.48,7.89h.32c2.12-5.88,6.94-8.82,11.23-8.82,1.15,0,1.77.05,2.64.23v11.39c-.91-.19-1.85-.28-3.15-.28-4.6,0-8.17,2.9-9.21,7.69-.21.98-.33,2.25-.33,3.61v23.07h-11.92v-30.7Z"/>
        <path class="cls-2" d="m122.54,18.63l6.68,23.4c.76,2.75,1.53,5.89,2.1,8.35h.25c.58-2.44,1.26-5.61,1.94-8.36l5.7-23.39h12.43l-10.2,30.99c-5.08,14.76-8.93,22.63-14.04,27.63-4.31,4.11-8.95,5.79-11.66,6.23l-2.92-10.1c1.91-.54,4.13-1.64,6.24-3.21,2-1.43,4.09-3.81,5.36-6.31.43-.78.69-1.41.69-2,0-.52-.12-1.15-.51-2.07l-15.12-41.16h13.05Z"/>
        <path class="cls-2" d="m162.48,44.61c.28,7.61,5.83,10.66,12.25,10.66,4.5,0,8-.74,11.11-1.87l1.67,8.25c-3.79,1.6-8.94,2.61-14.62,2.61-13.91,0-21.85-8.71-21.85-22.56,0-12.84,7.35-23.98,20.68-23.98s18.1,10.61,18.1,21.65c0,2.42-.19,4.19-.4,5.25h-26.95Zm16.26-8.28c.05-4.64-1.73-10.38-7.72-10.38s-8.2,5.95-8.57,10.38h16.29Z"/>
        <path class="cls-2" d="m194.47,32.71c0-5.65-.15-10.14-.37-14.08h10.3l.48,7.89h.32c2.12-5.88,6.94-8.82,11.23-8.82,1.15,0,1.77.05,2.64.23v11.39c-.91-.19-1.85-.28-3.15-.28-4.6,0-8.17,2.9-9.21,7.69-.21.98-.33,2.25-.33,3.61v23.07h-11.92v-30.7Z"/>
      </g>
      <text class="cls-3" transform="translate(28.08 115.36)"><tspan class="cls-1" x="0" y="0">AI P</tspan><tspan class="cls-4" x="56.5" y="0">r</tspan><tspan class="cls-1" x="67.8" y="0">o Style</tspan></text>
    </g>
  </g>
</svg>