<?xml version="1.0" encoding="UTF-8"?>
<svg id="_レイヤー_2" data-name="レイヤー 2" xmlns="http://www.w3.org/2000/svg" viewBox="0 0 90 88.97">
  <defs>
    <style>
      .cls-1 {
        fill: #040000;
      }

      .cls-2 {
        fill: #fff;
      }
    </style>
  </defs>
  <g id="_追従ボタン" data-name="追従ボタン">
    <g>
      <rect class="cls-2" x="0" y="0" width="90" height="88.97" rx="17.93" ry="17.93"/>
      <g>
        <path class="cls-1" d="m19,32.03h2.87v5.34s-.08,1.36.33,1.8,1.22.61,2.24.61h4.23v1.78h-5.5s-2.06-.25-2.83-.84-1.36-1.25-1.36-2.86.02-5.84.02-5.84Z"/>
        <path class="cls-1" d="m41.16,32.81c-1.54-.78-3.27-.78-4.54-.78s-3,0-4.54.78c-1.11.57-2.38,1.6-2.38,3.91s.77,2.92,1.98,3.89c1.22.96,4.94,1,4.94,1,0,0,3.72-.04,4.94-1,1.22-.96,1.98-1.58,1.98-3.89s-1.27-3.34-2.38-3.91Zm-1.89,6.53c-.65.64-2.65.67-2.65.67,0,0-2-.03-2.65-.67-.65-.64-1.07-1.05-1.07-2.59s.68-2.22,1.28-2.6c.83-.52,1.76-.52,2.44-.52s1.61,0,2.44.52c.6.38,1.28,1.07,1.28,2.6s-.41,1.95-1.07,2.59Z"/>
        <path class="cls-1" d="m49.56,48.26c-1.54-.78-3.27-.78-4.54-.78s-3,0-4.54.78c-1.11.57-2.38,1.6-2.38,3.91s.77,2.92,1.98,3.89c1.22.96,4.94,1,4.94,1,0,0,3.72-.04,4.94-1,1.22-.96,1.98-1.58,1.98-3.89s-1.27-3.34-2.38-3.91Zm-1.89,6.53c-.65.64-2.65.67-2.65.67,0,0-2-.03-2.65-.67-.65-.64-1.07-1.05-1.07-2.59s.68-2.22,1.28-2.6c.83-.52,1.76-.52,2.44-.52s1.61,0,2.44.52c.6.38,1.28,1.07,1.28,2.6s-.41,1.95-1.07,2.59Z"/>
        <polygon class="cls-1" points="44.33 32.13 47.67 32.13 53.22 41.5 50.24 41.5 44.33 32.13"/>
        <polygon class="cls-1" points="59.3 32.13 55.96 32.13 50.41 41.5 53.39 41.5 59.3 32.13"/>
        <path class="cls-1" d="m66.37,39.79c-2.96,0-2.76-2.07-2.76-2.07h7.94v-1.82h-7.94s-.19-2.07,2.76-2.07h5.17v-1.79h-4.46s0,0,0,0c-.04,0-.08,0-.12,0h-.06c-1.25,0-2.89.03-4.35.78-1.11.57-2.38,1.6-2.38,3.91s.77,2.92,1.98,3.89c1.22.96,4.75.99,4.75.99h4.65v-1.81h-5.17Z"/>
        <path class="cls-1" d="m22.89,51.93c-.87-.57-3.41-.59-3.41-.59h-3.73s-.76,0-1.02-.22c-.26-.21-.42-.34-.42-.85s.27-.73.51-.85c.31-.16.66-.17.93-.17h0s.03,0,.03,0c0,0,0,0,0,0,0,0,0,0,0,0h2.64s5.1,0,5.1,0v-1.78h-7.54s0,0,0,0c-.03,0-.06,0-.09,0h-.05c-.9,0-2.07.02-3.13.46-.8.33-1.71.95-1.71,2.3s.55,1.73,1.42,2.29c.76.49,2.78.57,3.29.58h3.73s.76,0,1.02.22c.26.21.42.35.42.85s-.27.73-.51.86c-.31.16-.66.17-.93.17h0s-.03,0-.03,0c0,0,0,0,0,0,0,0,0,0,0,0h-3.79s-4,0-4,0v1.77h7.72s0,0,0,0c.02,0,.05,0,.07,0h.06c.9,0,2.07-.02,3.13-.46.8-.33,1.71-.95,1.71-2.3s-.55-1.73-1.42-2.29Z"/>
        <rect class="cls-1" x="25.14" y="47.48" width="12.22" height="1.77"/>
        <rect class="cls-1" x="29.65" y="49" width="3.03" height="7.97"/>
        <rect class="cls-1" x="66.99" y="47.5" width="3.03" height="9.48"/>
        <polygon class="cls-1" points="72.22 53.22 70.02 52.21 75.53 47.5 79.64 47.5 72.22 53.22"/>
        <polygon class="cls-1" points="72.35 51.19 70.02 52.21 75.17 56.97 79.29 56.97 72.35 51.19"/>
        <path class="cls-1" d="m59.92,55.23s-1.64-.02-2.21-.62c-.56-.6-.92-.99-.92-2.43s.59-2.09,1.11-2.44c.68-.47,1.44-.49,2.02-.49h0s.03,0,.03,0c.02,0,.04,0,.05,0,0,0,0,0,0,0h5.02v-1.78h-4.7s0,0,0,0c-.04,0-.08,0-.11,0h-.07c-1.25,0-2.89.03-4.35.78-1.11.57-2.38,1.6-2.38,3.91s.77,2.92,1.98,3.89c1.22.96,4.75.99,4.75.99h4.89v-1.81h-5.11Z"/>
      </g>
    </g>
  </g>
</svg>