<?xml version="1.0" encoding="UTF-8"?>
<svg id="_レイヤー_2" data-name="レイヤー 2" xmlns="http://www.w3.org/2000/svg" viewBox="0 0 310.45 188.2">
  <defs>
    <style>
      .cls-1 {
        letter-spacing: .05em;
      }

      .cls-2 {
        fill: #141414;
      }

      .cls-3 {
        letter-spacing: .03em;
      }

      .cls-4 {
        font-family: Avenir-Heavy, Avenir;
        font-size: 38px;
        font-weight: 800;
      }
    </style>
  </defs>
  <g id="_レイアウト" data-name="レイアウト">
    <g>
      <g>
        <path class="cls-2" d="m18.2,9.01c.04,5.08-3.61,8.96-9.29,8.96C3.62,17.97-.04,14.08,0,9.01-.04,3.78,3.74,0,9.1,0s9.05,3.76,9.1,9.01ZM.69,89.85V26.4h16.9v63.45H.69Z"/>
        <path class="cls-2" d="m38.61,3.43c6.28-1.13,14.46-1.83,23.11-1.83,14.73,0,24.7,3.04,32.06,9.12,8.34,6.77,13.38,17.62,13.38,33.4,0,16.82-5.36,28.59-13.32,35.73-8.05,7.22-20.41,10.8-35.84,10.8-8.33,0-14.87-.52-19.4-1.13V3.43Zm16.86,73.44c1.73.33,4.32.35,6.63.35,16.41.09,27.32-9.91,27.32-32.77.05-18.93-9.18-29.64-25.75-29.64-3.7,0-6.4.32-8.2.73v61.33Z"/>
        <path class="cls-2" d="m115.49,46.35c0-8.01-.21-14.36-.52-19.95h14.6l.69,11.19h.46c3.01-8.33,9.84-12.5,15.91-12.5,1.62,0,2.51.06,3.74.33v16.13c-1.29-.26-2.62-.4-4.46-.4-6.52,0-11.58,4.12-13.05,10.9-.3,1.39-.47,3.19-.47,5.11v32.69h-16.9v-43.5Z"/>
        <path class="cls-2" d="m173.64,26.4l9.46,33.16c1.08,3.9,2.17,8.35,2.98,11.83h.35c.82-3.46,1.79-7.95,2.74-11.85l8.08-33.15h17.62l-14.46,43.91c-7.2,20.91-12.66,32.07-19.89,39.16-6.1,5.83-12.68,8.2-16.52,8.82l-4.14-14.31c2.7-.77,5.86-2.33,8.85-4.55,2.84-2.03,5.8-5.39,7.59-8.94.61-1.1.98-2,.98-2.84,0-.73-.17-1.63-.73-2.93l-21.42-58.32h18.49Z"/>
        <path class="cls-2" d="m230.24,63.21c.4,10.78,8.25,15.1,17.37,15.1,6.37,0,11.33-1.04,15.75-2.65l2.37,11.68c-5.37,2.27-12.66,3.7-20.72,3.7-19.71,0-30.96-12.35-30.96-31.97,0-18.19,10.42-33.98,29.31-33.98s25.65,15.04,25.65,30.68c0,3.42-.26,5.94-.57,7.44h-38.19Zm23.04-11.74c.06-6.58-2.45-14.71-10.95-14.71s-11.62,8.43-12.14,14.71h23.08Z"/>
        <path class="cls-2" d="m275.57,46.35c0-8.01-.21-14.36-.52-19.95h14.6l.69,11.19h.46c3.01-8.33,9.84-12.5,15.91-12.5,1.62,0,2.51.06,3.74.33v16.13c-1.29-.26-2.62-.4-4.46-.4-6.52,0-11.58,4.12-13.05,10.9-.3,1.39-.47,3.19-.47,5.11v32.69h-16.9v-43.5Z"/>
      </g>
      <text class="cls-4" transform="translate(39.8 171.71)"><tspan class="cls-1" x="0" y="0">AI P</tspan><tspan class="cls-3" x="80.07" y="0">r</tspan><tspan class="cls-1" x="96.06" y="0">o Style</tspan></text>
    </g>
  </g>
</svg>